<svg id="visual" viewBox="0 0 1920 1080" width="1920" height="1080" xmlns="http://www.w3.org/2000/svg" xmlns:xlink="http://www.w3.org/1999/xlink" version="1.1"><rect x="0" y="0" width="1920" height="1080" fill="#121010"></rect><defs><linearGradient id="grad1_0" x1="43.8%" y1="0%" x2="100%" y2="100%"><stop offset="14.444444444444446%" stop-color="#121010" stop-opacity="1"></stop><stop offset="85.55555555555554%" stop-color="#121010" stop-opacity="1"></stop></linearGradient></defs><defs><linearGradient id="grad2_0" x1="0%" y1="0%" x2="56.3%" y2="100%"><stop offset="14.444444444444446%" stop-color="#121010" stop-opacity="1"></stop><stop offset="85.55555555555554%" stop-color="#121010" stop-opacity="1"></stop></linearGradient></defs><g transform="translate(1920, 0)"><path d="M0 648C-49.3 646.1 -98.7 644.2 -144.2 631.8C-189.7 619.3 -231.5 596.2 -277.3 575.7C-323 555.2 -372.9 537.3 -396.5 497.2C-420.2 457.2 -417.7 394.9 -445.6 355.4C-473.5 315.9 -531.8 299.1 -545.1 262.5C-558.3 225.9 -526.6 169.4 -536.2 122.4C-545.9 75.3 -596.9 37.7 -648 0L0 0Z" fill="#b01a05"></path></g><g transform="translate(0, 1080)"><path d="M0 -648C43.7 -619.8 87.4 -591.6 130.8 -573.3C174.3 -554.9 217.4 -546.4 249 -517.2C280.7 -488 300.7 -438.1 319.2 -400.3C337.7 -362.5 354.7 -336.7 405.8 -323.6C456.8 -310.5 541.9 -310.1 583.8 -281.2C625.7 -252.3 624.4 -194.9 627.9 -143.3C631.3 -91.7 639.7 -45.9 648 0L0 0Z" fill="#b01a05"></path></g></svg>