<svg id="uuid-26e85e01-550e-4987-a6e3-c0101947ec7f" xmlns="http://www.w3.org/2000/svg" width="22" height="22" xmlns:xlink="http://www.w3.org/1999/xlink" viewBox="0 0 2500 2499.93"><defs><clipPath id="uuid-eb682c63-59a3-4f02-84f4-f9c0abba4333"><path d="M1250,225.18c333.75,0,373.28,1.25,505.09,7.27,121.88,5.56,188.06,25.9,232.1,43.03,58.37,22.69,99.99,49.74,143.73,93.48,43.73,43.74,70.84,85.37,93.48,143.73,17.13,44.04,37.47,110.22,43.03,232.1,6.01,131.81,7.27,171.33,7.27,505.09s-1.25,373.27-7.27,505.08c-5.56,121.88-25.9,188.06-43.03,232.1-22.69,58.37-49.74,99.99-93.48,143.73-43.74,43.73-85.37,70.84-143.73,93.48-44.04,17.13-110.22,37.47-232.1,43.03-131.8,6.01-171.33,7.27-505.09,7.27s-373.27-1.25-505.08-7.27c-121.88-5.56-188.06-25.9-232.1-43.03-58.37-22.7-99.99-49.75-143.73-93.48-43.73-43.74-70.84-85.37-93.48-143.73-17.14-44.04-37.47-110.22-43.03-232.1-6.01-131.8-7.27-171.33-7.27-505.08s1.25-373.27,7.27-505.09c5.56-121.88,25.9-188.06,43.03-232.1,22.69-58.37,49.74-99.99,93.48-143.73,43.74-43.73,85.37-70.84,143.73-93.48,44.04-17.13,110.22-37.47,232.1-43.03,131.8-5.96,171.33-7.27,505.08-7.27ZM1250,0c-339.46,0-382.04,1.45-515.35,7.51-133.06,6.06-223.89,27.21-303.39,58.11-82.21,31.96-151.89,74.7-221.38,144.18-69.48,69.49-112.26,139.17-144.18,221.38-30.91,79.51-52.05,170.38-58.11,303.39C1.53,867.89.07,910.47.07,1249.92s1.45,382.04,7.51,515.35c6.06,133.06,27.21,223.89,58.11,303.39,31.96,82.21,74.7,151.89,144.18,221.38,69.49,69.49,139.22,112.22,221.38,144.18,79.51,30.91,170.38,52.05,303.39,58.11,133.31,6.06,175.89,7.51,515.35,7.51s382.04-1.45,515.35-7.51c133.06-6.06,223.89-27.21,303.39-58.11,82.21-31.97,151.89-74.7,221.38-144.18,69.49-69.49,112.22-139.22,144.18-221.38,30.91-79.5,52.05-170.38,58.11-303.39,6.06-133.31,7.51-175.89,7.51-515.35s-1.45-382.04-7.51-515.35c-6.06-133.06-27.21-223.89-58.11-303.39-31.97-82.21-74.7-151.89-144.18-221.38-69.49-69.48-139.22-112.22-221.38-144.18-79.5-30.91-170.38-52.05-303.39-58.11C1632.04,1.45,1589.46,0,1250,0ZM1250,608.08c-354.49,0-641.84,287.35-641.84,641.84s287.35,641.85,641.84,641.85,641.85-287.36,641.85-641.85-287.36-641.84-641.85-641.84ZM1250,1666.59c-230.09,0-416.66-186.51-416.66-416.66s186.57-416.66,416.66-416.66,416.66,186.51,416.66,416.66-186.57,416.66-416.66,416.66ZM1917.19,432.74c-82.86,0-149.99,67.13-149.99,149.99s67.13,150,149.99,150,150-67.14,150-150-67.13-149.99-150-149.99Z" fill="none"/></clipPath><radialGradient id="uuid-5966a715-262f-4df0-8944-7f2e21b2dab8" cx="1275.12" cy="890.37" fx="1275.12" fy="890.37" r="65" gradientTransform="translate(32230.38 51295.08) rotate(-90) scale(38.12 -35.45)" gradientUnits="userSpaceOnUse"><stop offset="0" stop-color="#f8dd6d"/><stop offset=".1" stop-color="#f8dd6d"/><stop offset=".5" stop-color="#eb6149"/><stop offset="1" stop-color="#b743a5"/></radialGradient><radialGradient id="uuid-2b269254-bc51-47da-af5a-3292a950e36b" cx="787.46" cy="1279.5" fx="787.46" fy="1279.5" r="65" gradientTransform="translate(-91168.81 4671.65) rotate(78.68) scale(17.04 -70.24) skewX(-.02)" gradientUnits="userSpaceOnUse"><stop offset="0" stop-color="#4670c1"/><stop offset=".13" stop-color="#4670c1"/><stop offset="1" stop-color="#5d0ef4" stop-opacity="0"/></radialGradient></defs><g clip-path="url(#uuid-eb682c63-59a3-4f02-84f4-f9c0abba4333)"><path d="M1250.41.07C728.54.07,575.92.61,546.25,3.07c-107.1,8.9-173.74,25.77-246.34,61.92-55.95,27.79-100.08,60-143.63,105.16C76.97,252.5,28.91,353.81,11.51,474.24,3.05,532.7.59,544.63.09,843.25c-.19,99.54,0,230.54,0,406.26,0,521.55.58,674.06,3.08,703.67,8.65,104.23,25,169.81,59.6,241.54,66.14,137.31,192.46,240.39,341.28,278.85,51.53,13.27,108.44,20.58,181.5,24.04,30.96,1.35,346.47,2.31,662.18,2.31s631.42-.38,661.61-1.92c84.6-3.98,133.72-10.58,188.04-24.62,149.78-38.65,273.79-140.2,341.28-279.43,33.94-70,51.14-138.08,58.93-236.87,1.69-21.54,2.4-364.95,2.4-707.9s-.77-685.79-2.46-707.33c-7.88-100.39-25.09-167.89-60.12-239.24-28.74-58.41-60.66-102.02-107-146.62-82.7-79-183.83-127.08-304.35-144.47C1967.68,3.09,1956.04.59,1657.25.07h-406.85Z" fill="url(#uuid-5966a715-262f-4df0-8944-7f2e21b2dab8)"/><path d="M1250.41.07C728.54.07,575.92.61,546.25,3.07c-107.1,8.9-173.74,25.77-246.34,61.92-55.95,27.79-100.08,60-143.63,105.16C76.97,252.5,28.91,353.81,11.51,474.24,3.05,532.7.59,544.63.09,843.25c-.19,99.54,0,230.54,0,406.26,0,521.55.58,674.06,3.08,703.67,8.65,104.23,25,169.81,59.6,241.54,66.14,137.31,192.46,240.39,341.28,278.85,51.53,13.27,108.44,20.58,181.5,24.04,30.96,1.35,346.47,2.31,662.18,2.31s631.42-.38,661.61-1.92c84.6-3.98,133.72-10.58,188.04-24.62,149.78-38.65,273.79-140.2,341.28-279.43,33.94-70,51.14-138.08,58.93-236.87,1.69-21.54,2.4-364.95,2.4-707.9s-.77-685.79-2.46-707.33c-7.88-100.39-25.09-167.89-60.12-239.24-28.74-58.41-60.66-102.02-107-146.62-82.7-79-183.83-127.08-304.35-144.47C1967.68,3.09,1956.04.59,1657.25.07h-406.85Z" fill="url(#uuid-2b269254-bc51-47da-af5a-3292a950e36b)"/></g></svg>