<svg id="visual" viewBox="0 0 540 960" width="540" height="960" xmlns="http://www.w3.org/2000/svg" xmlns:xlink="http://www.w3.org/1999/xlink" version="1.1"><rect x="0" y="0" width="540" height="960" fill="#121010"></rect><defs><linearGradient id="grad1_0" x1="0%" y1="0%" x2="100%" y2="100%"><stop offset="30%" stop-color="#121010" stop-opacity="1"></stop><stop offset="70%" stop-color="#121010" stop-opacity="1"></stop></linearGradient></defs><defs><linearGradient id="grad2_0" x1="0%" y1="0%" x2="100%" y2="100%"><stop offset="30%" stop-color="#121010" stop-opacity="1"></stop><stop offset="70%" stop-color="#121010" stop-opacity="1"></stop></linearGradient></defs><g transform="translate(540, 0)"><path d="M0 216C-14 207.2 -28 198.5 -44.9 196.9C-61.9 195.4 -81.8 201.1 -92 191C-102.2 180.9 -102.7 154.9 -115.3 144.6C-128 134.3 -152.8 139.7 -166.5 132.8C-180.3 126 -182.9 106.9 -189.2 91.1C-195.5 75.3 -205.5 62.7 -210.6 48.1C-215.7 33.4 -215.8 16.7 -216 0L0 0Z" fill="#b01a05"></path></g><g transform="translate(0, 960)"><path d="M0 -216C12.7 -202.2 25.3 -188.5 43.2 -189.1C61 -189.8 84 -204.9 93.7 -194.6C103.4 -184.3 99.9 -148.7 103.5 -129.8C107.1 -110.9 117.8 -108.7 128.2 -102.3C138.7 -95.8 148.8 -84.9 152.3 -73.3C155.7 -61.7 152.3 -49.3 161.8 -36.9C171.3 -24.6 193.7 -12.3 216 0L0 0Z" fill="#b01a05"></path></g></svg>