<svg id="visual" viewBox="0 0 540 960" width="540" height="960" xmlns="http://www.w3.org/2000/svg" xmlns:xlink="http://www.w3.org/1999/xlink" version="1.1"><rect x="0" y="0" width="540" height="960" fill="#121010"></rect><defs><linearGradient id="grad1_0" x1="0%" y1="0%" x2="100%" y2="100%"><stop offset="30%" stop-color="#121010" stop-opacity="1"></stop><stop offset="70%" stop-color="#121010" stop-opacity="1"></stop></linearGradient></defs><defs><linearGradient id="grad2_0" x1="0%" y1="0%" x2="100%" y2="100%"><stop offset="30%" stop-color="#121010" stop-opacity="1"></stop><stop offset="70%" stop-color="#121010" stop-opacity="1"></stop></linearGradient></defs><g transform="translate(540, 0)"><path d="M0 189C-13.6 180.8 -27.2 172.6 -37.2 162.8C-47.2 153 -53.6 141.6 -68.1 141.5C-82.6 141.4 -105.2 152.6 -117.8 147.8C-130.5 142.9 -133.1 122 -130.6 104.1C-128 86.2 -120.2 71.2 -128.8 62C-137.5 52.9 -162.7 49.4 -175.5 40.1C-188.3 30.7 -188.6 15.3 -189 0L0 0Z" fill="#b01a05"></path></g><g transform="translate(0, 960)"><path d="M0 -189C13.3 -178 26.6 -166.9 35.4 -155C44.1 -143.1 48.3 -130.3 63.8 -132.4C79.3 -134.5 106.1 -151.5 117.8 -147.8C129.5 -144 126.1 -119.5 130.6 -104.1C135.1 -88.8 147.5 -82.6 149.6 -72C151.6 -61.5 143.3 -46.6 148.2 -33.8C153 -21.1 171 -10.5 189 0L0 0Z" fill="#b01a05"></path></g></svg>