<svg id="visual" viewBox="0 0 540 960" width="540" height="960" xmlns="http://www.w3.org/2000/svg" xmlns:xlink="http://www.w3.org/1999/xlink" version="1.1"><rect x="0" y="0" width="540" height="960" fill="#121010"></rect><defs><linearGradient id="grad1_0" x1="0%" y1="0%" x2="100%" y2="100%"><stop offset="30%" stop-color="#121010" stop-opacity="1"></stop><stop offset="70%" stop-color="#121010" stop-opacity="1"></stop></linearGradient></defs><defs><linearGradient id="grad2_0" x1="0%" y1="0%" x2="100%" y2="100%"><stop offset="30%" stop-color="#121010" stop-opacity="1"></stop><stop offset="70%" stop-color="#121010" stop-opacity="1"></stop></linearGradient></defs><g transform="translate(540, 0)"><path d="M0 297C-32.8 296.6 -65.6 296.2 -91.8 282.5C-118 268.7 -137.6 241.7 -160.5 220.9C-183.3 200.1 -209.3 185.5 -224.9 163.4C-240.5 141.3 -245.6 111.6 -255.8 83.1C-266.1 54.6 -281.6 27.3 -297 0L0 0Z" fill="#b01a05"></path></g><g transform="translate(0, 960)"><path d="M0 -297C18.5 -256.4 37 -215.8 69.2 -213C101.5 -210.2 147.4 -245.3 174.6 -240.3C201.7 -235.3 210 -190.3 216 -156.9C222 -123.6 225.6 -101.8 238.7 -77.6C251.8 -53.3 274.4 -26.7 297 0L0 0Z" fill="#b01a05"></path></g></svg>