<svg xmlns="http://www.w3.org/2000/svg" width="24" height="24" viewBox="0 0 24 24" fill="none">
                                <path d="M13 12L19.5 5.50004C19.78 5.22004 19.78 4.77004 19.5 4.50004C19.22 4.23004 18.77 4.22004 18.5 4.50004L12 11L5.49998 4.50004C5.21998 4.22004 4.76998 4.22004 4.49998 4.50004C4.22998 4.78004 4.21998 5.23004 4.49998 5.50004L11 12L4.49998 18.5C4.21998 18.78 4.21998 19.23 4.49998 19.5C4.63998 19.64 4.81998 19.71 4.99998 19.71C5.17998 19.71 5.35998 19.64 5.49998 19.5L12 13L18.5 19.5C18.64 19.64 18.82 19.71 19 19.71C19.18 19.71 19.36 19.64 19.5 19.5C19.78 19.22 19.78 18.77 19.5 18.5L13 12Z" fill="#001333"/>
                            </svg>