<svg width="25" height="24" viewBox="0 0 25 24" fill="none" xmlns="http://www.w3.org/2000/svg">
    <path d="M12.1001 11.71C9.50014 11.71 7.39014 9.60004 7.39014 7.00004C7.39014 4.40004 9.50014 2.29004 12.1001 2.29004C14.7001 2.29004 16.8101 4.40004 16.8101 7.00004C16.8101 9.60004 14.7001 11.71 12.1001 11.71ZM12.1001 3.71004C10.2901 3.71004 8.81014 5.19004 8.81014 7.00004C8.81014 8.81004 10.2901 10.29 12.1001 10.29C13.9101 10.29 15.3901 8.81004 15.3901 7.00004C15.3901 5.19004 13.9101 3.71004 12.1001 3.71004Z" fill="currentColor"/>
    <path d="M17.1001 21.71H7.10014C5.61014 21.71 4.39014 20.49 4.39014 19V18C4.39014 15.4 6.50014 13.29 9.10014 13.29H15.1001C17.7001 13.29 19.8101 15.4 19.8101 18V19C19.8101 20.49 18.5901 21.71 17.1001 21.71ZM9.10014 14.71C7.29014 14.71 5.81014 16.19 5.81014 18V19C5.81014 19.71 6.39014 20.29 7.10014 20.29H17.1001C17.8101 20.29 18.3901 19.71 18.3901 19V18C18.3901 16.19 16.9101 14.71 15.1001 14.71H9.10014Z" fill="currentColor"/>
    </svg>