<svg width="22" height="24" viewBox="0 0 22 24" fill="none" xmlns="http://www.w3.org/2000/svg">
                    <g clip-path="url(#clip0_22240_6065)">
                        <path fill-rule="evenodd" clip-rule="evenodd" d="M15.1514 0C15.5352 3.29997 17.4982 5.62835 20.6739 5.83369V8.96367L20.6533 8.96561V6.30682C17.4777 6.10161 15.6519 4.1336 15.2682 0.833632L11.9041 0.83356V14.7168C12.3895 20.9658 7.55529 21.1514 5.70612 18.7821C7.87512 20.1485 11.3969 19.2604 10.9793 13.8832V0H15.1515H15.1514ZM6.11265 23.0148C4.2118 22.6209 2.48336 21.477 1.46835 19.8044C-0.997599 15.7409 1.22523 9.11811 8.37744 8.43654V12.3495L8.36572 12.3514V9.41569C1.73484 10.4794 1.0691 17.6537 2.90548 20.638C3.61361 21.7888 4.77617 22.5983 6.11258 23.0148H6.11265Z" fill="#26F4EE"/>
                        <path fill-rule="evenodd" clip-rule="evenodd" d="M16.1147 0.834266C16.3653 2.98855 17.2305 4.82213 18.6844 5.89301C16.717 5.12965 15.5641 3.37771 15.2681 0.83405L16.1147 0.834266ZM20.6532 6.77172C20.9239 6.8296 21.2061 6.86877 21.4999 6.88771V10.5979C19.6577 10.7806 18.0457 10.1698 16.1671 9.03198L16.4555 15.3862C16.4555 17.4353 16.4631 18.3719 15.3713 20.2569C12.9223 24.4859 8.51399 24.8201 5.533 22.8058C9.431 24.426 15.3319 22.4595 15.3204 15.3862V8.451C17.199 9.58884 18.811 10.1996 20.6532 10.0169V6.77172ZM8.36566 9.45355C8.75097 9.37276 9.15543 9.31063 9.58076 9.27009V13.183C8.03197 13.44 7.04826 13.919 6.58826 14.8051C5.13947 17.5954 7.0048 19.8085 9.09145 20.1411C6.66589 20.5471 3.8215 18.0711 5.51727 14.8051C5.9772 13.9191 6.81687 13.44 8.36566 13.183V9.45355Z" fill="#FB2C53"/>
                        <path fill-rule="evenodd" clip-rule="evenodd" d="M15.2681 0.83369C15.6519 4.13366 17.4777 6.1016 20.6533 6.30687V10.017C18.8111 10.1998 17.199 9.58891 15.3205 8.45108V15.3862C15.3352 24.438 5.66752 25.1268 2.90548 20.638C1.06917 17.6536 1.73484 10.4794 8.36572 9.41568V13.183C6.81692 13.44 5.97726 13.9191 5.51733 14.8051C2.67494 20.2797 12.589 23.5369 11.9039 14.7169V0.833618L15.268 0.83369H15.2681Z" fill="#001333"/>
                    </g>
                    <defs>
                        <clipPath id="clip0_22240_6065">
                            <rect width="21" height="24" fill="white" transform="translate(0.5)"/>
                        </clipPath>
                    </defs>
                </svg>