<svg xmlns="http://www.w3.org/2000/svg" class="MuiSvgIcon-root MuiSvgIcon-fontSizeMedium css-e0hjbm" focusable="false" aria-hidden="true" viewBox="0 0 24 24" data-testid="KmxFilterStrokedIcon"><path d="M5.29004 12C5.29004 11.6079 5.60792 11.29 6.00004 11.29H18C18.3922 11.29 18.71 11.6079 18.71 12C18.71 12.3921 18.3922 12.71 18 12.71H6.00004C5.60792 12.71 5.29004 12.3921 5.29004 12Z" fill="currentColor" fill-rule="evenodd" clip-rule="evenodd"/><path d="M8.29004 17C8.29004 16.6079 8.60792 16.29 9.00004 16.29H15C15.3922 16.29 15.71 16.6079 15.71 17C15.71 17.3921 15.3922 17.71 15 17.71H9.00004C8.60792 17.71 8.29004 17.3921 8.29004 17Z" fill="currentColor" fill-rule="evenodd" clip-rule="evenodd"/><path d="M2.29004 6.99998C2.29004 6.60786 2.60792 6.28998 3.00004 6.28998H21C21.3922 6.28998 21.71 6.60786 21.71 6.99998C21.71 7.3921 21.3922 7.70998 21 7.70998H3.00004C2.60792 7.70998 2.29004 7.3921 2.29004 6.99998Z" fill="currentColor" fill-rule="evenodd" clip-rule="evenodd"/></svg>