<svg width="20" height="4" viewBox="0 0 20 4" fill="none" xmlns="http://www.w3.org/2000/svg">
    <path fill-rule="evenodd" clip-rule="evenodd" d="M2.2998 3.5C3.12823 3.5 3.7998 2.82843 3.7998 2C3.7998 1.17157 3.12823 0.5 2.2998 0.5C1.47138 0.5 0.799805 1.17157 0.799805 2C0.799805 2.82843 1.47138 3.5 2.2998 3.5ZM10.2998 3.5C11.1282 3.5 11.7998 2.82843 11.7998 2C11.7998 1.17157 11.1282 0.5 10.2998 0.5C9.47138 0.5 8.7998 1.17157 8.7998 2C8.7998 2.82843 9.47138 3.5 10.2998 3.5ZM19.7998 2C19.7998 2.82843 19.1282 3.5 18.2998 3.5C17.4714 3.5 16.7998 2.82843 16.7998 2C16.7998 1.17157 17.4714 0.5 18.2998 0.5C19.1282 0.5 19.7998 1.17157 19.7998 2Z" fill="currentColor"/>
    </svg>