<svg width="160" height="71" viewBox="0 0 160 71" fill="none" xmlns="http://www.w3.org/2000/svg">
<path d="M31.8489 57.7208L20.706 55.536L18.4482 52.4043V47.7432L21.5071 44.9028C20.4875 42.281 20.1233 39.4406 20.4146 36.6003C20.7788 35.6535 23.4735 34.124 23.4735 34.124L28.5716 26.1856L27.0421 23.0539C37.4568 21.743 47.9442 21.1604 58.3589 21.306C77.9501 21.306 85.8885 23.2724 87.4179 23.8551C88.9473 24.4377 103.805 34.124 104.824 34.8523C107.155 35.9448 109.704 36.5274 112.326 36.6731C115.093 36.6731 134.175 38.2753 136.796 41.3342C138.253 43.0821 139.564 45.0485 140.729 47.0149C140.729 47.0149 142.04 54.4435 138.399 57.3567C134.903 58.8133 131.116 59.6872 127.329 59.9786" fill="white"/>
<ellipse cx="79.9169" cy="67.6985" rx="52.9472" ry="2.6947" fill="#B3B8C2" fill-opacity="0.16"/>
<ellipse cx="42.0448" cy="56.337" rx="10.1962" ry="10.1961" fill="#F2F3F5"/>
<ellipse cx="117.861" cy="56.337" rx="10.1961" ry="10.1961" fill="#F2F3F5"/>
<ellipse cx="117.861" cy="56.3371" rx="5.82637" ry="5.82637" fill="white"/>
<path d="M111.961 56.3372C111.961 55.5361 112.107 54.8078 112.398 54.0795C113.637 51.0935 117.059 49.7097 120.046 50.9478C123.032 52.1859 124.415 55.6089 123.177 58.5949C121.939 61.5809 118.516 62.9647 115.53 61.7266C114.292 61.2168 113.272 60.3428 112.69 59.1776" fill="white"/>
<ellipse cx="42.0451" cy="56.3371" rx="5.82637" ry="5.82637" fill="white"/>
<path d="M41.7535 33.9056C39.7143 33.9056 29.9551 32.012 30.5377 30.9924C31.7758 29.3902 33.0868 27.7879 34.4705 26.3313C39.8599 25.8943 47.7255 25.3845 57.4847 25.3845C77.0031 25.3845 85.0143 27.2781 86.4709 27.9336C87.9275 28.589 97.6138 34.8524 101.984 37.6199L41.7535 33.9056Z" fill="#F2F3F5"/>
<path fill-rule="evenodd" clip-rule="evenodd" d="M141.895 46.7963C141.895 46.6507 141.822 46.505 141.749 46.4322C140.584 44.393 139.2 42.4265 137.671 40.533C134.466 36.8187 113.928 35.4349 112.326 35.4349C109.85 35.2892 107.446 34.7066 105.407 33.8327C104.752 33.3957 89.5302 23.418 87.7823 22.7625C87.6366 22.6897 85.5974 21.9614 80.208 21.2331C77.0035 19.7037 73.5805 18.6113 69.939 18.1014H68.3368C62.2919 18.0286 43.866 17.883 41.4626 18.1743C39.4234 18.7569 37.6027 19.7765 35.9276 21.0146C32.9416 21.306 29.9556 21.5973 26.9695 21.9614C26.6054 22.0342 26.2413 22.2527 26.0956 22.5441C25.9499 22.9082 25.8771 23.2724 26.0956 23.6365L27.3337 26.1855L22.5998 33.25C21.5802 33.8327 19.7594 35.0708 19.3224 36.1632C19.2496 36.236 19.2496 36.3817 19.2496 36.4545C18.9583 39.222 19.3224 41.9896 20.1964 44.6114L17.6474 46.942C17.4289 47.1605 17.2832 47.4518 17.2832 47.7431V52.4042C17.2832 52.6227 17.356 52.914 17.5017 53.0597L19.7594 56.1914C19.9051 56.4098 20.1964 56.6283 20.4877 56.6283L30.9023 58.7404C31.9948 63.8385 36.5831 67.6984 42.0453 67.6984C48.3086 67.6984 53.4067 62.6004 53.4067 56.337C53.4067 56.2278 53.3885 56.1185 53.3703 56.0093C53.3521 55.9 53.3339 55.7908 53.3339 55.6815H106.5C106.5 55.7908 106.481 55.9 106.463 56.0093C106.445 56.1185 106.427 56.2278 106.427 56.337C106.427 57.0653 106.5 57.7208 106.645 58.3762H57.8493C57.1939 58.3762 56.684 58.8861 56.684 59.5415C56.684 60.197 57.1939 60.7068 57.8493 60.7068H107.373C109.121 64.7853 113.127 67.6984 117.861 67.6984C122.449 67.6984 126.455 64.9309 128.203 60.9253C131.844 60.5611 135.413 59.76 138.836 58.3762C138.872 58.3398 138.927 58.3216 138.982 58.3034C139.036 58.2852 139.091 58.267 139.127 58.2306C143.278 54.8804 141.968 47.0876 141.895 46.7963ZM138.181 45.2669C136.942 45.1212 135.704 44.9756 134.466 44.6843L132.5 43.3733L131.407 40.3145C133.665 40.8243 135.413 41.4797 135.923 42.1352C136.598 42.8101 137.142 43.6587 137.691 44.5133L137.691 44.5135C137.853 44.7655 138.015 45.0181 138.181 45.2669ZM76.1292 20.7962C74.0171 20.1408 71.9779 19.5581 69.793 19.2668C69.793 19.2668 69.2104 19.2668 68.3364 19.194C65.0041 19.194 62.0038 19.1719 59.3111 19.152C57.1191 19.1358 55.131 19.1212 53.3335 19.1212L53.0422 20.1408H58.4316C66.0059 20.1408 71.7594 20.4321 76.1292 20.7962ZM41.681 19.2668C42.555 19.194 46.1236 19.1212 52.1685 19.1212L51.8044 20.1408C47.2161 20.2136 42.7007 20.4321 38.1852 20.7962C39.2777 20.1408 40.4429 19.631 41.681 19.2668ZM24.6386 38.5666H21.5798C21.5798 39.3677 21.5798 40.2417 21.7254 41.0428H23.8375L24.6386 38.5666ZM42.0449 65.3679C37.0197 65.3679 33.0141 61.2894 33.0141 56.337C33.0141 51.3118 37.0925 47.3061 42.0449 47.3061C46.9974 47.3061 51.0758 51.3846 51.0758 56.337C51.0758 61.3623 47.0702 65.3679 42.0449 65.3679ZM108.83 56.337C108.83 61.2894 112.908 65.3679 117.861 65.3679C122.886 65.3679 126.892 61.3623 126.892 56.337C126.892 51.3846 122.886 47.3061 117.861 47.3061C112.908 47.3061 108.83 51.3118 108.83 56.337ZM137.816 56.3371C134.975 57.5023 132.062 58.1578 129.003 58.5219C129.149 57.7937 129.222 57.0654 129.222 56.3371C129.222 50.0737 124.124 44.9756 117.86 44.9756C112.253 44.9756 107.591 49.1269 106.645 54.5163H53.2606C52.3866 49.1269 47.7255 44.9756 42.0448 44.9756C37.0196 44.9756 32.7954 48.253 31.266 52.7684L23.2548 51.1662C22.9634 51.0933 22.5993 51.3118 22.5993 51.6031C22.5265 51.8945 22.745 52.2586 23.0363 52.2586L30.9019 53.788C30.7562 54.5891 30.6106 55.3903 30.6106 56.1914L21.3612 54.5163L19.6133 52.0401V48.253L22.308 45.7768C22.6721 45.4854 22.745 44.9756 22.5993 44.5387C22.308 43.8104 22.1623 43.0092 22.0167 42.2081H24.2744C24.4929 42.2081 24.7842 42.0625 24.857 41.7711L25.8038 38.9308L30.829 35.5078C30.9467 35.449 31.0168 35.2952 31.0778 35.1615C31.0923 35.1296 31.1063 35.0989 31.1204 35.0708C31.1204 34.9251 31.0475 34.7067 30.9019 34.561C30.3192 34.0512 29.6638 33.687 28.717 33.4686H25.294L29.6638 26.7682C29.8823 26.4041 29.8823 25.9671 29.7366 25.6029L28.9355 23.9279C38.549 22.8354 48.5266 22.3256 58.3587 22.4713C62.5099 22.4713 66.0786 22.5441 69.1374 22.6898C69.2103 22.9811 69.2467 23.2906 69.2831 23.6001C69.3195 23.9097 69.3559 24.2192 69.4288 24.5105C66.0058 24.3648 62.0001 24.2192 57.4847 24.2192C49.3278 24.2192 41.535 24.5105 34.3249 25.166C34.0335 25.166 33.7422 25.3116 33.5966 25.5301C32.2128 27.0595 30.829 28.6618 29.4453 30.4097C29.2268 30.7739 29.2996 31.4293 29.4453 31.7935C30.5377 33.6142 40.2241 35.0708 41.6078 35.0708L71.3952 36.8915C71.9778 41.9896 72.4148 47.0149 72.7061 52.1129C72.7061 52.4043 72.9974 52.6956 73.2887 52.6956C73.58 52.6956 73.8714 52.4043 73.8714 52.1129C73.58 47.0877 73.1431 42.0625 72.5604 37.0372L86.1067 37.9112V38.1296C86.1067 38.7851 86.6166 39.2949 87.272 39.2949H90.9135C91.6418 39.2221 92.2244 38.7851 92.5886 38.2753L101.984 38.8579L104.314 40.3874C104.533 40.533 104.751 40.6059 104.97 40.6059C105.334 40.6059 105.698 40.3874 105.916 40.096C106.281 39.5862 106.135 38.8579 105.552 38.4938L102.639 36.6002C102.493 36.5274 102.348 36.5274 102.202 36.5274L101.911 36.3089C95.4289 32.0848 88.3645 27.5694 86.9807 26.9867C85.4513 26.3312 80.3532 25.2388 70.6669 24.6562C70.6304 24.3648 70.5758 24.0553 70.5212 23.7458C70.4666 23.4363 70.412 23.1267 70.3755 22.8354C82.9022 23.4909 86.9807 25.0203 86.9807 25.0203C88.2916 25.5301 102.493 34.7067 104.314 35.9448C106.863 37.11 109.485 37.7655 112.325 37.8383C114.365 37.8383 119.827 38.3481 124.998 39.0764C124.998 39.1493 125.071 39.2221 125.071 39.2221C127.838 41.5526 130.824 43.6647 133.883 45.6311C133.919 45.6311 133.938 45.6493 133.956 45.6675C133.974 45.6857 133.992 45.7039 134.029 45.7039C135.631 46.1409 137.306 46.3594 138.981 46.4322L139.637 47.3062C139.928 49.3454 140.146 54.2978 137.816 56.3371ZM90.5499 34.1241C91.7152 34.1241 92.6619 34.9252 92.9533 35.9449L97.6144 36.2362C93.1718 33.323 87.0541 29.463 86.0344 29.026C84.942 28.5162 80.3537 27.4966 71.1044 26.914C71.4929 29.1802 71.8238 31.504 72.1484 33.7831L72.1484 33.7833L72.1484 33.7836L72.2696 34.6339L86.1073 35.5079V35.2894C86.1073 34.6339 86.6171 34.1241 87.2726 34.1241H90.5499ZM71.0309 34.561L46.9971 33.1044L49.4733 26.7682L49.6753 26.7628C52.2992 26.6918 54.8591 26.6226 57.5574 26.6226C62.3641 26.6226 66.4426 26.7682 69.8656 26.9139C70.019 27.9568 70.1853 29.0126 70.3536 30.0814L70.3537 30.0821L70.3538 30.0826C70.585 31.551 70.8202 33.0438 71.0309 34.561ZM41.7536 32.7402H41.8265L45.8321 32.9587L48.2355 26.6953C43.6472 26.841 39.2774 27.0595 35.0533 27.4236C34.0337 28.5161 33.0869 29.6085 32.1401 30.7738C34.325 31.5749 40.0786 32.7402 41.7536 32.7402Z" fill="#001333"/>
<path d="M120.337 50.438C118.735 49.7825 116.987 49.7825 115.457 50.438C113.855 51.0935 112.617 52.3316 111.961 53.861C111.597 54.6621 111.452 55.4633 111.452 56.41C111.452 56.7014 111.743 56.9927 112.034 56.9927C112.326 56.9927 112.617 56.7014 112.617 56.41C112.617 55.6817 112.763 55.0263 113.054 54.3708C113.637 53.0599 114.583 52.0403 115.894 51.5305C117.205 51.0206 118.589 51.0206 119.9 51.5305C121.211 52.1131 122.158 53.0599 122.74 54.3708C123.25 55.6817 123.25 57.0655 122.74 58.3764C121.648 61.0711 118.516 62.3092 115.894 61.144C114.802 60.707 113.928 59.9059 113.345 58.8134C113.2 58.5221 112.835 58.4493 112.544 58.5949C112.253 58.7406 112.18 59.1047 112.326 59.3961C112.981 60.6342 114.146 61.6538 115.457 62.2364C116.258 62.6006 117.06 62.7462 117.933 62.7462C120.41 62.7462 122.813 61.2896 123.833 58.8134C124.488 57.2112 124.488 55.4633 123.833 53.9338C123.104 52.3316 121.866 51.0935 120.337 50.438Z" fill="#001333"/>
<path d="M36.1457 55.8273C36.2185 55.8273 36.2185 55.8273 36.2913 55.8273C36.5827 55.8273 36.8012 55.6088 36.874 55.3903C37.0925 54.2979 37.6751 53.3511 38.4762 52.6228C38.6947 52.4043 38.7676 52.0402 38.5491 51.8217C38.3306 51.6032 37.9664 51.5304 37.7479 51.7489C36.7283 52.6228 36 53.8609 35.7087 55.1719C35.5631 55.4632 35.7815 55.7545 36.1457 55.8273Z" fill="#001333"/>
<path d="M42.0451 50.001C41.3897 49.9282 40.807 49.9282 40.1515 50.001C39.8602 50.0739 39.5689 50.3652 39.6417 50.6565C39.7146 50.9478 40.0059 51.2391 40.2972 51.1663C40.807 51.0935 41.3897 51.0935 41.9723 51.1663C44.8855 51.1663 47.216 53.5697 47.216 56.41C47.216 57.7938 46.6334 59.1047 45.6866 60.1244C44.667 61.144 43.3561 61.6538 41.9723 61.6538C39.4961 61.6538 37.3112 59.833 36.8014 57.4297C36.7286 57.1383 36.4372 56.9199 36.1459 56.9927C35.8546 57.0655 35.6361 57.3568 35.7089 57.6481C36.2916 60.6342 38.9134 62.8191 41.9723 62.8191C43.6474 62.8191 45.2496 62.1636 46.4877 60.9255C47.7258 59.6874 48.3813 58.0851 48.3813 56.41C48.3813 52.9142 45.4681 50.0739 42.0451 50.001Z" fill="#001333"/>
<path d="M53.8434 38.1296H49.1095C48.8182 38.1296 48.5269 38.421 48.5269 38.7123C48.5269 39.0036 48.8182 39.2949 49.1095 39.2949H53.8434C54.1347 39.2949 54.4261 39.0036 54.4261 38.7123C54.4261 38.421 54.1347 38.1296 53.8434 38.1296Z" fill="#001333"/>
<path d="M81.0094 39.5134H76.2755C75.9842 39.5134 75.6929 39.8047 75.6929 40.0961C75.6929 40.3874 75.9842 40.6787 76.2755 40.6787H81.0094C81.3008 40.6787 81.5921 40.3874 81.5921 40.0961C81.5921 39.8047 81.3008 39.5134 81.0094 39.5134Z" fill="#001333"/>
</svg>
