<svg xmlns="http://www.w3.org/2000/svg" width="24" height="24" viewBox="0 0 24 24" fill="none">
                            <path d="M20.5 19.5001L16.78 15.7801C17.98 14.3501 18.71 12.5201 18.71 10.5101C18.71 5.99006 15.03 2.31006 10.51 2.31006C5.99 2.31006 2.31 5.99006 2.31 10.5101C2.31 15.0301 5.99 18.7101 10.51 18.7101C12.52 18.7101 14.35 17.9801 15.78 16.7801L19.5 20.5001C19.64 20.6401 19.82 20.7101 20 20.7101C20.18 20.7101 20.36 20.6401 20.5 20.5001C20.78 20.2201 20.78 19.7701 20.5 19.5001ZM3.73 10.5101C3.73 6.77006 6.77 3.73006 10.51 3.73006C14.25 3.73006 17.29 6.77006 17.29 10.5101C17.29 14.2501 14.25 17.2901 10.51 17.2901C6.77 17.2901 3.73 14.2501 3.73 10.5101Z" fill="#001333"/>
                        </svg>