<svg width="160" height="70" viewBox="0 0 160 70" fill="none" xmlns="http://www.w3.org/2000/svg">
<path d="M32.771 55.481C28.9441 54.8333 25.1172 53.8618 21.4201 52.6959C21.0958 52.0483 20.8363 51.3358 20.7715 50.5586C20.9661 49.1984 21.2904 47.8383 21.6147 46.5429C21.8093 45.3771 22.0039 44.2112 22.2633 43.0454L23.4308 41.8148C23.6254 38.9649 24.9875 36.3094 27.1928 34.5607L26.9982 33.0062H28.6847C28.6847 33.0062 56.5105 24.5215 74.2827 24.5215C79.1473 24.2624 84.012 24.7806 88.7469 26.0112C91.7305 27.1122 108.335 35.9208 108.335 35.9208C108.335 35.9208 130.259 36.698 137.783 44.0817L137.393 47.0611L138.756 48.2917V54.639C138.756 55.0924 138.756 56.3878 134.539 57.2298H126.951" fill="white"/>
<ellipse cx="79.7637" cy="67.062" rx="51.709" ry="2.54904" fill="#B3B8C2" fill-opacity="0.16"/>
<circle cx="42.2563" cy="56.1373" r="9.832" fill="#DEDFE0"/>
<circle cx="42.2562" cy="56.1375" r="5.46222" fill="white"/>
<circle cx="116.542" cy="56.1373" r="9.832" fill="#DEDFE0"/>
<ellipse cx="117.27" cy="56.1375" rx="5.46222" ry="5.46222" fill="white"/>
<path d="M45.5332 33.5364L47.4753 32.1862C58.416 29.4216 69.8097 28.3285 81.0741 29.0358C89.2957 30.3217 97.0642 33.4721 103.797 38.2943C103.797 38.2943 59.1281 35.401 57.3154 35.401C55.5028 35.401 45.5332 33.5364 45.5332 33.5364Z" fill="#DEDFE0"/>
<path fill-rule="evenodd" clip-rule="evenodd" d="M139.145 47.0393L138.177 46.2042L138.5 43.8272C138.564 43.5059 138.435 43.1205 138.177 42.8635C130.891 35.7325 111.094 34.6404 108.45 34.5119C106.387 33.4197 91.878 25.7748 88.9118 24.7469C84.2045 23.5263 79.2392 23.0123 74.3384 23.2693C70.4049 23.2693 66.0845 23.6547 61.6351 24.2972C60.2164 23.5263 58.6688 23.0123 57.0567 23.0123C56.6698 22.9481 56.3474 23.1408 56.154 23.462C55.9605 23.719 55.896 24.1044 55.9605 24.4257L56.154 25.1323C42.9992 27.4451 30.5538 31.107 28.8128 31.6209H27.3296C27.0072 31.6209 26.6848 31.7494 26.4914 32.0064C26.2979 32.2634 26.1689 32.5846 26.2334 32.9058L26.3624 33.8694C24.2989 35.7325 23.0092 38.3022 22.7513 41.0647L21.8485 42.0283C21.7196 42.1568 21.6551 42.3496 21.5906 42.5423C21.2682 43.6987 21.0747 44.9193 20.9457 46.0114C20.5897 47.2529 20.3429 48.5489 20.1047 49.7991L20.1047 49.7991L20.043 50.123V50.4442C20.1719 51.2794 20.4299 52.1145 20.8168 52.8855C20.9457 53.1424 21.2037 53.3352 21.4616 53.4637C24.8793 54.5558 28.4259 55.391 31.908 56.0334C32.037 61.9438 36.8733 66.6978 42.8703 66.6978C48.8673 66.6978 53.7681 61.8153 53.7681 55.8407C53.7681 54.9412 53.6391 54.0418 53.3811 53.2067H102.905C103.163 53.2067 103.356 53.014 103.421 52.8212C104.323 49.866 105.033 46.8466 105.549 43.8272C105.807 42.0283 105.484 40.2295 104.775 38.5592L104.904 38.4307C105.097 37.981 104.904 37.4671 104.517 37.1458C97.6816 32.2634 89.6856 28.9869 81.3027 27.7021C75.9505 27.3809 70.6628 27.4451 65.3752 27.8948V26.096C68.5349 25.7105 71.6301 25.5178 74.4674 25.5178C79.1747 25.3251 83.882 25.7748 88.3959 26.9312C91.2332 27.959 107.612 36.5677 107.741 36.6961C107.87 36.7604 108.063 36.8246 108.257 36.8246C108.45 36.8246 123.733 37.4671 132.696 41.8356C130.439 41.3217 128.182 41.0004 125.861 40.872C125.603 40.872 125.41 41.0004 125.345 41.2574C125.281 41.5144 125.345 41.7714 125.539 41.8999C125.603 41.8999 129.214 44.4053 129.988 44.9835C130.609 45.4332 133.5 46.2764 135.38 46.8245C135.648 46.9028 135.896 46.9751 136.114 47.0393C136.178 47.2321 136.243 47.3605 136.436 47.5533L137.468 48.4527V52.1145H127.28C125.732 48.003 121.734 45.0478 117.091 45.0478C111.223 45.0478 106.451 49.6733 106.258 55.4552H58.6688C58.024 55.4552 57.5726 55.9691 57.5726 56.5473C57.5726 57.1898 58.0885 57.6395 58.6688 57.6395H106.193C107.032 62.7789 111.546 66.6978 116.898 66.6978C122.185 66.6978 126.635 62.9074 127.602 57.8964H134.373C137.855 57.1898 139.467 56.0334 139.467 54.2346V47.9387C139.532 47.5533 139.403 47.2963 139.145 47.0393ZM28.2324 35.2185L29.1997 36.3748L27.0073 39.9082C26.8138 39.9725 26.6204 40.0367 26.4269 40.0367L25.2017 40.4864C25.5241 38.4306 26.6204 36.5676 28.2324 35.2185ZM34.165 55.9049C34.165 60.6589 38.0985 64.5135 42.8704 64.5135C47.6422 64.5135 51.5757 60.7231 51.5757 55.9049C51.5757 51.0866 47.7067 47.232 42.8704 47.232C38.0341 47.232 34.165 51.1509 34.165 55.9049ZM81.0445 29.8863C86.4611 30.7214 91.6843 32.456 96.5851 34.9615H95.4889C94.844 34.9615 94.3927 35.4755 94.3927 36.0536V36.3106C88.0338 35.8819 79.6543 35.3473 72.4871 34.89C69.9877 34.7305 67.6358 34.5804 65.5684 34.4476C65.5469 33.955 65.5182 33.4625 65.4895 32.97L65.4895 32.9698C65.4322 31.9848 65.3749 30.9998 65.3749 30.0148C70.5981 29.6293 75.8213 29.5651 81.0445 29.8863ZM57.5079 33.9978C57.9593 33.9978 60.6031 34.1263 64.4077 34.3833L64.3985 34.1905C64.3369 32.8997 64.2726 31.5506 64.1497 30.1432C59.0555 30.6572 53.9613 31.4923 48.9315 32.713C52.5426 33.3554 56.5406 33.9978 57.5079 33.9978ZM64.2143 27.9591C58.5397 28.473 52.9941 29.4367 47.4484 30.85C47.4055 30.8714 47.3625 30.8857 47.3195 30.9C47.2335 30.9285 47.1475 30.9571 47.0615 31.0427L45.5139 32.1349L43.5149 31.7494C42.9346 31.6209 42.2897 32.0064 42.2252 32.6488C42.0963 33.227 42.4832 33.8052 43.128 33.9337L45.5784 34.3834H45.6429C45.7226 34.3834 45.8516 34.4079 46.0298 34.4419L46.0298 34.4419C46.1399 34.4628 46.2689 34.4874 46.4167 34.5119L47.255 34.7046H47.384C47.8236 34.7792 48.3203 34.8646 48.8525 34.956C51.9889 35.4952 56.3596 36.2465 57.5724 36.2465C57.9593 36.2465 60.6676 36.3749 64.6012 36.6319C64.9881 40.872 65.5684 45.0478 66.4067 49.2236C66.4712 49.4806 66.6646 49.6733 66.9226 49.6733H67.0515C67.374 49.6091 67.5674 49.2879 67.5029 49.0309C66.6646 44.9836 66.0843 40.872 65.6974 36.7604C69.1829 36.9682 73.4941 37.2445 78.0843 37.5387L78.0845 37.5387L78.0859 37.5388L78.0864 37.5388C83.4314 37.8814 89.1547 38.2482 94.3927 38.5592V38.6877C94.3927 39.3301 94.9086 39.7798 95.4889 39.7798H98.7776C99.4869 39.7798 100.132 39.4586 100.583 38.9447C101.679 39.0089 102.776 39.0732 103.743 39.1374C104.323 40.5508 104.646 42.0926 104.452 43.6344C104.001 46.4612 103.291 49.2879 102.518 52.0503H53.0585C51.5109 47.9387 47.5129 44.9193 42.8701 44.9193C37.5824 44.9193 33.133 48.7097 32.1658 53.7207C28.9416 53.1425 25.7818 52.3715 22.6866 51.4079C22.5577 51.0224 22.4287 50.637 22.3642 50.2515C22.5577 49.0309 22.8156 47.746 23.2025 46.3969C23.3315 45.369 23.5249 44.4054 23.7828 43.4417L25.2015 43.6344C25.6529 43.6344 28.8771 44.6623 31.7144 45.626H31.9078C32.1658 45.626 32.3592 45.4975 32.4237 45.2405C32.5527 44.9193 32.3592 44.6623 32.1013 44.5339C30.6826 44.0199 25.9753 42.4781 25.266 42.4781L24.5567 42.4138L24.6856 42.2853C24.8146 42.1568 24.8791 41.9641 24.9436 41.7071L26.6846 41.0647C28.2322 40.872 29.7799 40.358 31.0695 39.5229C32.4237 38.6877 33.7134 37.7241 34.9386 36.7604C35.0675 36.6319 35.132 36.5034 35.132 36.3107C35.132 36.118 35.003 35.9895 34.8741 35.861L30.9406 33.2913C31.2215 33.2166 31.5366 33.1324 31.8836 33.0397L31.8838 33.0397C37.5103 31.5366 51.5202 27.794 64.2143 26.1603V27.9591ZM135.985 45.8187L136.243 44.0842C136.171 44.0481 136.098 43.9918 136.014 43.9265C135.949 43.8756 135.876 43.8193 135.792 43.7629C134.437 43.3132 133.083 42.9278 131.729 42.6708C131.779 42.7693 131.828 42.8635 131.876 42.9557L131.876 42.9558C132.017 43.2246 132.149 43.476 132.245 43.7629C132.181 43.9557 132.116 44.3411 132.116 44.6624C133.148 45.0478 134.566 45.4333 135.985 45.8187ZM116.963 64.5135C112.449 64.5135 108.709 60.9801 108.386 56.5473V56.4831V56.4188C108.386 56.3225 108.37 56.2261 108.354 56.1297C108.338 56.0334 108.322 55.937 108.322 55.8406C108.322 51.0866 112.191 47.1678 116.963 47.1678C121.734 47.1678 125.668 51.0224 125.668 55.8406C125.668 60.6589 121.734 64.5135 116.963 64.5135ZM127.796 55.6478H134.18C136.243 55.2623 137.275 54.6199 137.211 54.1702V53.1423H127.409C127.667 53.9132 127.796 54.7484 127.796 55.6478Z" fill="#001333"/>
<path d="M44.3247 49.5566C42.7721 49.0414 41.09 49.1058 39.6021 49.8143C38.1141 50.5227 37.0143 51.7463 36.4321 53.2919C35.8499 54.8375 35.9793 56.512 36.6909 57.9932C37.4025 59.4744 38.6317 60.5693 40.1843 61.1489C40.896 61.4709 41.6723 61.5997 42.4486 61.5997C43.2249 61.5997 44.0012 61.4709 44.7129 61.1489C44.9717 61.0201 45.1657 60.6981 45.0363 60.4404C44.907 60.1828 44.5835 59.9896 44.3247 60.1184C43.1602 60.6337 41.8017 60.6337 40.5725 60.1184C39.2786 59.6676 38.3082 58.766 37.726 57.5424C37.1437 56.3188 37.079 54.9663 37.5319 53.6783C37.9848 52.3903 38.8905 51.4243 40.1196 50.8447C41.3488 50.2651 42.7074 50.2007 44.0012 50.6515C46.589 51.5531 48.0122 54.4511 47.1065 57.0272C46.8478 57.6068 46.5243 58.1864 46.1361 58.7016C45.9421 58.9592 46.0067 59.2812 46.2008 59.4744C46.4596 59.6676 46.7831 59.6676 46.9771 59.41C47.4947 58.8304 47.8829 58.122 48.1416 57.4136C49.1767 54.1291 47.4947 50.6515 44.3247 49.5566Z" fill="#001333"/>
<path d="M118.781 49.4423C115.431 48.5321 112.016 50.4825 111.096 53.7981C111.031 54.1232 111.162 54.3832 111.491 54.5133C111.819 54.6433 112.082 54.4483 112.213 54.1232C112.935 51.3926 115.759 49.8323 118.518 50.5475C121.276 51.2626 122.853 54.0582 122.13 56.7887C121.539 58.9992 119.503 60.4944 117.204 60.4944C115.628 60.5595 114.118 59.8443 113.132 58.6741C112.935 58.414 112.607 58.414 112.344 58.6091C112.082 58.8041 112.082 59.1292 112.279 59.3892C113.461 60.8195 115.234 61.5997 117.073 61.5997C117.139 61.5997 117.204 61.5997 117.27 61.5997C120.094 61.5997 122.524 59.7143 123.312 57.0488C124.035 53.7331 122.064 50.2874 118.781 49.4423Z" fill="#001333"/>
<path d="M112.522 57.8579C112.445 57.4436 112.445 57.0293 112.522 56.6149C112.599 56.2006 112.291 55.8691 111.907 55.7862C111.522 55.7034 111.215 56.0348 111.138 56.4492C111.061 56.9464 111.061 57.5265 111.138 58.0237C111.215 58.3551 111.445 58.6866 111.83 58.6866H111.907C112.368 58.6038 112.599 58.2723 112.522 57.8579Z" fill="#001333"/>
<path d="M68.7062 39.7508H73.3408C73.6719 39.7508 73.9367 39.4271 73.9367 39.0225C73.9367 38.6179 73.6719 38.2942 73.3408 38.2942H68.7062C68.3752 38.2942 68.1104 38.6179 68.1104 39.0225C68.1104 39.4271 68.4414 39.7508 68.7062 39.7508Z" fill="#001333"/>
</svg>
