<svg width="160" height="71" viewBox="0 0 160 71" fill="none" xmlns="http://www.w3.org/2000/svg">
<path d="M26.7883 56.8307L12.1938 54.0794C10.8966 53.7557 8.70739 52.7037 9.11279 43.9641C9.11279 43.9641 11.2209 42.022 11.2209 40.6464C9.84251 36.2766 10.4101 31.5022 12.8425 27.537C15.0316 24.6238 17.383 21.7916 19.9775 19.2021L18.3559 16.6935L20.0586 16.208C20.0586 16.208 45.4367 14.9132 66.5175 14.9132C87.5984 14.9132 95.3821 17.2599 97.0037 17.8264C104.058 20.7396 110.949 24.2192 117.517 28.1844C121.733 30.7739 126.517 32.5542 131.382 33.3634C134.625 33.9298 137.787 34.82 140.787 35.872C143.138 37.4904 144.922 39.8371 145.733 42.5885C146.868 43.5595 147.922 44.6924 148.814 45.9063L148.408 54.6458L149.625 56.8307C145.327 57.7209 140.949 58.2873 136.49 58.611" fill="white"/>
<ellipse cx="81.5285" cy="67.7148" rx="59.3562" ry="2.54904" fill="#B3B8C2" fill-opacity="0.16"/>
<ellipse cx="38.5596" cy="55.3335" rx="11.2886" ry="11.2886" fill="#F2F3F5"/>
<ellipse cx="38.9238" cy="54.9696" rx="6.55467" ry="6.55467" fill="white"/>
<circle cx="125.956" cy="55.3335" r="11.2886" fill="#F2F3F5"/>
<circle cx="125.591" cy="54.9696" r="6.55467" fill="white"/>
<path d="M112.242 33.1207C112.242 33.1207 24.3516 29.1707 23.1388 29.1707C21.9259 29.1707 21.1982 26.8664 21.5217 25.7143C22.8962 23.4101 24.5942 21.4351 26.6156 19.7069L31.3053 19.2954C40.6846 18.7194 54.4301 18.5548 66.882 18.5548C87.9046 18.5548 95.6667 20.9413 97.2839 21.5174C103.914 24.4799 110.221 28.1008 116.123 32.3801L112.242 33.1207Z" fill="#F2F3F5"/>
<path fill-rule="evenodd" clip-rule="evenodd" d="M150.968 57.1151C151.13 56.7928 151.13 56.3898 150.887 56.0674L149.835 54.2138L150.24 45.832C150.24 45.5903 150.159 45.3485 149.997 45.1067C149.106 43.8978 148.134 42.7695 147.001 41.8024C146.029 38.9816 144.167 36.5638 141.738 34.8713C141.698 34.831 141.657 34.8109 141.617 34.7907C141.576 34.7706 141.536 34.7504 141.495 34.7101C138.337 33.5818 135.18 32.7759 131.86 32.1311C127.083 31.3252 122.549 29.6327 118.42 27.1343C111.861 23.1853 104.898 19.7197 97.692 16.7378C95.5059 16.0124 89.2715 14.4006 75.1833 13.917C73.1591 13.2722 71.1349 12.7081 69.1108 12.3857C65.9528 11.7724 49.826 12.0342 39.6193 12.2L38.1005 12.2245C38.0195 12.1439 37.8576 12.1439 37.6956 12.1439C37.6551 12.1439 37.6147 12.1641 37.5742 12.1842C37.5337 12.2044 37.4932 12.2245 37.4527 12.2245H36.1573C33.8092 12.3051 32.1899 12.3051 31.5421 12.3051C30.3276 12.3857 29.1941 12.7887 28.1415 13.514L26.6841 14.7229C23.812 14.8396 21.7461 14.9563 20.7629 15.0118L20.7629 15.0118L20.7629 15.0118L20.7629 15.0118L20.7628 15.0118C20.3879 15.033 20.1705 15.0453 20.1258 15.0453L18.4255 15.5289C18.1017 15.6095 17.7778 15.9318 17.6159 16.2542C17.4539 16.5766 17.5349 16.9795 17.7778 17.3019L18.9113 18.9944C16.5633 21.4122 14.3772 24.0718 12.272 26.812C9.6811 30.9222 9.03337 35.9996 10.4908 40.5935C10.3288 41.1576 9.51917 42.2053 8.79047 42.9307C8.54757 43.1725 8.38564 43.4142 8.38564 43.7366C8.06177 50.7483 9.27627 54.2944 12.434 55.0197L26.5222 57.6793C27.8177 63.1597 32.7566 67.3505 38.7482 67.3505C45.6304 67.3505 51.298 61.709 51.298 54.8585C51.298 48.0081 45.6304 42.3665 38.7482 42.3665C31.866 42.3665 26.1174 47.9275 26.1174 54.8585C26.1174 55.0197 26.1174 55.1003 26.1983 55.2615L12.8388 52.6825C10.8956 52.2795 10.5717 48.2499 10.6527 44.7037C13.3246 45.4291 19.5591 46.9604 23.5264 47.6051H23.6074C23.9313 47.6051 24.1742 47.3633 24.1742 47.1215C24.2551 46.7992 24.0122 46.4768 23.6884 46.4768C20.1185 45.9361 14.5402 44.5068 11.5878 43.7504L11.2195 43.656C11.9482 42.8501 12.7578 41.6412 12.7578 40.4323C12.7578 40.2711 12.7578 40.1905 12.6769 40.1099C12.353 38.9816 12.1101 37.9339 12.0291 36.8056H19.0733C19.2352 36.8056 19.3162 36.725 19.3971 36.6444C19.4085 36.6331 19.4436 36.6045 19.4989 36.5593L19.499 36.5593L19.4991 36.5592L19.4994 36.5589L19.4996 36.5588L19.4998 36.5586L19.5001 36.5583L19.5002 36.5583C19.8419 36.2797 20.9449 35.3807 21.9881 34.0654C22.4739 33.4206 22.6358 32.8565 22.3929 32.3729C22.15 31.8894 21.5023 31.567 20.6116 31.567H15.2678C14.3772 31.567 13.6485 30.9222 13.1627 30.3581C13.4865 29.5521 13.8104 28.8268 14.2152 28.1015C16.4014 25.2001 18.7494 22.4599 21.2594 19.8809C21.6642 19.4779 21.7452 18.9138 21.4213 18.4302L20.6926 17.3019C20.7973 17.2972 20.9798 17.2885 21.2346 17.2765L21.2347 17.2765C25.3152 17.0834 47.9443 16.0124 66.8437 16.0124C72.5114 16.0124 77.1265 16.1736 80.9319 16.4154V17.9467C77.0455 17.7049 72.4304 17.5437 66.9246 17.5437C51.0551 17.5437 39.0721 17.7855 31.1373 18.269L26.4412 18.672C26.1983 18.672 25.9554 18.7526 25.7935 18.9138C23.6884 20.6869 21.8261 22.7017 20.4497 25.1195C20.4092 25.1598 20.389 25.2001 20.3687 25.2404C20.3485 25.2807 20.3282 25.321 20.2878 25.3613C19.9639 26.4896 20.2878 28.1015 21.0974 29.1492C21.6642 29.8745 22.3119 30.2775 23.0406 30.2775C23.7012 30.2775 43.332 31.1358 65.5768 32.1084L65.5793 32.1085L65.5824 32.1086C70.6015 32.3281 75.7537 32.5534 80.8509 32.7759V48.4916C80.8509 48.814 81.0938 49.0558 81.4177 49.0558C81.7416 49.0558 81.9845 48.814 81.9845 48.4916V32.7759C89.4334 33.0983 96.8014 33.4206 103.36 33.743V34.0654C103.36 34.7101 103.926 35.2743 104.574 35.2743H108.056C108.946 35.2743 109.675 34.7907 110.161 34.0654C110.485 34.0654 110.829 34.0855 111.173 34.1057C111.517 34.1258 111.861 34.146 112.185 34.146H112.266H112.509L116.395 33.4206C116.881 33.34 117.205 32.9371 117.286 32.5341C117.367 32.0505 117.205 31.567 116.8 31.3252C110.809 27.1343 104.412 23.5076 97.6111 20.5257C95.263 19.8003 90.486 18.7526 81.9845 18.1079V16.496C91.2147 17.1407 95.425 18.3496 96.7204 18.7526C103.684 21.654 110.566 25.1195 117.043 28.988C121.415 31.6476 126.273 33.5012 131.293 34.3072C134.37 34.8713 137.447 35.6773 140.443 36.725L140.685 36.9668L133.803 35.8384C133.56 35.8384 133.317 35.919 133.156 36.1608C133.075 36.4026 133.075 36.725 133.317 36.8862L136.475 39.3846C136.516 39.3846 136.536 39.4047 136.556 39.4249C136.576 39.445 136.597 39.4652 136.637 39.4652L145.139 43.1725C146.11 43.9784 147.001 44.9455 147.73 45.9932L147.325 54.2944C147.325 54.4857 147.375 54.6265 147.437 54.7967L147.457 54.8536L147.473 54.8989L147.487 54.9391L147.891 55.6645C144.653 56.3092 141.333 56.7122 138.094 56.954C138.256 56.2286 138.337 55.5033 138.337 54.7779C138.337 47.9275 132.67 42.2859 125.788 42.2859C119.634 42.2859 114.533 46.7186 113.481 52.5213H54.1319C53.0793 47.3633 49.7597 42.8501 45.0636 40.3517C44.8207 40.1905 44.4159 40.2711 44.2539 40.5935C44.092 40.9158 44.173 41.2382 44.4968 41.3994C49.031 43.7366 52.1887 48.1693 53.0793 53.1661C53.1603 53.4884 53.4032 53.6496 53.6461 53.6496H113.481C113.481 53.8511 113.46 54.0324 113.44 54.2138C113.42 54.3951 113.4 54.5764 113.4 54.7779C113.4 55.1809 113.481 55.5838 113.562 55.9867L113.562 55.9868H55.1035C54.4558 55.9868 53.889 56.551 53.889 57.1957C53.889 57.8405 54.4558 58.4046 55.1035 58.4046H113.966C115.505 63.5626 120.282 67.3505 125.949 67.3505C131.212 67.3505 135.746 64.1268 137.609 59.4524C141.819 59.2106 146.029 58.6464 150.159 57.7599C150.482 57.6793 150.806 57.4375 150.968 57.1151ZM38.6675 44.7038C44.2542 44.7038 48.8693 49.217 48.8693 54.8586C48.8693 60.4195 44.3352 65.0134 38.6675 65.0134C32.9998 65.0134 28.4657 60.5001 28.4657 54.8586C28.4657 49.2976 33.0808 44.7038 38.6675 44.7038ZM20.7739 32.7759H15.2682C14.2156 32.7759 13.325 32.2923 12.7582 31.6476C12.4343 32.5341 12.2724 33.4207 12.1914 34.3072H20.3691C20.6929 33.9848 20.9358 33.743 21.2597 33.3401C21.3281 33.2038 21.3821 33.1108 21.4216 33.0426L21.4216 33.0426C21.4756 32.9496 21.5026 32.903 21.5026 32.8565C21.5026 32.8565 21.3407 32.7759 20.7739 32.7759ZM23.2028 27.9403C22.879 27.7791 22.4741 26.7314 22.5551 26.1672C23.7696 24.233 25.227 22.4599 27.0083 21.0092L31.2995 20.6063C35.7527 20.3645 41.5013 20.1227 48.5455 20.0421L45.7926 28.9074C33.2427 28.3433 23.6886 27.9403 23.2028 27.9403ZM49.8412 19.9614L47.0883 28.9073C57.533 29.3908 69.84 29.955 80.9324 30.358V20.2838C77.046 20.042 72.5119 19.8808 66.9252 19.8808C60.6097 19.8808 54.9421 19.8808 49.8412 19.9614ZM96.8825 22.6211C102.55 25.1195 108.056 28.1015 113.238 31.567L112.185 31.7282C111.861 31.7282 111.295 31.7282 110.485 31.6476C110.08 30.761 109.189 30.1163 108.137 30.1163H104.655C104.008 30.1163 103.441 30.6804 103.441 31.3252V31.4058C102.625 31.37 101.764 31.3324 100.863 31.293C95.6854 31.0667 89.1692 30.7819 82.0656 30.4387V20.3645C90.2432 21.0092 94.7774 21.9763 96.8825 22.6211ZM67.1681 13.6752H70.0019C69.84 13.6349 69.6578 13.5947 69.4756 13.5544C69.2934 13.5141 69.1113 13.4738 68.9493 13.4335C68.7141 13.3866 68.3694 13.367 67.9472 13.343C67.6429 13.3257 67.2982 13.306 66.9252 13.2723C66.9657 13.3529 67.0061 13.4133 67.0466 13.4738C67.0871 13.5342 67.1276 13.5947 67.1681 13.6752ZM64.9814 13.1916C65.0623 13.2722 65.1635 13.3528 65.2647 13.4334C65.3659 13.514 65.4672 13.5946 65.5481 13.6752C55.2653 13.6752 44.011 13.9975 35.2665 14.3199C35.9952 13.8364 36.8049 13.514 37.6955 13.3528C39.2395 13.3359 41.0359 13.3119 42.9737 13.2861L42.9738 13.2861C50.2834 13.1886 59.6054 13.0642 64.9814 13.1916ZM31.6232 13.4335C30.6516 13.5141 29.68 13.8365 28.8703 14.4006L28.6274 14.4812C30.0118 14.4812 31.5422 14.4085 33.1494 14.3322L33.4045 14.32C33.5394 14.2126 33.6654 14.0962 33.7913 13.9798L33.7913 13.9798C34.0432 13.7469 34.2951 13.5141 34.619 13.3529C33.0806 13.4335 32.028 13.4335 31.6232 13.4335ZM138.581 37.8533L142.386 38.498C143.277 39.4651 143.924 40.5129 144.491 41.7218L139.471 39.5457L138.581 37.8533ZM115.748 54.8586C115.748 60.5001 120.363 65.0134 125.95 65.0134C131.537 65.0134 136.152 60.4195 136.152 54.8586C136.152 49.217 131.537 44.7038 125.95 44.7038C120.282 44.7038 115.748 49.2976 115.748 54.8586Z" fill="#001333"/>
<path d="M131.009 57.5257C130.762 58.0233 130.433 58.5208 130.104 58.9354C127.964 61.5061 124.177 61.7549 121.626 59.5988C120.391 58.5208 119.65 57.1111 119.568 55.4526C119.485 53.877 119.979 52.3014 120.967 51.0575C122.778 48.9015 125.906 48.321 128.375 49.6478C128.622 49.8137 129.034 49.7307 129.198 49.399C129.363 49.0673 129.281 48.7356 128.952 48.5698C125.988 46.9113 122.202 47.6576 120.062 50.2283C118.827 51.721 118.168 53.5453 118.333 55.5355C118.498 57.4428 119.403 59.2671 120.802 60.511C122.119 61.672 123.848 62.2524 125.494 62.2524C127.552 62.2524 129.528 61.4232 131.009 59.6818C131.421 59.1842 131.833 58.6037 132.079 58.0233C132.244 57.6916 132.079 57.3599 131.833 57.194C131.503 57.1111 131.174 57.2769 131.009 57.5257Z" fill="#001333"/>
<path d="M34.0388 51.1471C35.0305 49.931 36.4354 49.1203 38.0882 48.8771C39.6584 48.6339 41.3113 49.1203 42.5509 50.0932C44.8649 51.8767 45.526 54.9574 44.2037 57.5517C43.46 58.8488 42.303 59.9027 40.8981 60.3892C40.5675 60.4702 40.4022 60.8756 40.5675 61.1188C40.6501 61.362 40.8981 61.5242 41.146 61.5242C41.2286 61.5242 41.3113 61.5242 41.3939 61.5242C43.0468 60.8756 44.4517 59.6595 45.3607 58.1192C47.0136 55.0385 46.1872 51.3092 43.3773 49.2014C41.8898 48.0664 39.989 47.4989 38.0056 47.7421C36.1048 47.9853 34.3693 48.9582 33.2124 50.4174C33.0471 50.6607 33.0471 51.066 33.295 51.2281C33.4603 51.3903 33.8735 51.3903 34.0388 51.1471Z" fill="#001333"/>
<path d="M35.4135 61.4381C36.291 61.9268 37.3281 62.2525 38.3652 62.2525C38.6843 62.2525 38.9236 62.0082 38.9236 61.6824C38.9236 61.3567 38.6843 61.1124 38.3652 61.0309C37.4876 61.0309 36.6899 60.7866 35.8921 60.3794C33.4989 59.0763 32.2225 56.2259 32.9404 53.5384C33.0202 53.2126 32.8607 52.8869 32.5416 52.8054C32.2225 52.724 31.9034 52.8869 31.8236 53.2126C31.1056 56.4702 32.5416 59.9722 35.4135 61.4381Z" fill="#001333"/>
<path d="M130.182 50.7491C129.964 50.9141 129.891 51.3265 130.037 51.5739C130.691 52.5636 131.055 53.8008 131.128 55.1205C131.128 55.4504 131.346 55.6978 131.637 55.6978C131.928 55.6978 132.146 55.3679 132.146 55.038C132.073 53.5534 131.637 52.0688 130.837 50.8316C130.764 50.5842 130.4 50.5017 130.182 50.7491Z" fill="#001333"/>
<path d="M89.3458 36.0339C89.6651 36.0339 89.9045 35.7217 89.9045 35.3056C89.9045 34.8894 89.6651 34.5773 89.3458 34.5773H84.6368C84.3176 34.5773 84.0781 34.8894 84.0781 35.3056C84.0781 35.7217 84.3176 36.0339 84.6368 36.0339H89.3458Z" fill="#001333"/>
<path d="M78.421 36.0339C78.7403 36.0339 78.9797 35.7217 78.9797 35.3056C78.9797 34.8894 78.7403 34.5773 78.421 34.5773H73.712C73.3928 34.5773 73.1533 34.8894 73.1533 35.3056C73.1533 35.7217 73.3928 36.0339 73.712 36.0339H78.421Z" fill="#001333"/>
<path d="M39.5671 38.947C39.1647 38.947 39.0038 39.177 38.9233 39.4837C38.9233 39.7903 39.1647 40.0203 39.4866 40.097C40.2913 40.097 41.0959 40.2503 41.8201 40.4036C41.9006 40.4036 41.9006 40.4036 41.9811 40.4036C42.2225 40.4036 42.4638 40.2503 42.5443 40.0203C42.6248 39.7136 42.4638 39.407 42.142 39.3303C41.3373 39.1003 40.4522 39.0237 39.5671 38.947Z" fill="#001333"/>
</svg>
