<svg width="9" height="18" viewBox="0 0 9 18" fill="none" xmlns="http://www.w3.org/2000/svg">
    <path d="M6.34012 8.86002L3.12012 7.79002C2.32012 7.52002 1.79012 6.78002 1.79012 5.94002C1.79012 4.87002 2.66012 3.99002 3.74012 3.99002H5.28012C6.25012 3.99002 7.07012 4.71002 7.21012 5.66002C7.26012 6.05002 7.63012 6.32002 8.01012 6.26002C8.40012 6.21002 8.67012 5.85002 8.61012 5.46002C8.38012 3.81002 6.95012 2.56002 5.28012 2.56002H5.22012V0.98002C5.22012 0.59002 4.90012 0.27002 4.51012 0.27002C4.12012 0.27002 3.80012 0.59002 3.80012 0.98002V2.56002H3.74012C1.88012 2.56002 0.370117 4.07002 0.370117 5.93002C0.370117 7.38002 1.30012 8.66002 2.67012 9.12002L5.89012 10.19C6.69012 10.46 7.22012 11.2 7.22012 12.04C7.22012 13.11 6.35012 13.99 5.27012 13.99H3.73012C2.76012 13.99 1.94012 13.27 1.80012 12.32C1.75012 11.93 1.39012 11.66 1.00012 11.72C0.610117 11.77 0.340117 12.13 0.400117 12.52C0.630117 14.17 2.06012 15.42 3.73012 15.42H3.79012V17C3.79012 17.39 4.11012 17.71 4.50012 17.71C4.89012 17.71 5.21012 17.39 5.21012 17V15.42H5.27012C7.13012 15.42 8.64012 13.91 8.64012 12.05C8.64012 10.6 7.72012 9.32002 6.34012 8.86002Z" fill="currentColor"/>
    </svg>