<svg width="24" height="24" viewBox="0 0 24 24" fill="currentColor" aria-hidden="true" focusable="false" xmlns="http://www.w3.org/2000/svg">
                                <path d="M20.5 19.5L16.78 15.78C17.98 14.35 18.71 12.52 18.71 10.51C18.71 5.99 15.03 2.31 10.51 2.31C5.99 2.31 2.31 5.99 2.31 10.51C2.31 15.03 5.99 18.71 10.51 18.71C12.52 18.71 14.35 17.98 15.78 16.78L19.5 20.5C19.64 20.64 19.82 20.71 20 20.71C20.18 20.71 20.36 20.64 20.5 20.5C20.78 20.22 20.78 19.77 20.5 19.5ZM3.73 10.51C3.73 6.77 6.77 3.73 10.51 3.73C14.25 3.73 17.29 6.77 17.29 10.51C17.29 14.25 14.25 17.29 10.51 17.29C6.77 17.29 3.73 14.25 3.73 10.51Z" fill="currentColor"/>
                            </svg>