<svg width="160" height="70" viewBox="0 0 160 70" fill="none" xmlns="http://www.w3.org/2000/svg">
<path d="M31.9741 57.9706L19.8035 57.3232C18.6382 57.1937 17.5377 56.6758 16.6961 55.8342C16.3724 55.3163 13.0708 50.8495 13.0708 50.8495L14.3656 47.3536L13.3945 43.0162L18.0556 37.1898C18.0556 37.1898 16.5666 35.8951 17.4082 35.0535C18.2498 34.2119 18.703 34.5356 23.1051 34.5356C27.5073 34.5356 51.7191 26.5082 57.8044 25.4724C63.8897 24.4366 77.2904 23.0123 84.7352 26.1845C92.18 29.3566 104.027 35.5714 104.027 35.5714C113.802 35.3772 123.642 36.0893 133.288 37.5783C137.496 38.8083 141.51 40.6857 145.135 43.0162L144.682 47.0947L145.912 50.0726L145.459 53.6332L146.754 59.0711L132.9 59.6537" fill="white"/>
<ellipse cx="82.6636" cy="66.7101" rx="57.0337" ry="2.84845" fill="#B3B8C2" fill-opacity="0.16"/>
<circle cx="41.9436" cy="55.122" r="10.2933" fill="#F2F3F5"/>
<ellipse cx="41.9434" cy="55.1221" rx="5.89111" ry="5.89111" fill="white"/>
<path d="M37.4119 51.3673C37.9298 50.7199 38.5772 50.2667 39.2893 49.9431C42.2025 48.5188 45.6983 49.7488 47.1225 52.662C48.5467 55.5752 47.3167 59.071 44.4035 60.4953C41.6198 61.8547 38.2535 60.819 36.6998 58.1C36.1171 56.9347 35.9229 55.5752 36.1819 54.2157" fill="white"/>
<ellipse cx="123.448" cy="55.122" rx="10.2933" ry="10.2933" fill="#F2F3F5"/>
<ellipse cx="123.448" cy="55.1221" rx="5.89111" ry="5.89111" fill="white"/>
<path d="M117.88 57.1935C116.78 54.1509 118.333 50.7845 121.376 49.684C124.419 48.5834 127.785 50.1371 128.886 53.1798C129.986 56.1577 128.497 59.5241 125.519 60.6246C124.742 60.8836 123.966 61.013 123.124 60.9483" fill="white"/>
<path d="M96.5172 35.7009C92.7624 33.8235 88.2308 31.6224 84.7349 30.1334C77.2901 27.0908 63.6305 28.3855 57.8042 29.4213C55.862 29.745 51.8483 30.8456 47.252 32.205L49.2588 34.6651L96.5172 35.7009Z" fill="#F2F3F5"/>
<path fill-rule="evenodd" clip-rule="evenodd" d="M147.207 50.202L146.818 53.5036L148.048 58.6826C148.178 59.0063 148.048 59.3947 147.854 59.7184C147.595 60.0421 147.271 60.2363 146.883 60.2363L133.418 60.7542C131.476 64.25 127.721 66.6453 123.448 66.6453C119.046 66.6453 115.226 64.1205 113.284 60.4952H58.9048C58.2574 60.4952 57.6748 59.9773 57.6748 59.2652C57.6748 58.6179 58.1927 58.0352 58.9048 58.0352H111.99L111.957 57.8735C111.774 56.9628 111.601 56.1001 111.601 55.122C111.601 48.713 116.78 43.534 123.189 43.534C129.598 43.534 134.777 48.7778 134.777 55.122C134.777 56.2225 134.518 57.2583 134.259 58.2942L145.07 57.841L144.229 54.2157H139.179C138.791 54.2157 138.532 53.9568 138.532 53.5683C138.532 53.1799 138.856 52.921 139.179 52.921H144.164L144.488 50.202L143.387 47.5477C143.322 47.3536 143.322 47.0947 143.322 46.9005V46.9004L143.711 43.5988C143.508 43.4367 143.28 43.3254 143.059 43.2172C142.926 43.1524 142.796 43.0888 142.675 43.0161V43.2103L141.704 45.994C141.639 46.1883 141.38 46.3825 141.121 46.3825H141.057L135.424 45.7998C135.381 45.7783 135.338 45.7639 135.295 45.7495C135.209 45.7207 135.122 45.6919 135.036 45.6056L131.67 42.304C131.476 42.1098 131.411 41.8509 131.54 41.5919C131.605 41.333 131.929 41.2035 132.123 41.2035C135.166 41.2682 138.208 41.6566 141.186 42.1745C138.467 40.7503 135.748 39.5203 132.835 38.6787C123.383 37.2545 113.608 36.5424 103.897 36.7366C103.768 36.8013 103.509 36.7366 103.315 36.6071L103.264 36.5807L103.165 36.5289C101.766 35.7966 90.9573 30.1383 84.0877 27.2202C77.2902 24.3717 65.3138 25.6017 60.0053 26.3139L60.4585 27.7381C67.6444 26.8318 78.585 26.3139 85.0587 28.9681C87.9719 30.1334 91.9856 32.0108 96.9057 34.5355C97.4236 34.7945 97.6825 35.3771 97.5531 35.9597C97.4236 36.5424 96.9057 36.9308 96.3231 36.9308L88.0367 36.7366C87.5835 37.5782 86.7419 38.0961 85.7708 38.0961H82.0808C81.4334 38.0961 80.8508 37.5782 80.8508 36.8661V36.6071L62.5948 36.2187C61.8827 37.4487 61.3648 38.8729 61.1706 40.2972C61.6238 43.3398 62.4654 46.4472 63.6954 49.4251C63.8249 49.7488 63.6954 50.1372 63.3717 50.2667C63.3069 50.3315 63.1775 50.3315 63.1127 50.3315C62.8538 50.3315 62.6596 50.202 62.5301 49.943C61.2353 46.8356 60.3938 43.5988 59.9406 40.2972C60.1348 38.7435 60.588 37.384 61.2353 36.154L49.1942 35.895H42.3967C41.7494 35.895 41.1667 35.3124 41.1667 34.665C41.1667 34.0176 41.6846 33.435 42.3967 33.435H46.5399L46.2163 33.0466C45.9573 32.7229 45.8926 32.2697 46.022 31.8813C46.1515 31.4929 46.4752 31.1692 46.8636 31.0397C52.3016 29.4213 55.7974 28.5149 57.5453 28.1912C57.7764 28.1624 58.0333 28.1206 58.2987 28.0774C58.6281 28.0239 58.9706 27.9681 59.2932 27.9323L58.8401 26.5081C58.6942 26.5372 58.5484 26.5533 58.4145 26.568C58.251 26.5859 58.1052 26.602 57.9985 26.6375C55.4737 27.026 49.4531 28.7739 43.0441 30.6513C32.6214 33.6939 25.565 35.7008 23.105 35.7008C22.3616 35.7008 21.7462 35.6795 21.2221 35.6613H21.2221C20.8335 35.6478 20.495 35.6361 20.1918 35.6361C19.0265 35.6361 18.6381 35.6361 18.4439 35.7008C18.5086 35.8303 18.7028 36.0245 18.8323 36.154C18.8647 36.1863 18.8809 36.2349 18.897 36.2834C18.9132 36.332 18.9294 36.3805 18.9618 36.4129L20.9039 38.2256C21.1629 38.4198 21.1629 38.8082 20.9686 39.0671L18.1849 42.4982C18.0555 42.6924 17.8613 42.7572 17.667 42.7572C17.6023 42.7572 17.4728 42.7572 17.4081 42.6924L15.8544 41.9156L14.7539 43.3398L15.5954 47.0946C15.6602 47.3535 15.5954 47.6125 15.5307 47.8067L14.6244 50.2667L31.003 51.6262C32.4919 46.9651 36.8293 43.5988 41.9436 43.5988C47.77 43.5988 52.5605 47.9362 53.3374 53.5683H102.862L108.753 43.5988L107.458 41.8509C107.264 41.5272 107.328 41.1387 107.587 40.9445C107.911 40.7503 108.299 40.8151 108.494 41.074L110.047 43.1456C110.242 43.3398 110.242 43.6635 110.112 43.8577L103.833 54.4747C103.768 54.6689 103.509 54.7983 103.315 54.7983H53.4669C53.5316 54.9278 53.5316 54.9926 53.5316 55.122C53.5316 61.531 48.3526 66.71 41.9436 66.71C36.9588 66.71 32.8156 63.6026 31.1324 59.2005L19.6739 58.6179C18.1849 58.4236 16.8255 57.7763 15.7897 56.7405C15.4012 56.0931 13.3296 53.2446 12.0349 51.5615C11.7759 51.2378 11.7112 50.7846 11.9054 50.3962L13.0707 47.2241L12.1644 43.2103C12.0996 42.8219 12.1644 42.4982 12.4233 42.1745L16.3076 37.1898C16.0486 36.8013 15.7897 36.2834 15.7897 35.7008C15.7897 35.1182 15.9839 34.6003 16.437 34.1471C17.4081 33.176 18.2497 33.176 20.1918 33.2408C20.8392 33.3055 21.7455 33.3055 22.9755 33.3055C25.3061 33.3055 34.3046 30.716 42.2025 28.3855C48.6763 26.4433 54.7616 24.6954 57.4806 24.2423C60.588 23.7244 76.4487 21.3291 85.1235 25.0191C91.7879 27.8753 101.999 33.1584 104.166 34.2792L104.286 34.3413C114.126 34.1471 123.901 34.8592 133.482 36.3482C137.949 37.6429 142.092 39.5203 145.847 41.9803C146.236 42.2393 146.495 42.6924 146.43 43.1456L146.041 46.9004L147.142 49.5546C147.207 49.7488 147.207 50.0078 147.207 50.202ZM51.0069 55.122C51.0069 50.1372 46.9284 46.0588 41.9436 46.0588C36.9589 46.0588 32.8804 50.1372 32.8804 55.122C32.8804 60.1068 36.9589 64.1852 41.9436 64.1852C46.9284 64.1852 51.0069 60.1068 51.0069 55.122ZM30.485 56.6758L19.9328 56.0932C19.0265 55.9637 18.1849 55.5753 17.7317 55.1868C17.4728 54.7984 16.1133 52.921 15.0775 51.5615L30.5498 52.8563C30.4203 53.5684 30.2908 54.3452 30.2908 55.1221L30.485 56.6758ZM16.6312 40.8797L17.5375 41.3329L19.6091 38.7434L18.897 38.0312L16.6312 40.8797ZM57.9983 30.6512C58.3658 30.5777 58.7543 30.5251 59.1636 30.4696C59.4752 30.4274 59.7988 30.3835 60.1346 30.3276L61.2352 33.6939L49.7766 33.435L49.3235 32.9171C53.6609 31.687 56.5093 30.9102 57.9983 30.6512ZM90.8851 34.3414C88.2309 33.0466 86.0298 32.0756 84.2171 31.2987C78.3908 28.8387 68.0975 29.3566 61.4296 30.1982L62.5948 33.7587L80.9155 34.1472V33.953C80.9155 33.3056 81.4334 32.7229 82.1455 32.7229H85.8356C86.9361 32.7229 87.8424 33.3703 88.2956 34.2766L90.8851 34.3414ZM140.798 45.1524L137.561 44.8287C137.464 44.6992 137.367 44.586 137.269 44.4727C137.172 44.3594 137.075 44.2461 136.978 44.1166C136.892 43.8577 136.863 43.5987 136.834 43.3398C136.82 43.2103 136.806 43.0808 136.784 42.9513L136.963 42.9669C138.397 43.0914 139.886 43.2206 141.316 43.4692L140.798 45.1524ZM114.385 55.122C114.385 60.1068 118.463 64.1852 123.448 64.1852C128.433 64.1852 132.447 60.1068 132.511 55.122C132.511 50.1372 128.433 46.0588 123.448 46.0588C118.463 46.0588 114.385 50.1372 114.385 55.122Z" fill="#001333"/>
<path d="M41.8139 61.6605C42.7849 61.6605 43.756 61.4663 44.6623 61.0131C47.8992 59.4594 49.1939 55.5752 47.6402 52.3383C46.0865 49.1014 42.2023 47.7419 38.9654 49.3604C38.1886 49.7488 37.4764 50.2667 36.8938 50.9788C36.6996 51.2378 36.6996 51.6262 36.9585 51.8851C37.2175 52.0794 37.6059 52.0794 37.8649 51.8204C38.318 51.3025 38.8359 50.8493 39.4833 50.5257C42.0728 49.2309 45.1802 50.3314 46.4749 52.9209C47.7697 55.5104 46.6692 58.6178 44.0797 59.9126C41.6196 61.1426 38.577 60.1715 37.2175 57.7763C36.6996 56.6757 36.5701 55.5104 36.7643 54.3452C36.8291 54.0215 36.6349 53.6978 36.2464 53.6331C35.858 53.5683 35.5991 53.7625 35.5343 54.151C35.2754 55.5752 35.4696 57.0641 36.117 58.4236C37.347 60.4305 39.548 61.6605 41.8139 61.6605Z" fill="#001333"/>
<path d="M129.469 52.9857C128.886 51.3673 127.656 50.0725 126.102 49.3604C124.549 48.6483 122.801 48.5188 121.118 49.1662C117.751 50.3962 116.003 54.151 117.233 57.4526C117.363 57.7763 117.686 57.9705 118.01 57.841C118.334 57.7116 118.528 57.3879 118.399 57.0642C117.428 54.3452 118.787 51.3673 121.506 50.3315C124.225 49.3604 127.203 50.7199 128.239 53.4389C129.21 56.0931 127.85 59.0711 125.196 60.1069C124.484 60.3658 123.772 60.4953 123.06 60.4305C122.736 60.4305 122.412 60.6895 122.412 61.0132C122.412 61.3369 122.671 61.6606 122.995 61.6606C123.124 61.6606 123.319 61.6606 123.448 61.6606C124.225 61.6606 124.937 61.5311 125.714 61.2721C129.016 59.9774 130.699 56.2873 129.469 52.9857Z" fill="#001333"/>
<path d="M64.0839 39.0024C63.7602 39.0024 63.4365 39.2614 63.4365 39.6498C63.4365 39.9735 63.6955 40.2972 64.0839 40.2972H69.1982C69.5218 40.2972 69.8455 40.0382 69.8455 39.6498C69.8455 39.3261 69.5866 39.0024 69.1982 39.0024H64.0839Z" fill="#001333"/>
</svg>
