<svg class="header-footer-icon" width="24" height="24" viewBox="0 0 24 24" fill="none" xmlns="http://www.w3.org/2000/svg">
                    <path d="M12 1.29004C6.64999 1.29004 2.28999 5.65004 2.28999 11C2.28999 16.35 8.47999 20.6 10.52 21.92C10.97 22.21 11.49 22.36 12 22.36C12.51 22.36 13.03 22.21 13.48 21.92C15.51 20.6 21.71 16.59 21.71 11C21.71 5.41004 17.35 1.29004 12 1.29004ZM12.71 20.73C12.28 21.01 11.72 21.01 11.29 20.73C9.41999 19.51 3.70999 15.81 3.70999 11C3.70999 6.19004 7.42999 2.71004 12 2.71004C16.57 2.71004 20.29 6.43004 20.29 11C20.29 15.82 14.58 19.52 12.71 20.73Z" fill="#001333"/>
                    <path d="M12 7.29004C9.94999 7.29004 8.28999 8.95004 8.28999 11C8.28999 13.05 9.94999 14.71 12 14.71C14.05 14.71 15.71 13.05 15.71 11C15.71 8.95004 14.05 7.29004 12 7.29004ZM12 13.29C10.74 13.29 9.70999 12.26 9.70999 11C9.70999 9.74004 10.74 8.71004 12 8.71004C13.26 8.71004 14.29 9.74004 14.29 11C14.29 12.26 13.26 13.29 12 13.29Z" fill="#001333"/>
                    <circle class="hidden header-footer-location-icon-alert-circle" cx="19" cy="4" r="4" stroke="white" stroke-width="1"/>
                </svg>