<svg xmlns="http://www.w3.org/2000/svg" width="23" height="16" viewBox="0 0 23 16" fill="none">
    <path d="M16.93 7.56001L15.52 7.09001C15.33 7.03001 15.21 6.86001 15.21 6.66001C15.21 6.41001 15.41 6.21001 15.66 6.21001H16.34C16.56 6.21001 16.76 6.38001 16.79 6.60001C16.84 6.99001 17.2 7.27001 17.59 7.21001C17.98 7.16001 18.25 6.80001 18.2 6.41001C18.09 5.62001 17.48 4.99001 16.72 4.84001V4.51001C16.72 4.12001 16.4 3.80001 16.01 3.80001C15.62 3.80001 15.3 4.12001 15.3 4.51001V4.84001C14.45 5.01001 13.8 5.77001 13.8 6.67001C13.8 7.48001 14.31 8.19001 15.08 8.45001L16.49 8.92001C16.68 8.98001 16.8 9.15001 16.8 9.35001C16.8 9.60001 16.6 9.80001 16.35 9.80001H15.67C15.45 9.80001 15.25 9.63001 15.22 9.41001C15.17 9.02001 14.82 8.75001 14.42 8.80001C14.03 8.85001 13.76 9.21001 13.81 9.60001C13.92 10.39 14.53 11.02 15.29 11.17V11.5C15.29 11.89 15.61 12.21 16 12.21C16.39 12.21 16.71 11.89 16.71 11.5V11.17C17.56 11 18.21 10.24 18.21 9.34001C18.21 8.53001 17.7 7.82001 16.93 7.56001Z" fill="currentColor"/>
    <path d="M5.50004 6.71001H9.50004C9.89004 6.71001 10.21 6.39001 10.21 6.00001C10.21 5.61001 9.89004 5.29001 9.50004 5.29001H5.50004C5.11004 5.29001 4.79004 5.61001 4.79004 6.00001C4.79004 6.39001 5.11004 6.71001 5.50004 6.71001Z" fill="currentColor"/>
    <path d="M10.5 9.29001H5.50004C5.11004 9.29001 4.79004 9.61001 4.79004 10C4.79004 10.39 5.11004 10.71 5.50004 10.71H10.5C10.89 10.71 11.21 10.39 11.21 10C11.21 9.61001 10.89 9.29001 10.5 9.29001Z" fill="currentColor"/>
    <path d="M19.5 0.290009H3.50004C2.01004 0.290009 0.790039 1.51001 0.790039 3.00001V13C0.790039 14.49 2.01004 15.71 3.50004 15.71H19.5C20.99 15.71 22.21 14.49 22.21 13V3.00001C22.21 1.51001 20.99 0.290009 19.5 0.290009ZM20.79 13C20.79 13.71 20.21 14.29 19.5 14.29H3.50004C2.79004 14.29 2.21004 13.71 2.21004 13V3.00001C2.21004 2.29001 2.79004 1.71001 3.50004 1.71001H19.5C20.21 1.71001 20.79 2.29001 20.79 3.00001V13Z" fill="currentColor"/>
    </svg>