<svg width="19" height="19" viewBox="0 0 19 19" fill="none" xmlns="http://www.w3.org/2000/svg">
    <path d="M18.4 17.5001L14.68 13.7801C15.88 12.3501 16.61 10.5201 16.61 8.51006C16.61 3.99006 12.93 0.310059 8.40996 0.310059C3.88996 0.310059 0.209961 3.99006 0.209961 8.51006C0.209961 13.0301 3.88996 16.7101 8.40996 16.7101C10.42 16.7101 12.25 15.9801 13.68 14.7801L17.4 18.5001C17.54 18.6401 17.72 18.7101 17.9 18.7101C18.08 18.7101 18.26 18.6401 18.4 18.5001C18.68 18.2201 18.68 17.7701 18.4 17.5001ZM1.62996 8.51006C1.62996 4.77006 4.66996 1.73006 8.40996 1.73006C12.15 1.73006 15.19 4.77006 15.19 8.51006C15.19 12.2501 12.15 15.2901 8.40996 15.2901C4.66996 15.2901 1.62996 12.2501 1.62996 8.51006Z" fill="currentColor"/>
    </svg>