<svg width="160" height="70" viewBox="0 0 160 70" fill="none" xmlns="http://www.w3.org/2000/svg">
<path d="M31.9727 59.3149L28.0944 57.6171L22.9232 56.1191L21.332 52.8234C21.2326 49.328 22.0282 45.8326 23.6193 42.7366C23.6193 41.4384 24.0171 40.2399 24.6137 39.1414V35.646C28.0944 33.0494 31.7739 30.7524 35.5528 28.5553C34.9561 27.9561 34.3594 27.3568 33.7628 26.7576C45.9946 24.5605 58.4254 23.462 70.8561 23.6617C77.4195 23.5618 83.983 24.4606 90.2481 26.3581C91.8392 26.9574 104.369 33.4488 106.06 34.2478C108.148 35.2465 110.237 35.9456 112.524 36.345C115.209 36.7445 130.225 39.0415 136.49 45.3332C137.187 46.3319 137.584 47.4305 137.584 48.6289C138.181 49.2281 138.479 50.1269 138.479 50.9259C138.28 52.7235 137.883 54.621 137.385 56.3188C137.883 56.3188 138.28 56.5186 138.778 56.6184C139.076 56.6184 138.778 57.8169 138.181 58.1165C137.584 58.4161 132.711 59.5146 131.021 59.8142H122.866" fill="white"/>
<ellipse cx="76.9792" cy="67.1189" rx="49.3937" ry="2.4349" fill="#B3B8C2" fill-opacity="0.16"/>
<ellipse cx="41.151" cy="56.6836" rx="9.39176" ry="9.39176" fill="#F2F3F5"/>
<circle cx="41.1512" cy="56.6835" r="5.21765" fill="white"/>
<path d="M35.6468 59.2269C35.3404 58.512 35.2383 57.7972 35.2383 57.0824C35.2383 54.0188 37.6891 51.4658 40.7527 51.4658C43.8163 51.4658 46.3693 53.9167 46.3693 56.9803C46.3693 60.0438 43.9184 62.5968 40.8548 62.5968H40.7527C39.4252 62.5968 38.0976 62.1883 37.0764 61.3714" fill="white"/>
<circle cx="113.503" cy="56.6836" r="9.39176" fill="#F2F3F5"/>
<circle cx="113.502" cy="56.6835" r="5.21765" fill="white"/>
<path d="M118.72 56.6835C118.72 59.5822 116.401 61.9011 113.502 61.9011C110.604 61.9011 108.285 59.5822 108.285 56.6835C108.285 53.7848 110.604 51.4658 113.502 51.4658C114.275 51.4658 114.952 51.6591 115.628 51.8523" fill="white"/>
<path d="M105.502 38.9435C103.809 38.2544 91.166 31.8554 89.6727 31.2647C83.4008 29.3942 76.8303 28.5082 70.2598 28.5082C61.2005 28.5082 53.5349 29.0004 47.5617 29.4926L47.064 33.8243C49.055 35.4979 51.5439 36.3839 54.1322 36.3839C59.5081 36.9746 73.6446 38.3528 75.8348 38.5497C78.025 38.7466 105.502 38.9435 105.502 38.9435Z" fill="#F2F3F5"/>
<path fill-rule="evenodd" clip-rule="evenodd" d="M139.547 56.4341C139.448 56.0401 139.149 55.7445 138.751 55.5475C138.702 55.5475 138.627 55.5229 138.552 55.4983C138.478 55.4736 138.403 55.449 138.353 55.449C138.751 53.9715 139.05 52.4939 139.249 50.9178C139.249 49.9328 138.851 49.0462 138.353 48.2582C138.254 46.9777 137.856 45.7956 136.96 44.7121C132.781 40.5749 124.422 37.4227 112.482 35.5512C110.392 35.1572 108.302 34.4676 106.312 33.4826C105.964 33.3348 105.118 32.9162 103.999 32.3621C102.879 31.808 101.486 31.1185 100.043 30.4289C94.9686 27.8678 91.2869 26.0948 90.3913 25.7007C84.0229 23.8292 77.356 22.9426 70.6891 23.0411C63.8231 22.9426 56.9572 23.2381 50.0913 23.9277C48.8972 23.0411 47.0066 22.9426 46.9071 22.9426C46.7081 22.9426 46.6086 23.0411 46.5091 23.1396C46.4096 23.2381 46.4096 23.4351 46.4096 23.6322L46.5091 24.3217C42.1308 24.8142 37.7525 25.4052 33.4737 26.1933C33.0757 26.2918 32.7772 26.4888 32.6777 26.8828C32.5782 27.2768 32.5782 27.6708 32.8767 27.9663C33.026 28.1141 33.1503 28.2619 33.2747 28.4096C33.3991 28.5574 33.5235 28.7051 33.6728 28.8529C30.2895 30.823 27.0058 32.8916 23.8216 35.1572C23.5231 35.3542 23.4236 35.6497 23.4236 36.0437V39.1958C22.8266 40.2794 22.5281 41.4614 22.4285 42.742C20.6374 45.7956 19.8414 49.3418 19.9409 52.7894C19.9409 52.9864 19.9409 53.0849 20.0404 53.2819L21.6325 56.5326C21.732 56.8281 22.0305 57.0251 22.329 57.1236L27.4039 58.6012L30.8866 60.0787C32.2797 64.3144 36.1604 67.368 40.9367 67.368C46.8076 67.368 51.4844 62.6398 51.4844 56.9266V56.5326H103.029V56.9266C103.029 57.7146 103.128 58.5027 103.327 59.2907H54.7681C54.171 59.2907 53.6735 59.7832 53.6735 60.3742C53.6735 60.9653 54.171 61.4578 54.7681 61.4578H103.924C105.616 65.0039 109.198 67.4665 113.477 67.4665C117.855 67.4665 121.636 64.8069 123.228 60.9653H130.791C130.986 60.9224 131.407 60.8375 131.956 60.7268L131.957 60.7267C133.93 60.3291 137.553 59.5989 138.254 59.2907C139.249 58.6012 139.746 57.2221 139.547 56.4341ZM136.065 48.0613L130.293 45.5002C130.094 45.4017 129.796 45.2047 129.497 45.0077L128.303 43.0376C129.895 43.3331 131.487 43.7271 132.98 44.2196C133.876 44.8107 134.672 45.4017 135.269 45.9927C135.766 46.6822 135.965 47.3718 136.065 48.0613ZM35.6627 27.7693L35.9612 28.0648C36.2597 28.2619 36.3592 28.6559 36.0607 28.9514C36.0607 29.2469 35.8617 29.5424 35.5632 29.7394C35.1154 30.0349 34.6676 30.3058 34.2198 30.5767C33.7721 30.8476 33.3243 31.1185 32.8765 31.414L33.1665 31.3971C36.4475 31.2059 39.6373 31.02 42.8271 31.02C43.9217 31.1185 44.9168 31.5125 45.8123 31.9065L46.1108 29.3454C46.2104 28.8529 46.6084 28.3604 47.1059 28.3604C54.0713 27.7693 61.3353 27.3753 68.6988 27.3753C68.649 26.9813 68.5744 26.6119 68.4997 26.2425C68.4251 25.8731 68.3505 25.5037 68.3007 25.1097C57.355 25.0112 46.4094 25.9963 35.6627 27.7693ZM97.7545 37.6198C97.3565 36.8318 96.5604 36.3393 95.6649 36.3393H92.4807C91.8837 36.3393 91.3861 36.8318 91.3861 37.4228V37.6198C83.8237 37.5213 76.6592 37.4228 75.6641 37.3243C75.2767 37.3243 74.4701 37.2413 73.3805 37.1292L73.3804 37.1292L73.3803 37.1292C72.791 37.0686 72.1188 36.9994 71.3854 36.9303C71.0868 34.3692 70.6888 31.9066 70.1913 29.444C76.5597 29.3455 82.9281 30.232 88.998 32.0051C89.4054 32.1779 90.9364 32.9238 92.8341 33.8483L92.8344 33.8484L92.8349 33.8486L92.8376 33.85L92.8415 33.8518C94.1863 34.507 95.7146 35.2515 97.1575 35.9453C97.5632 36.1461 97.9574 36.3469 98.344 36.5438C99.0953 36.9265 99.818 37.2946 100.541 37.6198H97.7545ZM53.8722 35.1571C57.554 35.5511 65.1164 36.3392 70.2908 36.8317C69.9922 34.3691 69.5942 31.9065 69.0967 29.3454C63.2258 29.3454 57.4544 29.6409 51.7826 30.0349V34.8616C52.4791 35.0586 53.1757 35.1571 53.8722 35.1571ZM48.0016 33.2856L48.3001 30.429C48.6982 30.3797 49.1211 30.3551 49.544 30.3305C49.9669 30.3059 50.3898 30.2812 50.7878 30.232V34.6647C49.6932 34.3692 48.7977 33.8766 48.0016 33.2856ZM31.981 36.9301L26.8066 35.4525C26.3091 35.748 25.8116 36.0435 25.4136 36.339V38.6046C26.3091 38.4076 27.3042 38.2106 28.2992 38.2106C29.0953 38.2106 30.4883 38.3091 31.8814 38.4076L31.8815 38.4076L31.981 36.9301ZM28.1008 56.5325L23.4241 55.1534L22.7275 53.6759L30.489 55.1534C30.3895 55.6459 30.29 56.237 30.29 56.7295C30.29 56.828 30.3149 56.9265 30.3397 57.025C30.3646 57.1235 30.3895 57.222 30.3895 57.3205L28.1008 56.5325ZM32.3791 56.7295C32.3791 61.3592 36.1604 65.1024 40.8372 65.1024C45.514 65.1024 49.2952 61.3592 49.2952 56.7295C49.2952 52.0998 45.514 48.3566 40.8372 48.3566C36.1604 48.3566 32.3791 52.0998 32.3791 56.7295ZM113.477 65.1024C108.8 65.1024 105.019 61.3592 105.019 56.7295C105.019 52.0998 108.8 48.3566 113.477 48.3566C118.153 48.3566 121.935 52.0998 121.935 56.7295C121.935 61.3592 118.153 65.1024 113.477 65.1024ZM123.925 58.6012H130.691C130.967 58.5428 131.308 58.4728 131.691 58.3944C133.246 58.0759 135.484 57.6173 136.761 57.2221C136.562 57.1236 136.363 57.0251 136.264 56.8281L131.288 57.3206H131.189C130.99 57.3206 130.691 57.1236 130.691 56.8281C130.691 56.5326 130.89 56.2371 131.189 56.2371L136.065 55.7446C136.562 54.1685 136.96 52.3954 137.159 50.7208C137.159 50.3268 136.861 49.8343 136.562 49.4403L129.796 46.4852C128.602 45.7956 122.731 42.151 122.731 42.151C122.532 42.0525 122.432 41.7569 122.532 41.5599C122.631 41.2644 122.83 41.1659 123.129 41.1659C125.019 41.2644 126.91 41.5599 128.801 41.954C124.621 40.1809 119.049 38.7033 112.382 37.6198C109.795 37.1272 107.506 36.4377 105.417 35.3542C104.981 35.1691 103.764 34.559 102.182 33.7658C101.238 33.2926 100.164 32.7542 99.0484 32.202C95.1676 30.232 90.4908 27.8679 89.5953 27.5723C83.4259 25.7993 76.958 24.9127 70.5896 25.0112H69.3955C69.4453 25.4052 69.5199 25.7746 69.5945 26.144C69.6691 26.5134 69.7438 26.8828 69.7935 27.2768H70.5896C76.958 27.2768 83.4259 28.1634 89.5953 29.9364C90.1499 30.1195 91.735 30.9069 93.7832 31.9246C95.0423 32.5501 96.4764 33.2626 97.9538 33.9751C99.2269 34.5862 100.53 35.2268 101.695 35.7995C103.534 36.704 105.029 37.4388 105.516 37.6198C105.914 37.8168 106.213 38.3093 106.113 38.8018C106.014 39.2943 105.516 39.6884 105.019 39.6884C104.924 39.6884 104.677 39.6828 104.301 39.6743C103.096 39.6471 100.565 39.5899 97.4563 39.5899C97.0582 40.2794 96.3617 40.7719 95.4661 40.7719H92.2819C91.6849 40.7719 91.1874 40.2794 91.1874 39.6884V39.4914C84.0229 39.4914 76.4604 39.3928 75.2664 39.2943C74.6693 39.2943 73.2762 39.1958 71.4851 38.9988C72.0822 43.333 72.4802 47.5687 72.6792 51.8044C72.6792 52.0999 72.4802 52.3954 72.1817 52.3954C71.9827 52.3954 71.6841 52.1984 71.6841 51.9029C71.3856 47.6672 70.9876 43.333 70.4901 38.9988C65.2162 38.5063 57.3552 37.7183 53.6735 37.3243C50.9868 37.3243 48.3002 36.2407 46.111 34.4676C46.111 34.4184 46.0862 34.3938 46.0613 34.3691C46.0364 34.3445 46.0115 34.3199 46.0115 34.2706C45.0165 33.6796 43.9219 33.2856 42.8273 33.0886C38.3496 33.1871 33.6728 33.3841 29.0955 33.8766C28.9094 34.0609 28.6846 34.2068 28.4452 34.3622C28.3006 34.4561 28.1508 34.5534 28.0009 34.6646L38.3496 37.6198C38.5486 37.7183 38.7476 37.9153 38.7476 38.1123C38.8471 38.3093 38.6481 38.5063 38.4491 38.6048L35.7624 39.6884H35.5634C35.544 39.6884 35.3274 39.6771 34.9788 39.659C33.5415 39.5843 29.8599 39.3928 28.4984 39.3928C27.4039 39.3928 26.4088 39.5899 25.4137 39.7869V39.8854C24.8167 40.7719 24.5182 41.7569 24.5182 42.8405C24.5182 43.0375 24.5182 43.2345 24.4187 43.333C22.9261 46.1896 22.2295 49.3418 22.2295 52.4939L30.7871 54.1685C31.9812 49.7358 36.0609 46.3866 40.9367 46.3866C46.3101 46.3866 50.6883 50.3268 51.3849 55.449H103.128C103.825 50.3268 108.203 46.3866 113.576 46.3866C119.348 46.3866 124.124 51.0163 124.124 56.8281C124.124 57.4191 124.024 58.0101 123.925 58.6012Z" fill="#001333"/>
<path d="M41.1027 50.7701C41.005 50.7701 41.005 50.7701 41.1027 50.7701C39.4411 50.7701 37.975 51.4543 36.8999 52.5295C35.8247 53.6046 35.2383 55.1685 35.2383 56.7323C35.2383 57.5143 35.4338 58.2962 35.727 58.9804C35.8247 59.2736 36.118 59.3714 36.4112 59.2736C36.7044 59.1759 36.8021 58.8826 36.7044 58.5894C36.4112 58.003 36.3134 57.3188 36.3134 56.7323C36.3134 55.4617 36.8021 54.1911 37.6818 53.3114C38.5615 52.4317 39.8321 51.8453 41.1027 51.8453C42.3734 51.8453 43.5463 52.334 44.5237 53.2137C45.4033 54.0933 45.9898 55.364 45.9898 56.6346C45.9898 57.9052 45.5011 59.1759 44.6214 60.0555C43.7418 60.9352 42.4711 61.5217 41.1027 61.5217C39.9299 61.5217 38.8547 61.2284 37.975 60.4465C37.7795 60.251 37.3886 60.3488 37.1931 60.5442C36.9976 60.7397 37.0954 61.1307 37.2908 61.3262C38.366 62.1081 39.6366 62.5968 41.005 62.5968C41.1027 62.5968 41.1027 62.5968 41.2005 62.5968C42.7643 62.5968 44.2305 61.9126 45.4034 60.8375C46.4785 59.7623 47.0649 58.1985 47.0649 56.6346C47.0649 55.0707 46.3808 53.6046 45.3056 52.4317C44.1327 51.3566 42.6666 50.7701 41.1027 50.7701Z" fill="#001333"/>
<path d="M118.923 56.0921C118.628 56.0921 118.43 56.2893 118.43 56.5849C118.43 59.2459 116.262 61.4141 113.601 61.4141C110.94 61.4141 108.772 59.2459 108.772 56.5849C108.772 53.9239 110.842 51.8543 113.503 51.8543C114.193 51.8543 114.882 51.9528 115.474 52.2485C115.769 52.347 116.065 52.2485 116.164 51.9528C116.262 51.6571 116.164 51.3615 115.868 51.2629C115.08 50.9673 114.291 50.7701 113.503 50.7701C110.25 50.7701 107.589 53.4311 107.589 56.6835C107.589 59.9358 110.25 62.5968 113.503 62.5968C116.755 62.5968 119.416 59.9358 119.416 56.6835C119.416 56.3878 119.219 56.0921 118.923 56.0921Z" fill="#001333"/>
<path d="M51.4972 39.6393H46.8815C46.5738 39.6393 46.3687 39.7784 46.3687 39.9871C46.3687 40.1958 46.5738 40.335 46.8815 40.335H51.3946C51.7023 40.335 51.9075 40.1958 51.9075 39.9871C52.01 39.848 51.8049 39.6393 51.4972 39.6393Z" fill="#001333"/>
<path d="M78.5507 41.0308H74.0158C73.7066 41.0308 73.5005 41.1699 73.5005 41.3786C73.5005 41.5873 73.7066 41.7265 74.0158 41.7265H78.5507C78.8598 41.7265 79.066 41.5873 79.066 41.3786C79.066 41.1699 78.8598 41.0308 78.5507 41.0308Z" fill="#001333"/>
</svg>
