<svg xmlns="http://www.w3.org/2000/svg" class="MuiSvgIcon-root MuiSvgIcon-fontSizeMedium css-iguwhy" focusable="false" aria-hidden="true" viewBox="0 0 24 24" data-testid="KmxLeafStrokedIcon"><path d="M20.3399 7.63008C20.2099 6.26008 19.1299 5.18008 17.7599 5.05008C14.1499 4.71008 10.4599 4.75008 7.93994 7.26008C6.74994 8.45008 6.16994 10.1101 6.30994 11.9301C6.42994 13.4801 7.07994 14.9901 8.13994 16.2401L7.95994 16.4201C7.06994 17.3101 5.60994 17.3101 4.71994 16.4201C4.43994 16.1401 3.98994 16.1401 3.71994 16.4201C3.44994 16.7001 3.43994 17.1501 3.71994 17.4201C4.43994 18.1401 5.38994 18.5001 6.33994 18.5001C7.28994 18.5001 8.23994 18.1401 8.95994 17.4201L9.13994 17.2401C10.3899 18.3001 11.8999 18.9401 13.4499 19.0701C13.6299 19.0801 13.8199 19.0901 13.9999 19.0901C15.5999 19.0901 17.0499 18.5101 18.1199 17.4401C20.6399 14.9201 20.6699 11.2301 20.3299 7.62008L20.3399 7.63008ZM17.1199 16.4501C16.2199 17.3501 14.9499 17.7801 13.5699 17.6701C12.3499 17.5701 11.1699 17.0601 10.1699 16.2401L13.9099 12.5001C14.1899 12.2201 14.1899 11.7701 13.9099 11.5001C13.6299 11.2301 13.1799 11.2201 12.9099 11.5001L9.16994 15.2401C8.34994 14.2301 7.82994 13.0501 7.73994 11.8401C7.62994 10.4401 8.05994 9.18008 8.95994 8.29008C10.4899 6.76008 12.6499 6.34008 14.9699 6.34008C15.8499 6.34008 16.7399 6.40008 17.6399 6.48008C18.3299 6.54008 18.8799 7.09008 18.9399 7.78008C19.2399 11.0501 19.2399 14.3601 17.1399 16.4601L17.1199 16.4501Z" fill="currentColor"/></svg>