<svg width="40" height="40" viewBox="0 0 40 40" fill="none" xmlns="http://www.w3.org/2000/svg">
<path d="M15.9004 7.44995V15.6428" stroke="#2A343D" stroke-width="1.4" stroke-linecap="round" stroke-linejoin="round"/>
<path d="M24.0996 7.44995V15.6428" stroke="#2A343D" stroke-width="1.4" stroke-linecap="round" stroke-linejoin="round"/>
<path d="M20 28.2144V32.5001" stroke="#2A343D" stroke-width="1.4" stroke-linecap="round" stroke-linejoin="round"/>
<path d="M10.4434 15.6428H29.5576" stroke="#2A343D" stroke-width="1.4" stroke-linecap="round" stroke-linejoin="round"/>
<path d="M28.1924 15.6428V20.7857C28.1924 21.8214 27.6066 22.7643 26.6852 23.2285L23.4852 24.8285C23.0209 25.0571 22.7281 25.5357 22.7281 26.05V26.5714C22.7281 27.3285 22.1138 27.9357 21.3638 27.9357H18.6352C17.8781 27.9357 17.2709 27.3214 17.2709 26.5714V26.05C17.2709 25.5357 16.9781 25.0571 16.5138 24.8285L13.3138 23.2285C12.3852 22.7643 11.8066 21.8214 11.8066 20.7857V15.6428H28.1924Z" stroke="#2A343D" stroke-width="1.4" stroke-linecap="round" stroke-linejoin="round"/>
</svg>
