<svg xmlns="http://www.w3.org/2000/svg" class="MuiSvgIcon-root MuiSvgIcon-fontSizeMedium css-iguwhy" focusable="false" aria-hidden="true" viewBox="0 0 24 24" data-testid="KmxSortStrokedIcon"><path d="M3.00001 6.28998C2.60789 6.28998 2.29001 6.60786 2.29001 6.99998C2.29001 7.3921 2.60789 7.70998 3.00001 7.70998H21C21.3921 7.70998 21.71 7.3921 21.71 6.99998C21.71 6.60786 21.3921 6.28998 21 6.28998H3.00001ZM2.29001 12C2.29001 11.6079 2.60789 11.29 3.00001 11.29H15C15.3921 11.29 15.71 11.6079 15.71 12C15.71 12.3921 15.3921 12.71 15 12.71H3.00001C2.60789 12.71 2.29001 12.3921 2.29001 12ZM2.29001 17C2.29001 16.6079 2.60789 16.29 3.00001 16.29H9.00001C9.39213 16.29 9.71001 16.6079 9.71001 17C9.71001 17.3921 9.39213 17.71 9.00001 17.71H3.00001C2.60789 17.71 2.29001 17.3921 2.29001 17Z" fill="currentColor" fill-rule="evenodd" clip-rule="evenodd"/></svg>