<svg class="header-footer-icon" width="40" height="40" viewBox="0 0 24 24" xmlns="http://www.w3.org/2000/svg" aria-hidden="true">
                        <path fill-rule="evenodd" clip-rule="evenodd" d="M7.29 7c0 2.6 2.11 4.71 4.71 4.71S16.71 9.6 16.71 7 14.6 2.29 12 2.29 7.29 4.4 7.29 7Zm1.42 0c0-1.81 1.48-3.29 3.29-3.29S15.29 5.19 15.29 7s-1.48 3.29-3.29 3.29S8.71 8.81 8.71 7ZM4.29 19c0 1.49 1.22 2.71 2.71 2.71h10c1.49 0 2.71-1.22 2.71-2.71v-1c0-2.6-2.11-4.71-4.71-4.71H9c-2.6 0-4.71 2.11-4.71 4.71v1Zm1.42-1c0-1.81 1.48-3.29 3.29-3.29h6c1.81 0 3.29 1.48 3.29 3.29v1c0 .71-.58 1.29-1.29 1.29H7c-.71 0-1.29-.58-1.29-1.29v-1Z"/>
                    </svg>