<svg xmlns="http://www.w3.org/2000/svg" width="16" height="16" viewBox="0 0 16 16" fill="none">
            <path d="M8.91678 8L14.8751 2.04166C15.1318 1.785 15.1318 1.3725 14.8751 1.125C14.6185 0.877495 14.206 0.868328 13.9585 1.125L8.00012 7.08333L2.04178 1.125C1.78512 0.868328 1.37262 0.868328 1.12512 1.125C0.877617 1.38166 0.868451 1.79416 1.12512 2.04166L7.08345 8L1.12512 13.9583C0.868451 14.215 0.868451 14.6275 1.12512 14.875C1.25345 15.0033 1.41845 15.0675 1.58345 15.0675C1.74845 15.0675 1.91345 15.0033 2.04178 14.875L8.00012 8.91666L13.9585 14.875C14.0868 15.0033 14.2518 15.0675 14.4168 15.0675C14.5818 15.0675 14.7468 15.0033 14.8751 14.875C15.1318 14.6183 15.1318 14.2058 14.8751 13.9583L8.91678 8Z" fill="#001333"/>
        </svg>