<svg width="160" height="70" viewBox="0 0 160 70" fill="none" xmlns="http://www.w3.org/2000/svg">
<path d="M37.8414 57.9583L25.3564 56.1949C23.8607 55.999 21.8449 54.2356 22.04 49.5331V45.092L24.0558 43.4592V35.6218C24.0558 35.6218 31.2738 34.7727 32.2492 34.5768C33.2245 34.3809 41.808 29.4172 46.2298 27.6538C53.5778 24.5841 61.576 23.2779 69.5093 23.8657C76.9873 23.5391 84.5304 24.3882 91.7483 26.4129C93.1138 26.7394 109.5 35.3605 109.5 35.3605C118.669 36.3402 127.578 38.9527 135.836 43.0673C138.047 44.4388 138.892 49.925 139.283 51.6231C138.697 53.8437 137.722 55.999 136.486 57.9583H125.367" fill="white"/>
<path d="M45.0058 32.6677C49.3859 30.4835 53.315 28.167 67.8721 28.167C75.2795 27.836 82.7513 28.6965 89.9011 30.7483C90.7385 30.9469 97.3085 34.3224 102.139 36.8376H38.0493C38.0493 36.7714 42.7514 33.8591 45.0058 32.6677Z" fill="#F2F3F5"/>
<ellipse cx="80.6551" cy="67.062" rx="47.7034" ry="2.54904" fill="#B3B8C2" fill-opacity="0.16"/>
<circle cx="46.7887" cy="56.5015" r="9.46785" fill="#F2F3F5"/>
<circle cx="46.4246" cy="56.1375" r="5.46222" fill="white"/>
<ellipse cx="115.249" cy="56.5015" rx="9.46786" ry="9.46785" fill="#F2F3F5"/>
<ellipse cx="114.885" cy="56.1375" rx="5.46222" ry="5.46222" fill="white"/>
<path fill-rule="evenodd" clip-rule="evenodd" d="M136.061 42.4382C138.272 43.8047 139.247 47.3837 139.962 51.0278V51.7436C140.027 51.9388 140.027 52.0689 139.962 52.2641C139.312 54.6068 138.337 56.8843 137.036 58.9016C136.841 59.2269 136.516 59.4221 136.126 59.4221H125.722C124.487 64.0423 120.325 67.4261 115.319 67.4261C110.377 67.4261 106.151 64.0423 104.915 59.4221H62.7158C62.1306 59.4221 61.6104 58.9016 61.6104 58.3159C61.6104 57.7302 62.1306 57.2097 62.7158 57.2097H104.525C104.525 57.0702 104.506 56.9494 104.489 56.8372C104.474 56.7401 104.46 56.6495 104.46 56.5589C104.46 56.1685 104.518 55.7782 104.576 55.3878L104.576 55.3876C104.605 55.1924 104.633 54.9972 104.655 54.802H57.8392C57.9692 55.3876 58.0342 55.9733 58.0342 56.5589C58.0342 62.5456 53.1576 67.4261 47.1755 67.4261C42.1038 67.4261 37.9424 63.9772 36.7069 59.292L24.8729 57.6652C22.7922 57.3398 20.3864 55.0623 20.5814 49.8564V45.4315C20.5814 45.1061 20.7115 44.7808 20.9716 44.5205L22.5971 43.219V35.9309C22.5971 35.3452 22.9873 34.8897 23.5725 34.8246C26.3684 34.4993 30.985 33.9136 31.6352 33.7835C32.0253 33.6533 33.976 32.6772 35.6666 31.7662C36.3046 31.447 36.9702 31.1102 37.6481 30.7671L37.6486 30.7669C40.4248 29.362 43.4074 27.8527 45.55 27.0159C52.9625 23.8924 61.2203 22.591 69.3481 23.1116C76.8256 22.7862 84.4332 23.6321 91.7807 25.7145C93.1462 26.1049 106.476 33.0026 109.597 34.6294C118.83 35.6055 127.738 38.2735 136.061 42.4382ZM132.94 45.1061L134.11 48.62H137.166C136.841 47.3837 136.386 46.0822 135.801 45.2363L135.628 45.2247C134.717 45.1637 133.857 45.1061 132.94 45.1061ZM26.1735 39.7051L26.2385 43.3492C25.8484 43.3492 25.3282 43.3492 24.808 43.2841V38.7941C25.2632 39.0544 25.7183 39.3146 26.1735 39.7051ZM38.5276 56.4938C38.5276 61.3092 42.4289 65.1485 47.1756 65.1485C51.9222 65.1485 55.8235 61.2441 55.8235 56.4938C55.8235 51.6784 51.9872 47.8392 47.1756 47.8392C42.3639 47.8392 38.5276 51.7435 38.5276 56.4938ZM57.5791 53.6306C56.3437 49.0104 52.1173 45.6267 47.1756 45.6267C41.1936 45.6267 36.3169 50.5071 36.3169 56.4938C36.3169 56.5589 36.3331 56.6402 36.3494 56.7216C36.3657 56.8029 36.3819 56.8842 36.3819 56.9493L25.1981 55.3876C24.2878 55.2574 22.6622 53.956 22.7923 49.8564V46.4075C24.0927 46.7329 26.4335 47.1233 30.725 47.1233H32.4156C32.7407 47.1233 32.9357 46.863 32.9357 46.5377C32.9357 46.2123 32.6756 46.0171 32.3505 46.0171C27.4739 46.1472 24.808 45.7568 23.4425 45.4965L24.4178 44.7156C24.4463 44.6586 24.4623 44.6015 24.4768 44.5499C24.4953 44.4839 24.5114 44.4268 24.5479 44.3903C24.938 44.4553 25.3932 44.5204 25.8483 44.5204C27.2138 44.5204 28.5142 44.2601 28.6443 43.3491C29.2295 40.3558 26.7586 38.4036 24.7429 37.5576V36.9069C25.1725 36.8532 25.7046 36.7883 26.2854 36.7176L26.2855 36.7176L26.2855 36.7176L26.2857 36.7175L26.286 36.7175C28.5186 36.4455 31.4713 36.0857 32.0904 35.9308C32.5456 35.8007 33.5859 35.2801 36.5769 33.7835L36.577 33.7834C39.568 32.2217 43.7294 30.1394 46.2653 29.0982C53.4177 26.1048 61.2854 24.8034 69.1531 25.389H71.2988C71.4289 25.9096 71.5589 26.6254 71.689 27.5364H68.4378C54.2671 27.5364 49.844 29.6826 45.5537 31.7644L45.55 31.7662L44.8348 32.0915C43.2499 32.8846 40.6216 34.4534 39.0289 35.404L39.0288 35.404L39.0287 35.4041L39.0287 35.4041C38.2693 35.8574 37.7453 36.1701 37.6824 36.1911C37.2272 36.4514 37.0321 36.972 37.1622 37.4275C37.2922 37.883 37.7474 38.2084 38.2025 38.2084H73.4446C74.0948 42.5032 74.68 47.1233 75.0051 50.9626C75.0051 51.288 75.2652 51.4832 75.5903 51.4832H75.6553C75.9804 51.4832 76.1755 51.2229 76.1755 50.8975C75.9154 47.1233 75.3302 42.5032 74.68 38.2084H87.0992C87.0992 38.5337 87.1642 38.794 87.4243 39.0543C87.6194 39.2495 87.9445 39.3797 88.2046 39.3797H91.7158C92.5611 39.3797 93.2763 38.8591 93.6665 38.2084H102.77L105.045 39.3797C105.175 39.4448 105.37 39.5098 105.566 39.5098C105.956 39.5098 106.346 39.3146 106.541 38.9242C106.801 38.4036 106.606 37.6878 106.086 37.4275L103.355 35.9959H103.29C101.534 35.0849 92.1709 30.3346 91.0005 30.0743C85.0835 28.3824 78.9714 27.5364 72.8594 27.4714C72.7293 26.6254 72.5993 25.9096 72.4692 25.324C78.7764 25.324 85.0185 26.1048 91.1306 27.8618C92.0795 28.1586 100.71 32.5697 106.956 35.7623L106.968 35.7682L106.993 35.7812L108.687 36.6466C108.817 36.7117 108.947 36.7768 109.077 36.7768C117.855 37.6878 126.308 40.1606 134.11 43.9348C132.615 43.8697 131.119 43.8697 129.689 44.0649C129.494 44.0649 129.234 44.13 129.104 44.3252C129.039 44.3903 128.908 44.5855 128.908 44.8458C128.908 46.0171 131.574 49.6612 133.005 49.6612H137.296C137.426 50.377 137.556 50.9626 137.686 51.4181L137.751 51.8086L137.751 51.8088C137.556 52.3944 137.361 52.9799 137.101 53.5655H125.657C124.422 48.9454 120.196 45.5616 115.254 45.5616C110.247 45.5616 106.086 48.9454 104.85 53.5655H57.5791V53.6306ZM91.7155 34.6295C92.6909 34.6295 93.5362 35.2152 93.9263 36.0611H98.4778C94.2514 33.9137 91.0003 32.352 90.4801 32.2218C84.8232 30.6601 79.1012 29.8141 73.3143 29.684C73.4937 30.7253 73.6731 31.8459 73.8634 33.0348L73.8636 33.0358L73.8638 33.0376L73.8639 33.0383L73.8641 33.0394L73.8644 33.0414C74.0187 34.005 74.1802 35.0136 74.3546 36.0611H87.294V35.6707C87.3591 35.085 87.8142 34.6295 88.3994 34.6295H91.7155ZM73.2495 36.0611H53.5478L54.7832 30.8553C57.9693 30.2045 62.2608 29.749 68.5679 29.749C69.3891 29.7058 70.1816 29.72 70.9835 29.7344C71.388 29.7417 71.7949 29.749 72.2092 29.749C72.4072 30.8588 72.6052 32.0893 72.8179 33.4111C72.9544 34.2594 73.097 35.1453 73.2495 36.0611ZM45.94 34.0438C45.0297 34.5644 43.6642 35.3453 42.4288 36.0611H52.3772L53.5476 31.1156C50.7271 31.7762 48.8481 32.6586 47.0417 33.5069C46.8909 33.5777 46.7405 33.6483 46.5902 33.7185L45.94 34.0438ZM115.319 65.1485C110.572 65.1485 106.671 61.3092 106.671 56.4938C106.671 51.7435 110.507 47.8392 115.319 47.8392C120.065 47.8392 123.967 51.6784 123.967 56.4938C123.967 61.2441 120.065 65.1485 115.319 65.1485ZM126.113 57.1445H135.541C135.996 56.3636 136.451 55.5828 136.776 54.7368H125.982C126.113 55.3225 126.178 55.9081 126.178 56.4938C126.178 56.6333 126.159 56.7541 126.142 56.8662C126.127 56.9633 126.113 57.0539 126.113 57.1445Z" fill="#001333"/>
<path d="M56.3892 41.2073H51.7546C51.4235 41.2073 51.1587 41.531 51.1587 41.9356C51.1587 42.3402 51.4235 42.6639 51.7546 42.6639H56.3892C56.7202 42.6639 56.9851 42.3402 56.9851 41.9356C56.9851 41.531 56.7202 41.2073 56.3892 41.2073Z" fill="#001333"/>
<path d="M81.8726 41.2073H77.2517C76.9168 41.2073 76.6489 41.531 76.6489 41.9356C76.6489 42.3402 76.9168 42.6639 77.2517 42.6639H81.8726C82.2074 42.6639 82.4753 42.3402 82.4753 41.9356C82.4753 41.531 82.2074 41.2073 81.8726 41.2073Z" fill="#001333"/>
<path d="M50.1399 52.4728C49.9539 52.6587 49.8919 53.0306 50.1399 53.2166C51.9372 55.138 51.8133 58.1752 49.8919 59.9727C48.9623 60.8405 47.7847 61.2743 46.4831 61.2124C45.1816 61.1504 44.004 60.5925 43.1983 59.6628C42.3306 58.733 41.8967 57.4934 41.9587 56.2537C42.0207 54.9521 42.5165 53.7744 43.5082 52.9687C44.4379 52.1009 45.5535 51.729 46.793 51.729C47.4128 51.729 47.9706 51.853 48.5904 52.1009C48.8383 52.1629 49.1482 52.0389 49.2722 51.791C49.3961 51.5431 49.2102 51.2331 48.9623 51.1092C48.2805 50.8612 47.5368 50.7373 46.855 50.6753C46.793 50.6753 46.793 50.6753 46.793 50.6753C45.3056 50.6753 43.942 51.2331 42.8264 52.2249C41.7108 53.2786 41.029 54.7042 40.9671 56.2537C40.9051 57.8033 41.4629 59.2909 42.5165 60.4686C43.5702 61.5842 44.9957 62.2661 46.5451 62.328C46.6071 62.328 46.6691 62.328 46.793 62.328C48.2805 62.328 49.644 61.7702 50.7596 60.7785C53.1148 58.6091 53.2388 54.8901 51.0695 52.5348C50.6977 52.2868 50.3878 52.2868 50.1399 52.4728Z" fill="#001333"/>
<path d="M110.151 56.5016C109.827 56.5678 109.422 56.7002 109.422 57.0313C109.422 57.4285 109.422 57.8258 109.422 58.1568C109.422 58.4878 109.746 58.6865 110.151 58.6865C110.151 58.6865 110.151 58.6865 110.232 58.6865C110.636 58.6865 110.879 58.4216 110.879 58.0906C110.879 57.7596 110.879 57.4285 110.879 57.0975C110.798 56.7664 110.555 56.5016 110.151 56.5016Z" fill="#001333"/>
<path d="M116.702 50.1401C115.199 49.749 113.57 49.9446 112.191 50.7918C110.813 51.6391 109.873 52.9426 109.435 54.572C109.372 54.8979 109.56 55.1586 109.81 55.2238C110.124 55.289 110.374 55.1586 110.437 54.8327C110.75 53.5292 111.565 52.4212 112.692 51.7695C113.82 51.1177 115.136 50.9222 116.389 51.2481C118.958 51.965 120.524 54.7676 119.835 57.4398C119.522 58.7433 118.707 59.8513 117.579 60.503C116.452 61.1548 115.136 61.3503 113.883 61.0244C112.88 60.7637 112.066 60.1771 111.377 59.395C111.189 59.1343 110.876 59.1343 110.625 59.3299C110.374 59.5254 110.374 59.8513 110.562 60.112C111.377 61.0896 112.379 61.8065 113.57 62.1324C114.071 62.2628 114.572 62.3279 115.073 62.3279C117.705 62.3279 120.086 60.503 120.837 57.7656C121.777 54.4417 119.835 51.0525 116.702 50.1401Z" fill="#001333"/>
</svg>
