<svg width="160" height="71" viewBox="0 0 160 71" fill="none" xmlns="http://www.w3.org/2000/svg">
<path d="M26.9643 54.7761C26.9643 54.7761 17.5817 53.3184 16.5303 49.1073C16.2876 47.4067 16.8538 45.7871 18.067 44.6533V30.8054C18.067 30.8054 22.8392 21.8164 24.8613 18.901C23.9716 18.4151 23.4054 17.5243 23.4054 16.5525C23.4054 14.8519 26.6407 15.0139 28.0966 14.8519C29.5526 14.7709 78.8917 13.4752 82.4506 13.4752C86.0095 13.4752 95.8773 15.0949 109.547 26.9182C109.547 26.9182 132.194 31.5342 136.481 32.9919C140.687 34.3686 148.29 41.2521 141.091 54.7761H130.01" fill="white"/>
<ellipse cx="78.7954" cy="67.3138" rx="56.4199" ry="2.95006" fill="#B3B8C2" fill-opacity="0.16"/>
<circle cx="37.4945" cy="55.1445" r="11.4315" fill="#F2F3F5"/>
<circle cx="38.6005" cy="54.0384" r="6.63764" fill="white"/>
<path d="M32.4546 56.5787C32.1268 55.7593 31.9629 54.9398 31.9629 54.0384C31.9629 50.4328 34.913 47.4008 38.6005 47.4008C42.2062 47.4008 45.2382 50.3508 45.2382 54.0384C45.2382 57.726 42.2881 60.676 38.6005 60.676C37.1255 60.676 35.6505 60.1844 34.5032 59.283" fill="white"/>
<ellipse cx="117.884" cy="55.1445" rx="11.4315" ry="11.4315" fill="#F2F3F5"/>
<ellipse cx="118.252" cy="54.0384" rx="6.63764" ry="6.63764" fill="white"/>
<path d="M19.4248 28.2254H102.027C96.3689 22.8169 89.1756 19.4572 81.4165 18.6377H35.5087" fill="#F2F3F5"/>
<path d="M124.89 54.0384C124.89 57.726 121.94 60.676 118.252 60.676C114.565 60.676 111.615 57.726 111.615 54.0384C111.615 50.3508 114.565 47.4008 118.252 47.4008C118.334 47.4008 118.334 47.4008 118.416 47.4008C119.318 47.4008 120.219 47.5646 121.039 47.9744" fill="white"/>
<path d="M123.489 51.0884C123.71 51.5493 123.931 52.1025 124.079 52.5634L123.489 51.0884Z" fill="white"/>
<path fill-rule="evenodd" clip-rule="evenodd" d="M143.85 38.9684C142.236 34.8381 138.766 32.4086 136.345 31.5987C132.31 30.2219 112.62 26.1726 109.714 25.6057C95.1079 12.9718 84.8592 12 82.0348 12C78.8068 12 29.5808 13.2148 27.7247 13.3768H27.0791C25.223 13.4578 21.8337 13.6197 21.8337 16.3733C21.8337 17.3451 22.2372 18.2359 22.8828 18.9648C21.4654 21.2829 19.365 25.1089 18.0034 27.5891L18.0034 27.5892L18.0033 27.5893L18.0033 27.5893C17.2718 28.9217 16.7536 29.8658 16.669 29.979C16.5883 30.1409 16.5883 30.3839 16.5883 30.6269V43.9086C15.3778 45.2854 14.8129 47.229 15.055 49.2537C16.1041 53.465 22.9635 55.2467 25.5458 55.7326C26.1107 62.2115 31.5175 67.3137 38.1348 67.3137C45.1556 67.3137 50.8045 61.5636 50.8045 54.5988C50.8045 53.222 50.5624 52.0072 50.1589 50.7924H103.016C103.339 50.7924 103.662 50.5495 103.662 50.2255C104.065 46.8241 106.002 43.7466 108.988 41.9649C109.311 41.803 109.392 41.398 109.23 41.0741C109.069 40.7501 108.665 40.6692 108.342 40.8311C105.195 42.6938 103.097 45.9333 102.451 49.4967H49.7554C47.8186 45.0424 43.2995 41.884 38.1348 41.884C33.0508 41.884 28.6124 44.9614 26.6756 49.3347C23.6091 48.9298 20.8653 47.31 19.09 44.7185C19.09 44.678 19.1101 44.6375 19.1303 44.597C19.1505 44.5565 19.1707 44.516 19.1707 44.4755V39.1304C22.0758 37.5107 25.0616 36.2959 28.3703 35.729C28.6124 35.729 28.7738 35.567 28.8545 35.3241C28.9352 35.0811 28.9352 34.9191 28.7738 34.6762L27.2405 32.5705C27.0791 32.4086 26.9177 32.3276 26.6756 32.3276H19.1707V31.0318C19.2752 30.7694 19.4815 30.4049 19.7455 29.9385C19.8889 29.6851 20.0493 29.4017 20.2197 29.0881H69.93C70.737 35.2431 71.3019 41.398 71.6247 47.634C71.6247 47.9579 71.9475 48.2819 72.2703 48.2819C72.5931 48.2819 72.9158 47.9579 72.9158 47.634C72.5931 41.479 72.0282 35.3241 71.2212 29.1691H84.7785V29.574C84.7785 30.3029 85.3434 30.8698 86.0697 30.8698H89.9432C90.6695 30.8698 91.3958 30.5459 91.88 30.0599C92.1221 29.817 92.3642 29.493 92.4449 29.1691H101.322L104.469 31.4367C104.711 31.5987 104.953 31.6797 105.276 31.6797C105.679 31.6797 106.083 31.5177 106.325 31.1128C106.729 30.5459 106.648 29.736 106.083 29.2501L103.258 27.1444C103.218 27.1039 103.198 27.0432 103.178 26.9825C103.158 26.9217 103.137 26.861 103.097 26.8205C97.2868 21.3134 89.7011 17.831 81.6313 17.0212H69.5265C69.3811 16.4374 69.3012 15.7879 69.2278 15.1912L69.2037 14.9965C75.9017 14.7535 81.1471 14.5916 82.0348 14.5916C84.6171 14.5916 94.2202 15.5634 108.262 27.7113C108.385 27.8351 108.555 27.9116 108.701 27.9769C108.746 27.9971 108.789 28.0162 108.827 28.0353C108.874 28.0511 109.764 28.2366 111.196 28.5352C117.1 29.7664 132.226 32.9202 135.538 34.0283C135.941 34.1903 136.345 34.3522 136.748 34.5952H131.261C130.05 34.5952 128.033 34.5952 128.033 36.7818C128.033 39.2924 137.878 41.803 138.04 41.803C138.927 41.884 139.815 41.884 140.703 41.884C141.106 41.884 141.51 41.884 141.913 41.803C142.559 45.1234 141.832 49.0107 139.734 53.222H130.454C129.808 46.8241 124.482 41.803 117.865 41.803C111.328 41.803 106.002 46.8241 105.276 53.222H55.485C54.7587 53.222 54.1938 53.7889 54.1938 54.5178C54.1938 55.2467 54.7587 55.8136 55.485 55.8136H105.357C106.002 62.2115 111.328 67.2327 117.946 67.2327C124.482 67.2327 129.808 62.2115 130.535 55.8136H140.622C141.106 55.8136 141.51 55.5706 141.752 55.1657C145.787 47.553 145.06 42.1269 143.85 38.9684ZM38.1349 44.4756C43.7031 44.4756 48.2222 49.0108 48.2222 54.5989C48.2222 60.1869 43.7031 64.7222 38.1349 64.7222C32.5667 64.7222 28.0476 60.1869 28.0476 54.5989C28.0476 49.0108 32.5667 44.4756 38.1349 44.4756ZM25.6266 53.0601C25.7073 52.2503 25.9494 51.3594 26.1915 50.5495C23.0443 50.0636 20.3005 48.4439 18.4444 45.8523C17.8795 46.6622 17.4761 47.634 17.6375 48.6869C18.1216 50.7925 22.3987 52.3312 25.6266 53.0601ZM22.5599 33.5425L22.7213 35.8911C21.5108 36.377 20.3004 36.9439 19.0899 37.5918V33.5425H22.5599ZM44.1066 19.6127L42.4926 26.4155V26.4965H69.6073C69.2845 24.1479 68.9618 21.8803 68.5583 19.6127H44.1066ZM81.3085 19.5316C87.5223 20.1795 93.494 22.6091 98.4166 26.4155H92.4449C91.9607 25.5246 91.0731 24.8767 90.024 24.8767H86.1504C85.4242 24.8767 84.8593 25.4436 84.8593 26.1725V26.4155H70.8984C70.5756 24.1479 70.2528 21.8802 69.8493 19.5316H81.3085ZM35.5524 16.9401H67.9931L67.9798 16.8321C67.903 16.212 67.8184 15.5276 67.5897 14.9155C63.6758 15.0167 59.3079 15.1281 54.9401 15.2394C41.8367 15.5735 28.7333 15.9075 27.886 15.9683H27.2404C27.0979 15.9862 26.8963 16.0041 26.6653 16.0245C25.8499 16.0969 24.6675 16.2018 24.416 16.4542C24.416 16.7782 24.6581 17.1021 24.9809 17.3451H30.1456C30.8718 17.3451 31.4367 17.912 31.4367 18.6408C31.4367 19.3697 30.8718 19.9366 30.1456 19.9366H25.3843C24.416 21.4754 22.9634 23.9859 21.6722 26.3345H41.1205L42.7345 19.5317H35.5524C34.8261 19.5317 34.2612 18.9648 34.2612 18.2359C34.2612 17.507 34.8261 16.9401 35.5524 16.9401ZM117.865 64.7222C112.297 64.7222 107.778 60.1869 107.778 54.5989C107.778 49.0108 112.297 44.4756 117.865 44.4756C123.433 44.4756 127.952 49.0108 127.952 54.5989C127.952 60.1869 123.433 64.7222 117.865 64.7222ZM137.314 40.3451C137.636 40.4261 137.959 40.5071 138.201 40.5881C138.901 40.6421 139.672 40.6241 140.443 40.6061C140.828 40.5971 141.214 40.5881 141.591 40.5881C141.554 40.4767 141.534 40.3652 141.515 40.2616C141.493 40.1393 141.473 40.0279 141.429 39.9402C140.703 38.1585 139.734 36.8627 138.605 35.8909H133.359L137.314 40.3451Z" fill="#001333"/>
<path d="M31.6905 56.8557C31.8557 57.1872 32.186 57.3529 32.5162 57.27C32.8465 57.1043 33.0117 56.7728 32.9291 56.4414C32.5988 55.6956 32.5162 54.9498 32.5162 54.1211C32.5162 50.8064 35.2411 48.0718 38.544 48.0718C41.8468 48.0718 44.5717 50.8064 44.5717 54.1211C44.5717 57.4358 41.8468 60.1704 38.544 60.1704C37.2228 60.1704 35.9017 59.6732 34.8282 58.8445C34.5805 58.5959 34.1677 58.6788 33.92 58.9274C33.6722 59.176 33.7548 59.5903 34.0025 59.8389C35.2411 60.8333 36.8925 61.4134 38.544 61.4134C38.544 61.4134 38.544 61.4134 38.6265 61.4134C42.6725 61.4134 45.9754 58.0987 45.9754 54.0382C45.9754 49.9778 42.6725 46.6631 38.6265 46.6631C34.5805 46.6631 31.2777 49.9778 31.2777 54.0382C31.1125 55.0326 31.3602 55.9442 31.6905 56.8557Z" fill="#001333"/>
<path d="M59.907 32.6504C59.5792 32.6504 59.2515 33.0191 59.2515 33.3879C59.2515 33.7567 59.5792 34.1254 59.907 34.1254H65.2335C65.5613 34.1254 65.8891 33.7567 65.8891 33.3879C65.8891 33.0191 65.6433 32.6504 65.2335 32.6504H59.907Z" fill="#001333"/>
<path d="M76.1321 32.6504C75.8043 32.6504 75.4766 33.0191 75.4766 33.3879C75.4766 33.7567 75.8043 34.1254 76.1321 34.1254H81.4586C81.7864 34.1254 82.1142 33.7567 82.1142 33.3879C82.1142 33.0191 81.8684 32.6504 81.4586 32.6504H76.1321Z" fill="#001333"/>
<path d="M124.964 53.4582C124.633 53.4582 124.301 53.7896 124.301 54.1211C124.301 57.4358 121.567 60.1704 118.252 60.1704C116.595 60.1704 115.103 59.5075 113.943 58.4302C112.783 57.27 112.203 55.7784 112.203 54.1211C112.203 50.8064 114.937 48.0718 118.418 48.0718C119.247 48.0718 120.075 48.2376 120.821 48.569C121.152 48.7348 121.567 48.569 121.733 48.2376C121.898 47.9061 121.733 47.4918 121.401 47.326C120.49 46.9117 119.495 46.6631 118.252 46.6631C114.192 46.6631 110.877 49.9778 110.877 54.0382C110.877 56.027 111.623 57.8501 113.031 59.2589C114.44 60.6676 116.263 61.4134 118.252 61.4134C122.313 61.4134 125.627 58.0987 125.627 54.0382C125.627 53.7896 125.296 53.4582 124.964 53.4582Z" fill="#001333"/>
<path d="M123.57 52.8539C123.659 53.1221 123.927 53.3009 124.195 53.3009C124.284 53.3009 124.373 53.3009 124.463 53.2115C124.82 53.0327 124.998 52.5857 124.82 52.2281C124.552 51.6918 124.284 51.1554 124.016 50.7084C123.838 50.3508 123.391 50.2614 123.034 50.4402C122.677 50.619 122.588 51.066 122.767 51.4236C123.124 51.96 123.391 52.4069 123.57 52.8539Z" fill="#001333"/>
</svg>
