<svg width="160" height="71" viewBox="0 0 160 71" fill="none" xmlns="http://www.w3.org/2000/svg">
<path d="M34.726 59.2917C34.726 59.2917 26.9922 57.9387 25.5804 57.3851C24.2301 56.6471 23.0639 55.7246 22.0818 54.556C21.9591 53.941 21.9591 53.326 22.0818 52.7109C21.6522 50.1893 21.3453 47.6677 21.1611 45.0846C21.4067 43.793 22.0818 42.6245 23.1253 41.825C23.6163 40.9024 23.9232 39.8569 23.9232 38.7498C23.9846 38.1348 24.4142 37.7043 25.028 37.6428C29.6315 36.7202 34.2963 36.1052 39.0225 35.7362C41.846 35.7362 44.6694 35.9822 47.4929 36.3512C50.746 36.7817 55.6563 38.0118 57.1908 38.0733C64.4336 38.4423 82.1108 38.6883 86.4687 38.5038L75.5432 30.0779C74.9294 29.5859 74.7453 28.7249 75.0522 27.9868C75.5432 27.4333 76.3412 27.1873 77.0163 27.5563C77.6301 27.5563 94.2025 37.2738 94.2025 37.2738C94.2025 37.2738 112.248 38.3193 115.501 38.6883C118.754 39.0573 132.319 42.3785 138.334 48.8363C139.009 49.5128 137.72 50.9274 137.72 50.9274C137.905 53.08 137.905 55.2325 137.72 57.3851C137.536 58.1232 137.352 58.8612 137.045 59.5992C133.792 59.9068 130.478 59.9068 127.225 59.5992" fill="white"/>
<ellipse cx="80.5357" cy="67.7696" rx="51.7803" ry="2.41642" fill="#B3B8C2" fill-opacity="0.16"/>
<circle cx="43.9445" cy="57.0683" r="9.66566" fill="#F2F3F5"/>
<circle cx="43.9446" cy="57.0683" r="5.52324" fill="white"/>
<path d="M38.8428 58.6494C38.602 57.9872 38.4214 57.325 38.4214 56.6629C38.4214 53.7735 40.7693 51.486 43.659 51.5462C46.5488 51.5462 48.8365 53.8939 48.7763 56.7833C48.7763 59.6727 46.4284 61.9601 43.5386 61.9C42.3948 61.9 41.2509 61.4786 40.3479 60.7562" fill="white"/>
<circle cx="118.508" cy="57.0683" r="9.66566" fill="#F2F3F5"/>
<circle cx="117.818" cy="57.0683" r="5.52324" fill="white"/>
<path d="M116.057 51.8932C118.821 50.8351 121.953 52.2667 122.997 55.1298C124.041 57.9308 122.629 61.1051 119.804 62.1633C119.619 62.2255 119.435 62.2878 119.251 62.35C116.425 63.2214 113.416 61.6653 112.556 58.8022C112.372 58.0553 112.249 57.3083 112.31 56.5614" fill="white"/>
<path d="M99.1768 40.4985C99.1768 40.4985 77.0701 27.7804 76.4509 27.531C75.7697 27.2193 74.9647 27.4063 74.4693 27.9674C74.1597 28.7156 74.3455 29.5884 74.9647 30.0871L85.8633 38.7529H96.0807" fill="#F2F3F5"/>
<path d="M59.1332 38.3715C59.1332 35.9442 58.942 33.5169 58.6233 31.0896C58.1772 29.8759 57.0301 29.9366 56.6477 30.6648C56.2653 31.4537 54.9907 37.6433 54.9907 37.6433C54.9907 37.6433 55.1819 38.6749 59.1332 38.3715Z" fill="white"/>
<path fill-rule="evenodd" clip-rule="evenodd" d="M115.168 37.2507C118.599 37.6172 132.506 41.0377 138.694 47.6954C139.613 48.6116 139.184 49.8943 138.51 50.8716C138.632 52.9483 138.632 55.025 138.449 57.0407C138.204 57.9569 137.958 58.812 137.652 59.5449C137.53 59.9114 137.162 60.1558 136.733 60.2168C135.079 60.4001 133.364 60.4612 131.71 60.4612C130.362 60.4612 129.075 60.4001 127.789 60.2779C126.38 64.4314 122.459 67.4243 117.864 67.4243C113.575 67.4243 109.9 64.8589 108.245 61.1941H58.4378C57.7639 61.1941 57.2738 60.6444 57.2738 60.0336C57.2738 59.3617 57.8252 58.8731 58.4378 58.8731H107.572C107.449 58.2012 107.388 57.5293 107.388 56.8574V56.552H54.2106V56.8574C54.2106 62.66 49.4933 67.3632 43.6732 67.3632C38.8946 67.3632 34.9125 64.126 33.6259 59.7893C33.4407 59.7546 33.2243 59.7146 32.9831 59.6699L32.9825 59.6698C30.6714 59.2418 26.0913 58.3935 24.9264 57.8958C23.3948 57.1017 22.1083 56.1245 21.0056 54.8418C20.883 54.7196 20.8218 54.5364 20.7605 54.3531C20.5767 53.6202 20.5767 52.9483 20.6992 52.2764C20.2704 49.7721 19.9641 47.2679 19.7803 44.7636V44.4582C20.0866 42.9923 20.883 41.7096 21.9858 40.7323C22.3534 39.9993 22.5372 39.2053 22.5372 38.4112C22.5984 37.1896 23.5174 36.2734 24.6814 36.2124C29.1537 35.3572 33.871 34.6854 38.5883 34.3189C41.5902 34.38 44.4697 34.5632 47.2878 34.9908C48.8807 35.2351 50.8411 35.6016 52.679 35.968C53.0466 36.0902 53.4142 36.1513 53.7818 36.2124C54.2106 34.0746 54.9458 30.4098 55.3134 29.6768C55.681 28.8828 56.4161 28.4552 57.2738 28.4552C57.4576 28.4552 57.6414 28.5583 57.8252 28.6613C57.8865 28.6957 57.9477 28.7301 58.009 28.7606C58.5604 28.6384 59.2955 28.6995 60.1532 29.3103C61.4398 30.2265 61.3785 33.1584 61.0722 35.6016L61.9912 36.8842C66.4022 37.0512 71.831 37.1168 76.5152 37.1733L77.8585 37.1896V37.0064C77.8585 36.3345 78.4099 35.8459 79.0225 35.8459H81.0443L74.489 30.7152C73.4475 29.86 73.1412 28.5163 73.6313 27.2947C73.6619 27.2641 73.6926 27.2183 73.7232 27.1725C73.7538 27.1267 73.7845 27.0809 73.8151 27.0503C74.6115 26.0731 75.9593 25.7066 77.1234 26.2563C77.1612 26.2563 77.1991 26.2796 77.2514 26.3119C77.2837 26.3318 77.3216 26.3551 77.3684 26.3785C78.5937 26.9282 82.147 28.8217 94.0935 35.8459C96.4828 35.968 112.105 36.8842 115.168 37.2507ZM130.239 45.1912L130.301 46.4128C130.423 46.4943 130.539 46.5757 130.654 46.6571C130.886 46.82 131.117 46.9829 131.403 47.1458C132.2 47.0236 132.935 46.7793 133.609 46.4739C133.432 46.3619 133.251 46.2456 133.067 46.1274C132.55 45.7944 132.007 45.4457 131.465 45.1301C131.097 45.1301 130.668 45.1301 130.239 45.1912ZM76.2044 28.3332C76.8171 28.6386 84.4751 32.9753 91.888 37.1898H86.3742L75.9594 28.944C75.7756 28.7607 75.7143 28.5775 75.7143 28.3332C75.8368 28.2721 76.0206 28.2721 76.2044 28.3332ZM57.7026 36.8232C57.6414 34.9297 57.5188 33.0973 57.2738 31.2649C56.9674 32.3033 56.4773 34.5022 56.1098 36.64C56.4161 36.701 56.7224 36.7621 56.9062 36.7621C57.1512 36.8232 57.4576 36.8232 57.7026 36.8232ZM26.5805 42.4425H23.6398C23.6715 42.411 23.7031 42.3835 23.7337 42.3569C23.8216 42.2806 23.9007 42.2119 23.9462 42.076C24.1299 41.7096 24.2525 41.3431 24.375 40.9766C25.1102 41.0988 25.9066 41.282 26.6418 41.5263V42.4425H26.5805ZM22.966 53.6814C23.7625 54.5976 24.804 55.3916 25.9067 55.9413C26.6419 56.2467 30.3177 56.9797 33.2584 57.4683C33.2584 57.3767 33.2431 57.2851 33.2278 57.1935C33.2124 57.1019 33.1971 57.0102 33.1971 56.9186C33.1971 56.5521 33.2516 56.1857 33.306 55.8192C33.3333 55.6359 33.3605 55.4527 33.3809 55.2695C29.8276 54.7197 26.3968 53.8646 23.0273 52.643L23.0141 52.7215C22.9578 53.0539 22.9092 53.3413 22.966 53.6814ZM43.6731 65.1645C39.1396 65.1645 35.4025 61.4997 35.4025 56.9187C35.4025 52.3377 39.0783 48.6728 43.6731 48.6728C48.2679 48.6728 51.9438 52.3377 51.9438 56.9187C51.9438 61.4997 48.2067 65.1645 43.6731 65.1645ZM33.5647 54.231C34.79 49.7722 38.8334 46.4739 43.6733 46.4739C49.0032 46.4739 53.353 50.4441 54.0881 55.3916H92.7457C92.9908 53.3148 93.7872 45.6188 93.7872 43.1756C93.6647 41.7707 93.052 40.488 92.1943 39.3275H86.0067C85.6391 39.3886 85.0877 39.3886 84.4751 39.3886C84.0462 40.1216 83.2498 40.6713 82.3308 40.6713H78.9613C78.2874 40.6713 77.7973 40.1216 77.7973 39.5107V39.3886C71.1808 39.3275 62.6038 39.2053 57.6414 38.961H57.5189H57.2739H56.6612H56.4162C55.8648 39.5718 55.2521 40.488 55.3134 41.221C55.8648 45.1301 57.5189 48.7949 60.0307 51.8489C60.2145 52.0932 60.2145 52.4597 59.9695 52.643C59.8469 52.704 59.7244 52.7651 59.6019 52.7651C59.4794 52.7651 59.2956 52.704 59.173 52.5819C56.4774 49.4057 54.762 45.4966 54.2107 41.4042C54.0881 40.427 54.5782 39.5107 55.1296 38.7778C54.3332 38.6556 53.353 38.4724 52.2502 38.2281C50.4736 37.8616 48.5131 37.4951 46.9815 37.2508C44.2246 36.8843 41.4678 36.64 38.7109 36.64C34.1773 37.0065 29.5213 37.6783 24.9877 38.5335C24.9368 38.9395 24.8436 39.3034 24.7433 39.6951L24.7432 39.6953C24.7228 39.775 24.7021 39.8558 24.6814 39.9383C26.3968 40.2437 28.0509 40.7324 29.5213 41.5875C29.7051 41.7096 29.8276 41.8929 29.8276 42.0761C29.8276 42.2594 29.7663 42.4426 29.5825 42.5648L28.0509 43.542C27.9284 43.6031 27.8672 43.6031 27.7446 43.6031H22.6597C22.4147 43.9696 22.2309 44.4582 22.1083 44.8858C22.2309 47.0847 22.5372 49.2836 22.9048 51.4824C26.3356 52.7651 29.8889 53.6813 33.5647 54.231ZM117.864 65.1645C113.33 65.1645 109.593 61.4997 109.593 56.9187C109.593 52.3377 113.269 48.6728 117.864 48.6728C122.459 48.6728 126.134 52.3377 126.134 56.9187C126.134 57.4073 126.073 57.8959 126.012 58.3846C125.889 58.5678 125.767 58.7511 125.706 58.9954C125.706 59.0669 125.727 59.1175 125.744 59.1595C125.756 59.1891 125.767 59.2144 125.767 59.2397C124.725 62.6602 121.601 65.1645 117.864 65.1645ZM136.121 50.6274C136.121 50.322 136.243 50.0166 136.427 49.7722C136.611 49.589 136.794 49.2836 136.856 49.1004C136.243 48.4285 135.447 47.8177 134.65 47.2069C133.609 47.7566 132.506 48.1842 131.342 48.3063H131.281C131.158 48.3063 131.036 48.3063 130.974 48.2452C129.565 47.4512 128.217 46.4739 126.992 45.4355C126.808 45.3134 126.747 45.0691 126.808 44.8858C126.87 44.7026 127.053 44.5193 127.237 44.4583C127.972 44.275 128.646 44.1529 129.381 44.0918C123.5 41.2821 116.945 39.7551 114.923 39.5108C113.422 39.3397 108.737 39.0488 104.148 38.764C102.184 38.6421 100.237 38.5212 98.5657 38.4113C98.7495 38.503 98.9333 38.6098 99.1171 38.7167C99.3009 38.8236 99.4847 38.9305 99.6685 39.0221C100.22 39.3275 100.404 39.9994 100.097 40.5491C99.9135 40.9156 99.4847 41.0989 99.1171 41.0989C98.9333 41.0989 98.7495 41.0989 98.5657 40.9767C98.2588 40.8019 97.9441 40.627 97.6243 40.4494C97.0504 40.1306 96.4602 39.8027 95.8701 39.4497H93.7259C94.3998 40.6102 94.8286 41.954 94.9511 43.2977C94.9511 45.802 94.1547 53.3149 93.9096 55.5138H107.51C108.184 50.4441 112.534 46.4739 117.864 46.4739C123.133 46.4739 127.482 50.383 128.217 55.5138H132.69C132.996 55.5138 133.241 55.7581 133.241 56.0635C133.241 56.3689 132.996 56.6132 132.69 56.6132H128.401V56.9186C128.401 57.2851 128.34 57.6516 128.279 58.018C130.729 58.2013 133.241 58.2624 135.753 58.018C135.875 57.5905 135.998 57.1629 136.121 56.6743C136.304 54.7808 136.304 52.7041 136.121 50.6274Z" fill="#001333"/>
<path d="M43.6296 50.8546C40.3731 50.8546 37.731 53.4221 37.731 56.6619C37.731 57.4566 37.8538 58.1902 38.1611 58.9237C38.284 59.2294 38.5912 59.3516 38.8984 59.2294C39.2056 59.1071 39.3285 58.8015 39.2056 58.4958C38.9598 57.9456 38.837 57.3343 38.837 56.6619C38.837 54.0945 40.9875 52.0161 43.5681 52.0161C43.5681 52.0161 43.5681 52.0161 43.6296 52.0161C46.2102 52.0161 48.3608 54.1556 48.2993 56.7842C48.2993 58.0679 47.8078 59.2294 46.8861 60.0852C45.9645 60.941 44.8585 61.43 43.5067 61.43C42.4622 61.43 41.4176 61.0633 40.6188 60.3908C40.3731 60.2074 40.0044 60.2686 39.8201 60.5131C39.6357 60.7576 39.6972 61.1244 39.9429 61.3078C40.9875 62.1025 42.2164 62.5304 43.5067 62.5915H43.5681C45.1043 62.5915 46.5789 61.9802 47.6849 60.941C48.7909 59.8407 49.4053 58.3736 49.4668 56.8453C49.5282 53.5443 46.8861 50.8546 43.6296 50.8546Z" fill="#001333"/>
<path d="M115.778 51.2459C115.463 51.3719 115.337 51.687 115.463 52.002C115.589 52.3171 115.903 52.4432 116.218 52.3171C118.797 51.3719 121.627 52.6952 122.57 55.2159C123.514 57.7365 122.193 60.6352 119.677 61.5805C119.488 61.6435 119.3 61.7065 119.111 61.7695C117.853 62.1476 116.532 62.0846 115.4 61.4544C114.268 60.8243 113.388 59.879 113.01 58.6187C112.822 57.9255 112.759 57.2324 112.822 56.5392C112.822 56.2241 112.633 55.909 112.256 55.909H112.193C111.878 55.909 111.627 56.1611 111.627 56.4762C111.564 57.3584 111.627 58.1776 111.878 58.9968V59.0598C112.381 60.5722 113.451 61.8955 114.834 62.5887C115.715 63.0298 116.658 63.2819 117.602 63.2819C118.231 63.2819 118.797 63.2189 119.426 63.0298C119.614 62.9668 119.866 62.9038 120.054 62.8408C123.199 61.6435 124.834 58.1146 123.639 54.9638C122.507 51.687 118.922 50.0486 115.778 51.2459Z" fill="#001333"/>
<path d="M63.4316 41.189H58.9774C58.6804 41.189 58.4429 41.4958 58.4429 41.8794C58.4429 42.2629 58.6804 42.5698 58.9774 42.5698H63.4316C63.7285 42.5698 63.9661 42.2629 63.9661 41.8794C63.9661 41.4958 63.7285 41.189 63.4316 41.189Z" fill="#001333"/>
</svg>
