<svg xmlns="http://www.w3.org/2000/svg" width="30" height="22" viewBox="0 0 40 28" fill="none">
                    <path d="M39.1669 4.37213C38.706 2.65003 37.3526 1.29672 35.6306 0.835741C32.5091 -0.000610352 20 -0.000610352 20 -0.000610352C20 -0.000610352 7.49094 -0.000610352 4.37274 0.835741C2.65064 1.29672 1.29733 2.65003 0.836352 4.37213C0 7.49033 0 14 0 14C0 14 0 20.5098 0.836352 23.628C1.29733 25.3501 2.65064 26.7034 4.37274 27.1643C7.49094 28.0007 20 28.0007 20 28.0007C20 28.0007 32.5091 28.0007 35.6273 27.1643C37.3494 26.7034 38.7027 25.3501 39.1636 23.628C40 20.5098 40 14 40 14C40 14 40 7.49033 39.1636 4.37213H39.1669ZM15.9993 19.9994V8.0007L26.3912 14L15.9993 19.9994Z" fill="#FF0000"/>
                </svg>