<svg class="header-footer-icon header-footer-icon--priority" width="40px" height="40px" viewBox="8 8 24 24" xmlns="http://www.w3.org/2000/svg" aria-hidden="true">
                    <path d="M20 28.64c-.27 0-.54-.04-.79-.13-4.22-1.41-8.92-6.48-8.92-11.51 0-3.68 2.32-5.44 4.3-5.82 1.82-.35 4.03.27 5.41 2.3 1.37-2.03 3.59-2.65 5.41-2.3 1.99.38 4.3 2.14 4.3 5.82 0 5.02-4.7 10.1-8.92 11.51-.26.09-.52.13-.79.13Zm-4.44-16.13c-.24 0-.47.02-.7.07-1.52.29-3.15 1.61-3.15 4.42 0 4.29 4.2 8.91 7.95 10.16.22.07.46.07.68 0 3.75-1.25 7.95-5.87 7.95-10.16 0-2.81-1.63-4.13-3.15-4.42-1.57-.3-3.57.41-4.48 2.69-.22.54-1.1.54-1.32 0-.78-1.95-2.36-2.75-3.78-2.75v-.01Z"/>
                  </svg>