<svg xmlns="http://www.w3.org/2000/svg" width="23" height="16" viewBox="0 0 23 16" fill="none">
    <path d="M19.5 0.290039H3.50004C2.01004 0.290039 0.790039 1.51004 0.790039 3.00004V13C0.790039 14.49 2.01004 15.71 3.50004 15.71H19.5C20.99 15.71 22.21 14.49 22.21 13V3.00004C22.21 1.51004 20.99 0.290039 19.5 0.290039ZM5.50004 5.29004H9.50004C9.89004 5.29004 10.21 5.61004 10.21 6.00004C10.21 6.39004 9.89004 6.71004 9.50004 6.71004H5.50004C5.11004 6.71004 4.79004 6.39004 4.79004 6.00004C4.79004 5.61004 5.11004 5.29004 5.50004 5.29004ZM10.5 10.71H5.50004C5.11004 10.71 4.79004 10.39 4.79004 10C4.79004 9.61004 5.11004 9.29004 5.50004 9.29004H10.5C10.89 9.29004 11.21 9.61004 11.21 10C11.21 10.39 10.89 10.71 10.5 10.71ZM16.71 11.17V11.5C16.71 11.89 16.39 12.21 16 12.21C15.61 12.21 15.29 11.89 15.29 11.5V11.17C14.53 11.01 13.92 10.39 13.81 9.60004C13.76 9.21004 14.03 8.85004 14.42 8.80004C14.82 8.74004 15.17 9.02004 15.22 9.41004C15.25 9.63004 15.44 9.80004 15.67 9.80004H16.35C16.6 9.80004 16.8 9.60004 16.8 9.35004C16.8 9.15004 16.68 8.98004 16.49 8.92004L15.08 8.45004C14.31 8.19004 13.8 7.48004 13.8 6.67004C13.8 5.77004 14.45 5.01004 15.3 4.84004V4.51004C15.3 4.12004 15.62 3.80004 16.01 3.80004C16.4 3.80004 16.72 4.12004 16.72 4.51004V4.84004C17.48 5.00004 18.09 5.62004 18.2 6.41004C18.25 6.80004 17.98 7.16004 17.59 7.21004C17.2 7.27004 16.84 6.99004 16.79 6.60004C16.76 6.38004 16.57 6.21004 16.34 6.21004H15.66C15.41 6.21004 15.21 6.41004 15.21 6.66004C15.21 6.86004 15.33 7.03004 15.52 7.09004L16.93 7.56004C17.7 7.82004 18.21 8.53004 18.21 9.34004C18.21 10.24 17.56 11 16.71 11.17Z" fill="currentColor"/>
    </svg>