<svg width="145" height="30" viewBox="0 0 145 30" fill="none" xmlns="http://www.w3.org/2000/svg">
                    <g clip-path="url(#clip0_22240_5857)">
                        <path d="M57.0895 19.6774H64.4331V8.25367C64.4331 6.79501 65.0672 6.20708 65.7676 6.20708C66.4681 6.20708 67.0432 6.8992 67.0432 8.17925V19.6774H74.3867V8.25367C74.3867 6.79501 75.0208 6.20708 75.7212 6.20708C76.4217 6.20708 76.9968 6.8992 76.9968 8.17925V19.6774H84.3403V7.49458C84.3403 2.64229 82.1211 0.811523 79.0612 0.811523C77.3286 0.811523 75.5074 1.50364 74.2614 4.13072C73.3176 1.86831 71.6218 0.811523 69.2846 0.811523C67.5519 0.811523 65.7308 1.50364 64.4921 4.13072H64.4331L64.2488 1.3548H57.0822V19.6774H57.0895Z" fill="#003366"/>
                        <path d="M11.096 12.8901C10.9928 14.8251 10.3661 15.3833 9.42971 15.3833C7.61594 15.3833 7.46111 13.2995 7.46111 10.5012C7.46111 7.55412 7.63806 5.61916 9.50344 5.61916C10.3882 5.61916 11.1403 6.02848 11.2435 8.11229H17.8424C17.8202 2.71673 13.942 0.833862 9.35598 0.833862C3.20685 0.833862 -0.170003 4.70378 -0.000423261 10.4194C-0.000423261 16.2466 2.95617 20.1611 9.32649 20.1611C13.8388 20.1611 17.8424 17.9508 17.8424 12.8901H11.0886H11.096Z" fill="#003366"/>
                        <path fill-rule="evenodd" clip-rule="evenodd" d="M45.5433 8.9905V5.51502H46.1995C47.6078 5.51502 48.5368 5.79782 48.5368 7.13741C48.5368 8.47699 47.5267 8.9905 46.1479 8.9905H45.5433ZM38.5021 19.6849H45.5433V13.1581H46.3765C47.5341 13.1581 47.9838 13.5153 48.1387 14.4307C48.3893 16.0085 48.1239 15.5768 48.7801 19.6849H55.8214C55.4748 16.3433 55.3053 14.3265 54.9071 12.7488C54.5532 11.3497 53.5947 10.5608 51.8399 10.412C54.5606 9.6975 55.438 8.09744 55.438 5.99131C55.438 2.53816 53.145 1.34741 49.252 1.34741H38.5094V19.6849H38.5021Z" fill="#003366"/>
                        <path fill-rule="evenodd" clip-rule="evenodd" d="M25.7909 12.2576L27.3761 5.34383L28.8655 12.2576H25.7909ZM17.076 19.6849H23.9772L24.7071 16.7378H29.9198L30.6277 19.6849H38.0892L32.2424 1.31763H22.8933L17.076 19.6774V19.6849Z" fill="#003366"/>
                        <path d="M118.006 19.6625H125.386L120.329 9.86116L124.45 1.43665H116.753L114.71 7.23408L112.248 1.43665H104.55L109.033 9.86116L104.123 19.6625H111.584L114.71 12.972L118.006 19.6625Z" fill="#003366"/>
                        <path fill-rule="evenodd" clip-rule="evenodd" d="M96.5496 13.3665C96.5496 14.8549 96.0925 15.8373 94.6252 15.8373C93.3276 15.8373 92.664 15.108 92.664 13.947C92.664 12.9274 93.1506 11.8408 95.392 11.8408H96.5496V13.3665ZM96.5643 8.32815H95.5542C88.9775 8.32815 85.4753 10.1812 85.4753 14.6838C85.4753 18.2783 87.9969 20.243 91.5654 20.243C93.4898 20.243 95.3404 19.6253 96.5717 17.9509L96.7929 19.6774H104.218L104.195 7.383C104.195 3.13353 102.028 0.915771 95.2741 0.915771C90.8281 0.915771 86.4927 1.97256 86.2126 6.86949H93.2096C93.3128 5.34385 93.8732 4.97919 94.9275 4.97919C96.1146 4.97919 96.5717 5.52246 96.5717 6.43041V8.32071L96.5643 8.32815Z" fill="#003366"/>
                        <path d="M130.378 25.0581H144.667V29.1885H130.378V25.0581Z" fill="#003366"/>
                        <path d="M112.048 25.0581H126.337V29.1885H112.048V25.0581Z" fill="#003366"/>
                        <path d="M93.7182 25.058H108.007V29.1884H93.7182V25.058Z" fill="#003366"/>
                        <path d="M75.3893 25.058H89.6782V29.1884H75.3893V25.058Z" fill="#003366"/>
                        <path d="M57.0755 25.058H71.3645V29.1884H57.0755V25.058Z" fill="#003366"/>
                        <path fill-rule="evenodd" clip-rule="evenodd" d="M126.921 4.72011H127.265V3.5697H127.699C128.106 3.5697 128.206 3.67013 128.242 4.0536C128.287 4.45534 128.314 4.54664 128.369 4.71098H128.73C128.64 4.46447 128.622 4.22708 128.577 3.91665C128.541 3.60622 128.459 3.49666 128.197 3.43274C128.667 3.29579 128.667 2.89406 128.667 2.82101C128.667 2.18189 127.998 2.18189 127.817 2.18189H126.93V4.71098L126.921 4.72011ZM127.265 2.48319H127.808C127.998 2.48319 128.305 2.48319 128.305 2.88493C128.305 3.28666 127.98 3.2684 127.808 3.2684H127.265V2.48319ZM127.772 1.11365C126.523 1.11365 125.438 2.14537 125.438 3.46926C125.438 4.79316 126.514 5.84314 127.772 5.84314C129.029 5.84314 130.105 4.79316 130.105 3.46926C130.105 2.14537 129.056 1.11365 127.772 1.11365ZM127.772 1.39669C128.93 1.39669 129.825 2.35537 129.825 3.47839C129.825 4.60142 128.902 5.57836 127.772 5.57836C126.641 5.57836 125.709 4.6562 125.709 3.47839C125.709 2.30059 126.641 1.39669 127.772 1.39669Z" fill="#003366"/>
                    </g>
                    <defs>
                        <clipPath id="clip0_22240_5857">
                            <rect width="144.667" height="28.3769" fill="white" transform="translate(0 0.811523)"/>
                        </clipPath>
                    </defs>
                </svg>