<svg aria-hidden="true" aria-labelledby="chatTitleId" fill="none" height="32" role="img" viewBox="0 0 32 32" width="32" xmlns="http://www.w3.org/2000/svg" style="transform: rotateY(180deg);"><title id="chatTitleId">Chat Bubble Icon</title><path fill-rule="evenodd" clip-rule="evenodd" d="M4 6.66667C4 5.19391 5.19391 4 6.66667 4H25.3333C26.8061 4 28 5.1939 28 6.66667V20C28 21.4728 26.8061 22.6667 25.3333 22.6667H16.4677L12.3325 25.9748C10.5865 27.3716 8 26.1285 8 23.8925V22.6667H6.66667C5.19391 22.6667 4 21.4728 4 20V6.66667ZM25.3333 6.66667L6.66667 6.66667V20H8C9.47276 20 10.6667 21.1939 10.6667 22.6667V23.8925L14.8019 20.5844C15.2747 20.2061 15.8622 20 16.4677 20H25.3333L25.3333 6.66667Z" fill="#fff"/></svg>