<?xml version="1.0" encoding="UTF-8"?>
<svg width="64px" height="64px" viewBox="0 0 64 64" version="1.1" xmlns="http://www.w3.org/2000/svg" xmlns:xlink="http://www.w3.org/1999/xlink">
    <title>car-bulb-2color</title>
    <g id="YMM-r5-(with-article-content)" stroke="none" stroke-width="1" fill="none" fill-rule="evenodd">
        <g id="Desktop-Yellow-Screen-1-Copy" transform="translate(-503.000000, -1437.000000)" fill-rule="nonzero">
            <g id="overwhelmed-bulb" transform="translate(234.000000, 1420.000000)">
                <g id="Group" transform="translate(269.000000, 17.000000)">
                    <path d="M45.480003,5.8 C40.8824147,5.98000262 36.7741573,8.72314769 34.8457566,12.9006458 C32.917356,17.078144 33.4946182,21.9842006 36.340003,25.6 C37.5308344,27.0927883 38.1889844,28.9405356 38.210003,30.85 L38.210003,31.15 C38.2078034,32.5321661 38.9802704,33.7990121 40.210003,34.43 L40.210003,36.73 C40.210003,39.844886 42.7351171,42.37 45.850003,42.37 L46.050003,42.37 C49.1570834,42.3644959 51.6744989,39.8470804 51.680003,36.74 L51.680003,34.44 C52.911366,33.8107684 53.6845106,32.5428112 53.680003,31.16 C53.6649093,29.1498361 54.3232271,27.1924848 55.550003,25.6 C58.4984945,21.8523077 59.0020578,16.7334084 56.8403654,12.4830102 C54.6786729,8.23261191 50.2452967,5.62457025 45.480003,5.8 Z" id="lightbulb-and-flare-path" fill="#FFD900"></path>
                    <polygon id="lightbulb-and-flare-path" fill="#FFFFFF" points="49.680003 36.73 42.230003 35.35 42.230003 34.83 49.690003 34.83"></polygon>
                    <path d="M46.060003,40.37 L45.860003,40.37 C44.1038882,40.3627829 42.6047711,39.099482 42.300003,37.37 L49.130003,38.63 C48.4777894,39.7032783 47.315886,40.3618163 46.060003,40.37 L46.060003,40.37 Z" id="lightbulb-and-flare-path" fill="#FFFFFF"></path>
                    <path d="M54.060003,24.37 C52.5545012,26.3156966 51.7446933,28.7099112 51.760003,31.17 C51.7545035,32.0884079 51.0084274,32.83 50.090003,32.83 L41.860003,32.83 C41.4180056,32.83 40.9942555,32.6537436 40.6826561,32.3402671 C40.3710566,32.0267905 40.1973404,31.6019895 40.200003,31.16 L40.200003,30.86 C40.1829665,28.4968868 39.373024,26.2079187 37.900003,24.36 C35.5211204,21.3330895 35.0409956,17.2276821 36.6572458,13.7335434 C38.2734959,10.2394048 41.7129722,7.94704953 45.560003,7.8 L46.000003,7.8 C49.9084523,7.82650865 53.4616364,10.0734908 55.1609889,13.5932748 C56.8603415,17.1130588 56.410041,21.2929242 54.000003,24.37 L54.060003,24.37 Z" id="lightbulb-and-flare-path" fill="#FFFFFF"></path>
                    <path d="M64.000003,8 C64.000003,8.55228475 63.5522878,9 63.000003,9 L59.200003,9 C58.6477183,9 58.200003,8.55228475 58.200003,8 C58.200003,7.44771525 58.6477183,7 59.200003,7 L63.000003,7 C63.5522878,7 64.000003,7.44771525 64.000003,8 Z" id="lightbulb-and-flare-path" fill="#FFD900"></path>
                    <path d="M55.000003,4.8 L55.000003,1 C55.000003,0.44771525 55.4477183,0 56.000003,0 C56.5522878,0 57.000003,0.44771525 57.000003,1 L57.000003,4.8 C57.000003,5.35228475 56.5522878,5.8 56.000003,5.8 C55.4477183,5.8 55.000003,5.35228475 55.000003,4.8 Z" id="lightbulb-and-flare-path" fill="#FFD900"></path>
                    <path d="M58.200003,5.8 C58.0106904,5.6122334 57.9042047,5.35663754 57.9042047,5.09 C57.9042047,4.82336246 58.0106904,4.5677666 58.200003,4.38 L60.140003,2.43 C60.3936616,2.17634141 60.763377,2.07727645 61.1098811,2.17012192 C61.4563852,2.2629674 61.7270356,2.53361788 61.8198811,2.88012194 C61.9127266,3.22662601 61.8136616,3.59634144 61.560003,3.85 L59.560003,5.79 C59.3753726,5.97841426 59.1237723,6.08624295 58.860003,6.09 C58.6004711,6.09425925 58.3494519,5.99743754 58.160003,5.82 L58.200003,5.8 Z" id="lightbulb-and-flare-path" fill="#FFD900"></path>
                    <path d="M46.630003,11.15 C46.630003,11.7022847 46.1822878,12.15 45.630003,12.15 C42.2721108,12.2934939 39.5872081,14.9914513 39.460003,18.35 C39.460003,18.9022847 39.0122878,19.35 38.460003,19.35 C37.9077183,19.35 37.460003,18.9022847 37.460003,18.35 C37.6329005,13.945042 41.1557143,10.4091807 45.560003,10.22 C45.8253728,10.2007707 46.0874651,10.2880874 46.28828,10.4626275 C46.489095,10.6371676 46.6120742,10.8845392 46.630003,11.15 Z" id="lightbulb-and-flare-path" fill="#FFD900"></path>
                    <path d="M10.300003,43.4 C8.19232145,43.4101164 6.47402251,45.0929865 6.42000304,47.2 C6.44068016,48.2049552 6.83250693,49.1667118 7.52000304,49.9 C8.22041781,50.698391 9.22796934,51.160337 10.290003,51.17 C11.3140908,51.1611159 12.2912384,50.7392478 13.000003,50 C13.6989251,49.2821884 14.093095,48.3218472 14.100003,47.32 C14.0486255,45.2069898 12.3621745,43.4986368 10.250003,43.42 L10.300003,43.4 Z" id="car-happy-cropped-path" fill="#053361"></path>
                    <path d="M12.150003,47.28 C12.137744,47.7692866 11.9371422,48.2349694 11.590003,48.58 C11.2582773,48.9511544 10.7876596,49.1683625 10.290003,49.18 C9.78771274,49.1607279 9.31636239,48.9323043 8.99000304,48.55 C8.63820002,48.1819641 8.43208223,47.6986534 8.41000304,47.19 C8.47197608,46.1957296 9.28409263,45.4140132 10.280003,45.39 C11.2810674,45.4636331 12.0724813,46.2678808 12.130003,47.27 L12.150003,47.28 Z" id="car-happy-cropped-path" fill="#FFFFFF"></path>
                    <path d="M33.850003,47.28 C33.8598253,48.3028061 34.273129,49.2803592 35.000003,50 C35.7132616,50.7602791 36.7075407,51.1941463 37.750003,51.2 C38.8069761,51.1900414 39.810093,50.7320967 40.510003,49.94 C41.2047971,49.2097408 41.6038914,48.2476386 41.630003,47.24 C41.5761153,45.1368414 39.8637948,43.4554932 37.760003,43.44 C35.6507006,43.4910841 33.9437814,45.171743 33.860003,47.28 L33.850003,47.28 Z" id="car-happy-cropped-path" fill="#053361"></path>
                    <path d="M37.710003,45.38 C38.7097877,45.3988888 39.5276838,46.1819807 39.590003,47.18 C39.5703267,47.6921428 39.3640381,48.1794105 39.010003,48.55 C38.6818398,48.9285823 38.2107379,49.1532616 37.710003,49.17 C37.2123464,49.1583625 36.7417288,48.9411544 36.410003,48.57 C36.0665323,48.2233732 35.8695943,47.7578835 35.860003,47.27 C35.918088,46.2643467 36.7150285,45.458837 37.720003,45.39 L37.710003,45.38 Z" id="car-happy-cropped-path" fill="#FFFFFF"></path>
                    <path d="M17.200003,30.66 C16.050003,30.66 13.680003,30.66 12.840003,32.86 L10.540003,38.08 C10.3825138,38.4018052 10.4092166,38.7832741 10.610003,39.08 C10.7978663,39.365348 11.1184029,39.5350438 11.460003,39.53 L36.560003,39.53 C36.8980677,39.5316321 37.2140692,39.3623456 37.400003,39.08 C37.6007895,38.7832741 37.6274923,38.4018052 37.470003,38.08 L35.170003,32.91 C34.320003,30.66 31.950003,30.66 30.810003,30.66 L17.200003,30.66 Z" id="car-happy-cropped-path" fill="#053361"></path>
                    <path d="M33.330003,33.66 L35.000003,37.47 L13.000003,37.47 L14.700003,33.62 C14.950003,32.99 15.420003,32.62 17.200003,32.62 L30.800003,32.62 C32.600003,32.65 33.070003,33 33.330003,33.66 Z" id="car-happy-cropped-path" fill="#FFFFFF"></path>
                    <path d="M32.000003,50.73 C32.1225086,50.9659505 32.1460154,51.2409711 32.065329,51.494289 C31.9846425,51.7476069 31.8064052,51.9583683 31.570003,52.08 C29.244375,53.3370355 26.6529914,54.0225867 24.010003,54.08 C21.3637253,54.0234029 18.7689087,53.3378503 16.440003,52.08 C15.9484696,51.825949 15.7559521,51.2215334 16.010003,50.73 C16.264054,50.2384666 16.8684696,50.045949 17.360003,50.3 C19.4008283,51.4115837 21.676818,52.0217134 24.000003,52.08 C26.3232433,52.0220953 28.599321,51.411942 30.640003,50.3 C30.8769286,50.1742976 31.1544184,50.1490374 31.4101472,50.2298928 C31.665876,50.3107482 31.8784063,50.4909413 32.000003,50.73 Z" id="car-happy-cropped-path" fill="#053361"></path>
                    <path d="M45.330003,46 C45.2674816,45.6427344 45.0191104,45.3459622 44.6784486,45.2214745 C44.3377868,45.0969869 43.9565889,45.1636966 43.6784486,45.3964745 C43.4003082,45.6292525 43.2674815,45.9927344 43.330003,46.35 C43.4244984,46.9462794 43.4244984,47.5537206 43.330003,48.15 L42.250003,57 L5.82000304,57 L4.62000304,48.24 C4.34555186,46.3731483 5.02970619,44.4936034 6.44000304,43.24 L7.81000304,42.24 C8.15031015,41.9851533 8.29227335,41.5429924 8.16392294,41.1376754 C8.03557253,40.7323583 7.66497279,40.452509 7.24000304,40.44 L3.94000304,40.44 C2.92000304,40.4 2,39 2,37.87 C2,37.17 2.63000304,36.93 3.17000304,36.93 L4.80000304,36.93 C5.83256181,37.3734707 6.83473812,37.8845806 7.80000304,38.46 C8.04517587,38.5940859 8.33526916,38.619469 8.60000304,38.53 C8.87496983,38.4333431 9.09408342,38.2215333 9.20000304,37.95 L11.740003,31.45 C12.3907598,30.0614526 13.830606,29.2182278 15.360003,29.33 L31.660003,29.33 C32.2122878,29.33 32.660003,28.8822847 32.660003,28.33 C32.660003,27.7777153 32.2122878,27.33 31.660003,27.33 L15.400003,27.33 C13.0331641,27.17065 10.8283483,28.5386014 9.92000304,30.73 L7.80000304,36.18 C5.52000304,34.95 5.07000304,34.95 4.86000304,34.95 L3.16000304,34.95 C2.33701206,34.9060438 1.53218283,35.2026007 0.934475527,35.7700443 C0.336768222,36.337488 -0.00116998004,37.1258368 0,37.95 C0,40 1.68000304,42.4 3.94000304,42.4 L4.46000304,42.4 C2.98318266,44.0496043 2.31305566,46.2687134 2.63000304,48.46 L3.83000304,57.22 C3.93932744,58.211659 4.76275501,58.9710896 5.76000304,59 L6.41000304,59 L6.41000304,61 C6.41000304,62.6568542 7.75314879,64 9.41000304,64 L11.190003,64 C12.8468573,64 14.190003,62.6568542 14.190003,61 L14.190003,59 L33.830003,59 L33.830003,61 C33.830003,62.6568542 35.1731488,64 36.830003,64 L38.610003,64 C40.2668573,64 41.610003,62.6568542 41.610003,61 L41.610003,59 L42.260003,59 C43.2433135,58.9682993 44.0575362,58.2261691 44.180003,57.25 L45.380003,48.48 C45.4935913,47.6561532 45.480101,46.8197551 45.340003,46 L45.330003,46 Z" id="car-happy-cropped-path" fill="#053361"></path>
                    <path d="M12.180003,61 C12.180003,61.5522847 11.7322878,62 11.180003,62 L9.40000304,62 C8.84771829,62 8.40000304,61.5522847 8.40000304,61 L8.40000304,59 L12.180003,59 L12.180003,61 Z" id="car-happy-cropped-path" fill="#FFFFFF"></path>
                    <path d="M39.600003,61 C39.600003,61.5522847 39.1522878,62 38.600003,62 L36.820003,62 C36.2677183,62 35.820003,61.5522847 35.820003,61 L35.820003,59 L39.600003,59 L39.600003,61 Z" id="car-happy-cropped-path" fill="#FFFFFF"></path>
                </g>
            </g>
        </g>
    </g>
</svg>