<svg width="160" height="70" viewBox="0 0 160 70" fill="none" xmlns="http://www.w3.org/2000/svg">
<path d="M29.1284 58.9829L12.1383 56.6628C11.5569 54.2782 11.1692 51.8292 11.04 49.3802C11.04 49.3802 13.3011 45.7712 13.4949 45.3845C13.6887 44.9978 13.8825 38.2953 14.2055 36.1041L26.2214 34.2351C27.901 33.784 29.5807 33.204 31.1311 32.495C40.4983 28.0482 50.5761 25.4703 60.9124 24.7614C70.7964 23.988 80.6804 24.6969 90.3706 26.7592C96.8954 29.1438 103.033 32.495 108.588 36.6841C108.588 36.6841 125.966 37.9086 130.424 38.4886C136.496 39.0687 142.439 41.0665 147.672 44.16C147.672 44.16 149.352 54.9872 149.416 55.4383C149.352 56.6628 149.029 57.8228 148.577 58.9829C148.577 58.9829 140.243 60.014 137.724 60.1429" fill="white"/>
<ellipse cx="83.5049" cy="67.062" rx="60.0845" ry="2.54904" fill="#B3B8C2" fill-opacity="0.16"/>
<circle cx="37.9869" cy="56.5015" r="9.46785" fill="#F2F3F5"/>
<circle cx="38.3509" cy="56.1375" r="5.46222" fill="white"/>
<path d="M32.5883 58.2433C31.3949 55.4678 32.7872 52.2405 35.638 51.0787C36.3673 50.756 37.1629 50.6269 37.9584 50.6914C41.0745 50.9496 43.3286 53.6606 43.0634 56.6297C42.7982 59.2761 40.6767 61.3416 37.9584 61.5997C36.6988 61.5997 35.4391 61.0834 34.4446 60.3088" fill="white"/>
<circle cx="129.024" cy="56.5015" r="9.46785" fill="#F2F3F5"/>
<circle cx="128.659" cy="56.1375" r="5.46222" fill="white"/>
<path d="M125.738 51.5416C126.321 51.1486 127.033 50.8867 127.745 50.7557C130.788 50.2317 133.636 52.3275 134.089 55.3402V55.4057C134.413 58.4183 132.277 61.2345 129.299 61.562C126.515 61.8894 123.99 60.0556 123.343 57.3049C123.149 56.388 123.149 55.4711 123.343 54.5543" fill="white"/>
<path d="M40.6752 37.4809C38.3465 34.7831 39.5756 32.856 42.2277 32.1494C47.7907 30.4151 53.5478 29.3873 59.3695 29.1304C69.2665 28.3595 79.2282 29.0661 88.9311 31.1217C94.4294 32.9845 99.5397 35.6181 104.262 39.0226L40.6752 37.4809Z" fill="#F2F3F5"/>
<path fill-rule="evenodd" clip-rule="evenodd" d="M148.465 43.9408C148.4 43.6156 148.206 43.2903 147.883 43.0951C142.522 39.8423 136.385 37.8256 130.184 37.175C126.591 36.7155 114.54 35.7997 110.032 35.4571C109.434 35.4117 108.969 35.3763 108.674 35.3534C103.118 31.1248 96.9816 27.7419 90.3282 25.3348C80.5096 23.1879 70.4972 22.5374 60.5494 23.3181C50.0202 24.0337 39.8786 26.701 30.383 31.1898C28.8327 31.9055 27.2824 32.491 25.732 32.8813L13.7172 34.7679C13.2004 34.833 12.8128 35.2884 12.7482 35.7438C12.6384 36.6838 12.5286 38.4229 12.4188 40.1621C12.3994 40.469 12.38 40.7759 12.3606 41.0784C12.3219 42.0152 12.2599 43.0925 12.2165 43.8466C12.1875 44.3494 12.1669 44.7085 12.1669 44.7866C12.086 44.9901 11.5754 45.8047 10.9513 46.8003L10.9512 46.8004L10.9512 46.8004L10.9511 46.8005C10.5777 47.3963 10.1637 48.0568 9.7768 48.6899C9.6476 48.8851 9.58301 49.1453 9.58301 49.4055C9.7768 51.9427 10.1644 54.4799 10.7457 56.9521C10.8749 57.4074 11.2625 57.7978 11.7147 57.8628L27.9929 60.0747C29.4786 64.1733 33.419 67.1659 38.0053 67.1659C43.7544 67.1659 48.4699 62.5469 48.6637 56.8219H112.808C113.066 56.8219 113.26 56.6918 113.324 56.4967L115.585 51.6175C115.714 51.3572 115.585 50.9669 115.327 50.8368C115.004 50.7067 114.681 50.8368 114.552 51.097L112.485 55.5859H48.6637C48.2761 49.9911 43.6898 45.5022 38.0053 45.5022C33.2898 45.5022 29.3494 48.6249 27.8637 52.8535C22.5022 52.0728 17.2699 50.8368 12.1669 49.0803C13.0066 47.7141 14.0401 46.0226 14.2339 45.6323C14.3631 45.3721 14.4277 44.9817 14.4923 43.3553C16.2364 42.8999 17.9805 41.4037 19.2724 40.2326C19.5308 39.9724 19.7892 39.7772 20.0476 39.5821C20.306 39.3869 21.0165 38.7364 20.7581 38.0207C20.4998 37.3051 19.5954 37.2401 18.8203 37.2401H14.9445C14.9445 37.1099 14.9445 36.9148 15.0091 36.7847L26.2488 34.9631C27.9929 34.5077 29.737 33.8571 31.3519 33.1415C40.5892 28.9129 50.4724 26.3757 60.6786 25.6601C64.6189 25.3348 68.6239 25.3348 72.5642 25.53C72.6288 25.8552 72.6773 26.1968 72.7257 26.5383C72.7742 26.8799 72.8226 27.2214 72.8872 27.5467C68.4301 27.2865 63.973 27.3515 59.5158 27.6768C53.573 27.937 47.7593 28.9779 42.1395 30.7345C40.2662 31.2549 39.0389 32.2958 38.6513 33.662C38.4575 34.2475 38.4575 35.0282 38.7805 35.9389H36.7134C36.0674 35.9389 35.5507 36.4594 35.5507 37.1099C35.5507 37.7605 36.0674 38.281 36.7134 38.281H40.46C40.503 38.3026 40.5461 38.3316 40.5892 38.3605C40.6753 38.4183 40.7614 38.4761 40.8475 38.4761L74.8251 39.3219C75.4065 43.7457 75.9232 48.2345 76.2462 52.6584C76.2462 52.9836 76.5046 53.1788 76.8276 53.1788H76.8922C77.2152 53.1788 77.4736 52.8535 77.409 52.5282C77.086 48.1044 76.5692 43.7457 75.9878 39.3219L95.7543 39.7772V39.9074C95.7543 40.5579 96.271 41.0784 96.917 41.0784H100.405C101.245 41.0784 101.891 40.623 102.343 39.9724L104.41 40.0375C104.927 40.0375 105.379 39.7122 105.508 39.2568C105.637 38.8014 105.508 38.2159 105.056 37.9557C100.276 34.5077 95.0437 31.7103 89.2947 29.7586C84.2562 28.6527 79.1531 27.937 74.05 27.6118C73.9854 27.2865 73.9369 26.9449 73.8885 26.6034C73.84 26.2618 73.7916 25.9203 73.727 25.595C79.0885 25.8552 84.4499 26.5709 89.6176 27.6768C96.0772 30.0188 102.085 33.3367 107.511 37.5653C107.705 37.6955 107.898 37.7605 108.157 37.8256C108.351 37.8256 125.598 39.0616 129.926 39.6471C134.124 40.0375 138.259 41.2085 142.07 42.8999L139.744 42.5747C139.357 42.5747 138.452 42.5747 138.194 43.2252C137.961 43.8109 138.514 44.3438 138.815 44.6342C138.848 44.6664 138.879 44.6956 138.904 44.7215C139.578 45.2723 140.634 46.0438 141.575 46.7305L141.576 46.7312L141.576 46.7316L141.576 46.7317C142.08 47.0991 142.549 47.4421 142.909 47.7141C143.103 47.8702 143.274 47.9795 143.393 48.056C143.473 48.107 143.53 48.1435 143.555 48.1695C143.62 48.2345 143.749 48.2996 143.878 48.2996C144.524 48.3647 145.17 48.3647 145.816 48.3647H146.656C146.771 49.1082 146.886 49.8433 146.995 50.5445L146.998 50.5648L147 50.5724L147 50.5749L147.001 50.5832C147.32 52.6262 147.594 54.3757 147.69 55.1955L142.586 55.3256C142.263 55.3256 142.005 55.5859 142.005 55.9112C142.005 56.2364 142.263 56.4967 142.586 56.4967L147.56 56.3665C147.496 57.0171 147.367 57.6026 147.173 58.2532L146.89 58.2876L146.555 58.3284C144.667 58.5588 141.133 58.9902 138.775 59.164C138.969 58.3182 139.098 57.5376 139.098 56.6268C139.098 50.7067 134.318 45.8275 128.375 45.8275C122.432 45.8275 117.652 50.6416 117.652 56.6268C117.652 57.4725 117.782 58.2532 117.975 59.0339H53.4438C52.7978 59.0339 52.2811 59.5543 52.2811 60.2049C52.2811 60.8554 52.7978 61.3759 53.4438 61.3759H119.009C120.753 64.954 124.37 67.4261 128.569 67.4261C132.703 67.4261 136.256 65.019 138.065 61.571C139.979 61.4069 143.462 61.0099 145.837 60.7391L145.837 60.739C147.229 60.5804 148.24 60.4651 148.336 60.4651C148.723 60.4 149.111 60.1398 149.24 59.7495C149.757 58.5134 150.08 57.2123 150.144 55.6509C150.144 54.8703 148.788 45.7624 148.465 43.9408ZM38.0052 47.9093C42.6561 47.9093 46.4027 51.6825 46.4027 56.3666C46.4027 61.0506 42.6561 64.8239 38.0052 64.8239C33.3543 64.8239 29.6077 61.0506 29.6077 56.3666C29.6077 51.6825 33.4189 47.9093 38.0052 47.9093ZM12.813 55.651L27.4117 57.6678C27.4117 57.4401 27.3794 57.2286 27.3471 57.0172C27.3149 56.8058 27.2826 56.5944 27.2826 56.3667C27.2826 55.586 27.3471 54.8053 27.5409 54.0897C22.3087 53.309 17.0764 52.073 12.0379 50.3164C12.1671 52.138 12.4254 53.8945 12.813 55.651ZM17.2698 38.5413L17.3344 40.558C16.4947 41.2736 15.5257 41.9242 14.6214 42.2494C14.6214 42.0942 14.6361 41.939 14.6515 41.7767C14.6683 41.5989 14.686 41.4126 14.686 41.2086C14.7506 40.2978 14.8152 39.387 14.8798 38.5413H17.2698ZM50.3433 30.9948C47.824 31.4502 45.3048 32.1007 42.8501 32.8814C41.752 33.2067 41.0414 33.7271 40.8477 34.2476C40.7185 34.703 40.9123 35.3535 41.429 36.0691L50.6017 36.2643L50.3433 30.9948ZM51.7643 36.3292L51.506 30.7994C54.219 30.344 56.932 30.0188 59.7097 29.8886C64.2314 29.5634 68.8177 29.4983 73.3395 29.7585C73.4687 30.5392 73.605 31.3199 73.7414 32.1005C74.0141 33.6619 74.2869 35.2232 74.5022 36.7846L51.7643 36.3292ZM97.8217 36.0692C94.9149 34.4428 91.8788 33.0115 88.7136 31.9056C84.0627 30.8647 79.2826 30.2141 74.4379 29.9539C74.5671 30.7346 74.7034 31.5153 74.8398 32.296C75.1126 33.8573 75.3853 35.4186 75.6006 36.98L95.69 37.4353V37.2402C95.69 36.5896 96.2068 36.0692 96.8527 36.0692H97.8217ZM128.569 64.8239C123.918 64.8239 120.172 61.0506 120.172 56.3666C120.172 51.6825 123.918 47.9093 128.569 47.9093C133.22 47.9093 136.967 51.6825 136.967 56.3666C136.967 61.0506 133.22 64.8239 128.569 64.8239ZM144.157 46.8478C144.201 46.8794 144.239 46.9064 144.266 46.9333C145.041 46.9333 145.816 46.9333 146.721 46.8683C146.66 46.5338 146.614 46.1992 146.569 45.8714C146.517 45.4978 146.466 45.1329 146.398 44.7865C146.075 44.6564 145.816 44.5263 145.558 44.3962L145.558 44.3961L143.232 44.0708L143.943 46.6731C144.019 46.7493 144.094 46.8032 144.157 46.8478Z" fill="#001333"/>
<path d="M33.403 58.9547C33.7216 58.8225 33.8491 58.4918 33.7216 58.1611C33.2118 56.9044 33.2118 55.5816 33.7216 54.3249C34.2315 53.0682 35.1238 52.1422 36.3347 51.6131C36.9721 51.3485 37.6732 51.2163 38.3105 51.2163C39.5852 51.3485 40.7324 51.9438 41.561 53.0021C42.3895 54.0603 42.7719 55.317 42.6444 56.6398C42.4532 59.0209 40.6049 60.939 38.3742 61.1374C37.2908 61.1374 36.2073 60.6744 35.315 59.9469C35.0601 59.7484 34.7414 59.7484 34.4865 60.013C34.2953 60.2776 34.2953 60.6083 34.5502 60.8728C35.5699 61.7988 36.9084 62.3279 38.3742 62.3279C41.2423 62.0634 43.5367 59.6823 43.7917 56.706C43.9191 55.0524 43.473 53.465 42.4532 52.1422C41.4335 50.8855 39.9676 50.0919 38.3742 49.9596C37.5457 49.8934 36.6534 50.0919 35.8886 50.4226C34.4227 51.084 33.2755 52.2745 32.6382 53.7958C32.0008 55.317 32.0008 57.0367 32.6382 58.5579C32.7656 58.9547 33.0843 59.087 33.403 58.9547Z" fill="#001333"/>
<path d="M127.669 50.7518C126.879 50.8777 126.155 51.1922 125.431 51.5697C125.167 51.7585 125.102 52.073 125.233 52.3247C125.431 52.5763 125.76 52.6393 126.023 52.5134C126.615 52.1989 127.208 51.9472 127.866 51.8214C129.182 51.6326 130.499 51.8843 131.618 52.6393C132.737 53.3942 133.461 54.5267 133.658 55.8479C133.79 57.1062 133.461 58.3644 132.605 59.3711C131.749 60.3777 130.565 61.0068 129.248 61.1327C126.813 61.4472 124.378 59.8744 123.851 57.4836C123.654 56.7287 123.654 55.9108 123.851 55.1558C123.917 54.8413 123.719 54.5267 123.39 54.4638C123.061 54.4009 122.732 54.5896 122.666 54.9042C122.403 55.8479 122.403 56.8545 122.666 57.7982C123.324 60.5035 125.826 62.328 128.656 62.328C128.919 62.328 129.117 62.328 129.38 62.2651C131.025 62.0764 132.473 61.3214 133.527 60.0631C134.58 58.8048 135.04 57.2949 134.777 55.5962C134.514 54.0234 133.592 52.6393 132.276 51.7585C130.96 50.8777 129.314 50.5002 127.669 50.7518Z" fill="#001333"/>
<path d="M45.8458 40.4791C45.5256 40.4791 45.2695 40.8028 45.2695 41.2074C45.2695 41.612 45.5256 41.9357 45.8458 41.9357H50.5197C50.8398 41.9357 51.0959 41.612 51.0959 41.2074C51.0959 40.8028 50.8398 40.4791 50.5197 40.4791H45.8458V40.4791Z" fill="#001333"/>
<path d="M78.6187 40.4791C78.2986 40.4791 78.0425 40.8028 78.0425 41.2074C78.0425 41.612 78.2986 41.9357 78.6187 41.9357H83.2926C83.6128 41.9357 83.8689 41.612 83.8689 41.2074C83.8689 40.8028 83.6128 40.4791 83.2926 40.4791H78.6187Z" fill="#001333"/>
</svg>
