<svg width="160" height="70" viewBox="0 0 160 70" fill="none" xmlns="http://www.w3.org/2000/svg">
<path d="M26.5264 56.9998H6.59097C4.78585 56.9998 3.11249 56.3245 1.86076 55.0989C0.609033 53.8734 -0.0497702 52.2601 0.00293407 50.5594C0.332336 40.2798 1.4523 15.3061 4.68044 5.40172C5.53689 2.76304 8.06669 0.999756 10.9786 0.999756H105.952C109.351 0.999756 112.592 2.38788 114.846 4.80145C132.581 23.86 140.447 31.2508 141.804 31.776L142.357 31.9136C145.836 32.7514 153.017 34.4647 155.586 42.7559L158.076 45.1195C159.315 46.3075 160 47.8707 160 49.5464V50.747C160 54.1985 157.049 56.9998 153.412 56.9998H26.5264Z" fill="white"/>
<path d="M0 66.9998C0 68.6554 61.0847 69.9998 96.2831 69.9998C131.481 69.9998 160 68.6554 160 66.9998C160 65.3441 131.468 63.9998 96.2831 63.9998C61.0979 63.9998 0 65.3441 0 66.9998Z" fill="#DEDFE0"/>
<path d="M101.05 40.4816C100.681 40.4816 100.391 40.2042 100.391 39.8511V35.753C100.391 35.4 100.681 35.1226 101.05 35.1226C101.419 35.1226 101.709 35.4 101.709 35.753V39.8511C101.709 40.2042 101.419 40.4816 101.05 40.4816Z" fill="#2A343D"/>
<path d="M109.166 40.4816C108.797 40.4816 108.507 40.2042 108.507 39.8511V35.753C108.507 35.4 108.797 35.1226 109.166 35.1226C109.535 35.1226 109.824 35.4 109.824 35.753V39.8511C109.824 40.2042 109.535 40.4816 109.166 40.4816Z" fill="#2A343D"/>
<path d="M128.101 35.2235H132.185C133.068 35.2235 133.793 34.5299 133.793 33.6851C133.793 32.8403 133.068 32.1467 132.185 32.1467H128.101V35.2235Z" fill="#2A343D"/>
<path d="M132.185 36.4971H128.1C127.376 36.4971 126.783 35.9297 126.783 35.2361V32.1594C126.783 31.4659 127.376 30.8984 128.1 30.8984H132.185C133.792 30.8984 135.11 32.1594 135.11 33.6978C135.11 35.2361 133.792 36.4971 132.185 36.4971ZM129.418 33.9752H132.185C132.343 33.9752 132.475 33.8491 132.475 33.6978C132.475 33.5464 132.343 33.4203 132.185 33.4203H129.418V33.9752Z" fill="#2A343D"/>
<path d="M137.627 65.5244C143.375 65.5244 148.036 61.0645 148.036 55.5629C148.036 50.0613 143.375 45.6013 137.627 45.6013C131.878 45.6013 127.217 50.0613 127.217 55.5629C127.217 61.0645 131.878 65.5244 137.627 65.5244Z" fill="#DEDFE0"/>
<path d="M137.627 66.7853C131.157 66.7853 125.9 61.7541 125.9 55.5628C125.9 49.3715 131.157 44.3403 137.627 44.3403C144.096 44.3403 149.354 49.3715 149.354 55.5628C149.354 61.7541 144.096 66.7853 137.627 66.7853ZM137.627 46.8749C132.62 46.8749 128.535 50.7712 128.535 55.5754C128.535 60.3797 132.607 64.276 137.627 64.276C142.647 64.276 146.718 60.3797 146.718 55.5754C146.718 50.7712 142.647 46.8749 137.627 46.8749Z" fill="#2A343D"/>
<path d="M137.627 61.2498C140.909 61.2498 143.57 58.7037 143.57 55.5629C143.57 52.4221 140.909 49.876 137.627 49.876C134.345 49.876 131.685 52.4221 131.685 55.5629C131.685 58.7037 134.345 61.2498 137.627 61.2498Z" fill="white"/>
<path d="M131.829 54.97C131.829 54.97 131.737 54.97 131.684 54.9574C131.328 54.8818 131.104 54.5413 131.183 54.2009C131.486 52.9021 132.185 51.7546 133.226 50.8593C133.502 50.6197 133.911 50.645 134.161 50.9098C134.398 51.1746 134.385 51.5655 134.108 51.805C133.278 52.5238 132.712 53.4443 132.475 54.4783C132.409 54.7683 132.132 54.97 131.829 54.97Z" fill="#2A343D"/>
<path d="M137.627 61.8804C134.53 61.8804 131.816 59.7873 131.17 56.8871C131.091 56.5466 131.315 56.2061 131.671 56.1431C132.027 56.0801 132.382 56.2818 132.448 56.6223C132.962 58.9298 135.136 60.6069 137.613 60.6069C140.525 60.6069 142.897 58.3372 142.897 55.5505C142.897 52.7637 140.525 50.494 137.613 50.494C137.073 50.494 136.546 50.5697 136.045 50.721C135.69 50.8345 135.334 50.6327 135.215 50.3049C135.11 49.977 135.307 49.624 135.65 49.5105C136.283 49.3213 136.941 49.2205 137.613 49.2205C141.25 49.2205 144.215 52.0576 144.215 55.5378C144.215 59.0181 141.25 61.8552 137.613 61.8552L137.627 61.8804Z" fill="#2A343D"/>
<path d="M47.2906 55.5629C47.2906 61.0606 42.6262 65.5244 36.8814 65.5244C31.1366 65.5244 26.4722 61.0606 26.4722 55.5629C26.4722 50.0651 31.1366 45.6013 36.8814 45.6013C42.6262 45.6013 47.2906 50.0651 47.2906 55.5629Z" fill="#DEDFE0"/>
<path d="M36.8943 66.7853C30.4248 66.7853 25.1675 61.7541 25.1675 55.5628C25.1675 49.3715 30.4248 44.3403 36.8943 44.3403C43.3639 44.3403 48.6212 49.3715 48.6212 55.5628C48.6212 61.7541 43.3639 66.7853 36.8943 66.7853ZM36.8943 46.8749C31.8874 46.8749 27.8027 50.7712 27.8027 55.5754C27.8027 60.3797 31.8742 64.276 36.8943 64.276C41.9145 64.276 45.9859 60.3797 45.9859 55.5754C45.9859 50.7712 41.9145 46.8749 36.8943 46.8749Z" fill="#2A343D"/>
<path d="M42.8239 55.5629C42.8239 58.7027 40.1623 61.2498 36.8814 61.2498C33.6006 61.2498 30.939 58.7027 30.939 55.5629C30.939 52.4231 33.6006 49.876 36.8814 49.876C40.1623 49.876 42.8239 52.4231 42.8239 55.5629Z" fill="white"/>
<path d="M41.2691 60.0392C41.111 60.0392 40.9529 59.9888 40.8211 59.8753C40.5576 59.6357 40.5312 59.2448 40.7816 58.98C41.6775 58.0469 42.1651 56.8364 42.1651 55.5628C42.1651 52.7761 39.7933 50.5064 36.8814 50.5064C34.3384 50.5064 32.1511 52.2465 31.69 54.6423C31.6241 54.9828 31.2815 55.2098 30.9257 55.1467C30.57 55.0837 30.3328 54.7558 30.3987 54.4154C30.9784 51.4269 33.7059 49.2581 36.8946 49.2581C40.5312 49.2581 43.4959 52.0952 43.4959 55.5754C43.4959 57.1516 42.8766 58.6774 41.7698 59.8375C41.638 59.9762 41.4667 60.0392 41.2823 60.0392H41.2691Z" fill="#2A343D"/>
<path d="M36.8946 61.8803C33.8113 61.8803 31.097 59.7871 30.4382 56.8995C30.3592 56.5591 30.5832 56.2186 30.9389 56.1556C31.2947 56.0799 31.6504 56.2943 31.7163 56.6347C32.2434 58.9423 34.4043 60.6193 36.8814 60.6193C37.672 60.6193 38.423 60.4554 39.1214 60.1402C39.4508 59.9889 39.8461 60.1402 40.0042 60.4428C40.1623 60.7454 40.0042 61.1363 39.688 61.2877C38.8051 61.6786 37.8696 61.8803 36.8814 61.8803H36.8946Z" fill="#2A343D"/>
<path d="M153.438 57.0129H147.931V54.491H153.438C155.612 54.491 157.391 52.7887 157.391 50.7082V49.4976C157.391 48.4889 156.983 47.5432 156.232 46.8244L153.254 43.9747L153.162 43.6594C151.08 36.4468 144.992 34.9714 141.725 34.177L141.092 34.0257C140.315 33.824 137.93 33.2313 112.869 6.07035C111.116 4.17891 108.6 3.08188 105.951 3.08188H10.9768C9.22435 3.08188 7.70908 4.15369 7.19521 5.7425C4.05926 15.4392 2.96563 40.3431 2.63623 50.6073C2.60988 51.6413 2.99199 52.6122 3.74303 53.3436C4.49408 54.0875 5.50865 54.491 6.5891 54.491H26.5116V57.0129H6.5891C4.78395 57.0129 3.11057 56.332 1.85883 55.0963C0.607088 53.8605 -0.051724 52.2339 0.00098098 50.519C0.330387 40.154 1.45037 14.9727 4.67854 4.98592C5.535 2.32531 8.06484 0.547363 10.9768 0.547363H105.951C109.351 0.547363 112.592 1.94702 114.845 4.38067C132.58 23.5976 140.446 31.0499 141.804 31.5795L142.357 31.7182C145.836 32.563 153.017 34.2905 155.586 42.6507L158.076 45.0339C159.315 46.2318 160 47.808 160 49.4976V50.7082C160 54.1884 157.049 57.0129 153.412 57.0129H153.438Z" fill="#2A343D"/>
<path d="M127.442 54.491H47.4224V57.0129H127.442V54.491Z" fill="#2A343D"/>
<path d="M134.873 33.433L121.525 20.0416C120.537 19.0455 119.154 18.478 117.704 18.478H111.854C111.116 18.478 110.523 19.0581 110.536 19.7516C110.615 27.3804 111.564 35.564 121.723 35.564H133.911C135.07 35.564 135.663 34.24 134.86 33.433H134.873Z" fill="#DEDFE0"/>
<path d="M133.924 36.8249H121.736C109.39 36.8249 109.285 25.7285 109.232 19.7642C109.232 19.0833 109.495 18.4402 109.996 17.961C110.497 17.4818 111.156 17.217 111.867 17.217H117.717C119.509 17.217 121.249 17.9232 122.487 19.1715L135.835 32.5629C136.559 33.2942 136.77 34.366 136.349 35.2991C135.94 36.2322 134.978 36.8249 133.924 36.8249ZM111.854 19.7263C111.933 28.717 113.62 34.2904 121.723 34.2904H133.911L120.577 20.899C119.839 20.1551 118.785 19.7263 117.717 19.7263H111.867H111.854Z" fill="#2A343D"/>
<path d="M2.46488 31.3147L4.30955 33.8366L4.6126 44.3025L1.64795 45.4374L2.46488 31.3147Z" fill="#2A343D"/>
<path d="M1.64832 46.6981C1.37162 46.6981 1.10809 46.6224 0.884099 46.4585C0.515164 46.2063 0.317521 45.7902 0.330697 45.3615L1.13445 31.2388C1.1608 30.6966 1.54291 30.2426 2.08314 30.0913C2.62336 29.94 3.20312 30.1418 3.51935 30.5831L5.37719 33.105C5.52213 33.3068 5.61437 33.5463 5.61437 33.7985L5.90424 44.2645C5.91742 44.7941 5.58801 45.2732 5.07414 45.475L2.12266 46.6098C1.96455 46.6729 1.79326 46.6981 1.63514 46.6981H1.64832ZM3.20312 41.3264L3.07135 43.5205L3.25582 43.4448L3.18994 41.3138L3.20312 41.3264Z" fill="#2A343D"/>
<path d="M104.91 50.8593H69.8746C69.5057 50.8593 69.2158 50.5819 69.2158 50.2288V10.2061C69.2158 8.46598 70.6916 7.05371 72.5099 7.05371H102.275C104.093 7.05371 105.569 8.46598 105.569 10.2061V50.2288C105.569 50.5819 105.279 50.8593 104.91 50.8593ZM70.5334 49.5983H104.251V10.2061C104.251 9.15951 103.369 8.31467 102.275 8.31467H72.5099C71.4163 8.31467 70.5334 9.15951 70.5334 10.2061V49.5983Z" fill="#2A343D"/>
<path d="M13.2564 44.7439C13.2564 44.7439 13.23 44.7439 13.2168 44.7439L9.92278 44.5674C9.55384 44.5548 9.27714 44.2522 9.30349 43.8991C9.31667 43.546 9.60655 43.2686 10.0018 43.3064L13.2959 43.483C13.6648 43.4956 13.9415 43.7982 13.9152 44.1513C13.902 44.4917 13.5989 44.7439 13.2564 44.7439Z" fill="#2A343D"/>
<path d="M123.911 50.9355L113.449 50.8599L51.4019 50.9229C51.1252 50.9229 50.888 50.759 50.7826 50.5194C48.6085 45.0343 43.0218 41.3397 36.8816 41.3397C33.0605 41.3397 29.4239 42.7267 26.6569 45.2486C26.5251 45.3747 26.3407 45.4378 26.1694 45.4251L16.5639 44.9208C16.195 44.9082 15.9183 44.6055 15.9446 44.2525C15.971 43.8994 16.2872 43.6094 16.6429 43.6598L25.9585 44.1516C28.9496 41.5288 32.8234 40.0913 36.8816 40.0913C43.4039 40.0913 49.3595 43.9246 51.8367 49.6746L113.436 49.6115L123.463 49.6872C125.927 44.2777 131.434 40.8101 137.627 40.8101C137.996 40.8101 138.286 41.0875 138.286 41.4405C138.286 41.7936 137.996 42.071 137.627 42.071C131.816 42.071 126.678 45.3999 124.517 50.5572C124.411 50.7968 124.174 50.9481 123.911 50.9481V50.9355Z" fill="#2A343D"/>
<path d="M69.216 33.2817H39.2927C38.568 33.2817 37.9751 32.7142 37.9751 32.0207C37.9751 31.3272 38.568 30.7598 39.2927 30.7598H69.216C69.9406 30.7598 70.5336 31.3272 70.5336 32.0207C70.5336 32.7142 69.9406 33.2817 69.216 33.2817Z" fill="#2A343D"/>
<path d="M153.689 42.8525C150.065 42.8525 142.581 41.5537 142.581 37.5565C142.581 37.2034 142.871 36.926 143.24 36.926H150.948C151.317 36.926 151.607 37.2034 151.607 37.5565C151.607 37.9096 151.317 38.187 150.948 38.187H144.03C144.913 40.4567 150.474 41.5916 153.702 41.5916C154.071 41.5916 154.361 41.869 154.361 42.222C154.361 42.5751 154.071 42.8525 153.702 42.8525H153.689Z" fill="#2A343D"/>
</svg>
