<svg width="160" height="71" viewBox="0 0 160 71" fill="none" xmlns="http://www.w3.org/2000/svg">
<path d="M144.454 53.2798H156.339C156.339 53.2798 157.956 52.5495 157.956 51.5759C157.956 49.0606 158.441 46.9511 155.692 45.8963V32.0218C154.884 31.2104 153.914 30.5613 152.862 29.9933C152.458 29.9933 144.696 28.5328 135.964 27.5592C127.313 26.6667 123.674 26.5044 123.674 26.5044C123.674 26.5044 110.333 17.4981 105.886 15.3886C103.137 14.0092 100.065 13.279 96.9926 13.1979C96.5075 13.1979 68.047 12.5488 63.7617 12.7922C59.4765 13.0356 56.7274 13.3601 56.1615 15.2263C55.5955 17.0925 54.6252 25.9364 54.5444 27.4781H9.83229C8.37692 27.4781 5.87046 27.4781 5.30448 28.9385C4.09168 35.0238 4.01082 41.2714 4.90021 47.4379H2.79802C2.23204 48.8984 2.23204 50.5211 2.79802 51.9816C2.79802 52.793 3.44485 53.1175 5.70875 53.4421C12.177 54.01 18.7262 54.1723 25.2753 53.9289" fill="white"/>
<ellipse cx="84.6063" cy="67.3138" rx="64.5326" ry="2.95006" fill="#B3B8C2" fill-opacity="0.16"/>
<ellipse cx="37.4053" cy="53.6696" rx="12.169" ry="12.169" fill="#F2F3F5"/>
<circle cx="37.4053" cy="53.6695" r="7.0064" fill="white"/>
<ellipse cx="131.807" cy="53.6696" rx="12.169" ry="12.169" fill="#F2F3F5"/>
<ellipse cx="131.807" cy="53.6695" rx="7.0064" ry="7.0064" fill="white"/>
<path d="M63.7627 28.3137L94.8422 28.7906C97.7712 28.7906 99.9679 31.1754 102.978 31.1754H114.45C115.67 31.1754 115.101 28.8701 114.938 28.2342C114.043 25.293 110.707 24.1801 108.185 22.9082C104.28 20.5234 99.8052 18.9336 95.249 18.2976L66.3662 17.9001C64.3322 17.9001 61.8914 17.9001 61.7287 20.2849C61.566 22.6697 61.4846 24.0211 61.4033 25.8494C61.3219 26.4854 61.2406 27.9162 63.7627 28.3137Z" fill="#F2F3F5"/>
<path fill-rule="evenodd" clip-rule="evenodd" d="M156.519 32.4322V45.3812C158.859 46.7571 158.778 49.0232 158.697 50.9655V51.8558C158.697 53.6362 156.68 54.6074 156.277 54.7693C156.115 54.8502 155.954 54.8502 155.793 54.8502H145.142C144.497 61.8103 138.768 67.3137 131.668 67.3137C125.052 67.3137 119.485 62.5387 118.356 56.1451H55.3418C54.6156 56.1451 54.0508 55.5786 54.0508 54.8502C54.0508 54.1218 54.6156 53.5553 55.3418 53.5553H118.194C118.194 52.4223 118.436 51.2892 118.678 50.2371H53.0019C52.6792 50.2371 52.4372 49.9943 52.3565 49.6706C51.711 45.0575 48.5644 41.2537 44.2074 39.6351C43.8847 39.5542 43.6427 39.1495 43.804 38.8258C43.8847 38.5021 44.2881 38.2593 44.6109 38.4211C49.2098 40.1207 52.5985 44.1673 53.486 48.9422H119.082C121.018 43.7626 125.94 40.0398 131.749 40.0398C138.688 40.0398 144.416 45.3812 145.142 52.2604H155.551C155.793 52.0985 156.115 51.8558 156.196 51.6939V50.8036C156.277 48.6994 156.196 47.971 154.905 47.4045H149.58C148.854 47.4045 148.289 46.838 148.289 46.1096C148.289 45.3812 148.854 44.8147 149.58 44.8147H153.937V42.7105H152.162C150.71 42.7105 150.226 41.4965 150.226 40.6063V37.6928C150.226 37.369 150.064 36.9644 149.822 36.7216L147.805 34.9411C147.644 34.7792 147.563 34.6174 147.563 34.4555V33.1606C147.563 32.675 147.724 31.9466 149.015 31.9466H152.646L151.92 31.461C151.597 31.3801 151.113 31.2992 150.387 31.2182C147.563 30.7327 141.754 29.7615 135.38 29.114C126.908 28.1429 123.197 28.0619 123.197 28.0619L117.549 27.7382C116.823 27.6573 116.338 27.0907 116.338 26.3624C116.419 25.634 116.903 25.0675 117.71 25.1484L118.678 25.2293C114.402 22.3967 107.786 18.1883 104.962 16.8125C102.3 15.5176 99.4756 14.7892 96.571 14.7082H94.796C91.0039 14.6273 87.6152 14.5464 84.4685 14.4654C84.5492 14.8296 84.6097 15.2141 84.6702 15.5985C84.7307 15.9829 84.7912 16.3673 84.8719 16.7315L94.7153 16.8934C99.637 17.6218 104.075 19.2404 108.189 21.8302L109.158 22.3158C111.578 23.4488 114.483 24.9056 115.451 27.981C115.532 28.2238 116.258 30.4899 115.37 31.7848C115.048 32.3513 114.483 32.5941 113.837 32.5941H113.353C113.313 32.5941 113.272 32.6143 113.232 32.6345C113.192 32.6548 113.151 32.675 113.111 32.675H109.158C109.117 32.675 109.097 32.6548 109.077 32.6345C109.057 32.6143 109.037 32.5941 108.996 32.5941H102.461C100.686 32.5941 99.1529 31.9466 97.8619 31.2992C96.6517 30.7327 95.5221 30.2471 94.3926 30.2471L86.9697 30.1661C87.6152 35.5076 88.0993 40.93 88.422 46.2715C88.5027 46.5952 88.1799 46.9189 87.8572 46.9189C87.5345 46.9189 87.2117 46.6761 87.2117 46.3524C86.9697 40.93 86.4049 35.5076 85.7594 30.1661L63.5715 29.8424H63.4101C61.0703 29.5187 59.9407 28.2238 59.9407 26.1196C59.9407 25.0827 59.9996 24.282 60.067 23.3645V23.3644C60.0785 23.2077 60.0903 23.0476 60.1021 22.8823L60.2635 20.3734C60.5055 16.7315 64.2169 16.7315 66.1534 16.7315L83.6617 16.8934C83.581 16.5292 83.5205 16.1448 83.4599 15.7603C83.3994 15.3759 83.3389 14.9915 83.2582 14.6273C72.1239 14.3845 65.5079 14.3845 63.6522 14.4654C61.0703 14.6273 57.5202 14.8701 57.1975 16.0031C56.7134 17.7027 55.7452 26.3624 55.6645 27.9001V33.5653C55.6645 34.2936 55.0997 34.8602 54.3736 34.8602C53.6474 34.8602 53.0826 34.2936 53.0826 33.5653V29.195H9.59424C8.7874 29.195 6.52826 29.195 6.28621 30.0043C6.28621 30.2471 6.28621 30.5708 6.20553 30.8136H11.2079C11.7727 30.8136 12.4182 31.2182 12.4182 32.0276V33.4843C12.4988 33.9699 12.2568 34.4555 11.8534 34.8602L10.2397 36.236C10.159 36.3169 10.0783 36.3979 10.0783 36.5597V40.2826C10.0783 40.6063 9.91697 41.0109 9.67492 41.3347C9.43287 41.5775 9.02945 41.8203 8.62603 41.8203H5.56006C5.64075 43.7626 5.72143 45.624 6.04416 47.5664C6.04416 47.6069 6.02399 47.6271 6.00382 47.6473C5.98365 47.6676 5.96348 47.6878 5.96348 47.7283C8.22262 48.052 12.6602 48.2138 12.7409 48.2138H24.9241C27.0219 43.4389 31.7822 40.1207 37.2687 40.1207C44.7722 40.1207 50.8235 46.1906 50.8235 53.7172C50.8235 61.2438 44.7722 67.3137 37.2687 67.3137C30.4106 67.3137 24.7627 62.134 23.8752 55.4977C22.3422 55.5786 20.8092 55.5786 19.2763 55.5786C14.5966 55.5786 9.91697 55.3358 5.31801 54.9311L5.20092 54.9152C3.452 54.6769 1.44167 54.403 1.28384 52.5032C0.719054 50.8036 0.799737 49.0232 1.36452 47.3236C1.52589 46.838 2.00999 46.5143 2.57477 46.5143H3.22024C2.49409 40.6872 2.65546 34.8602 3.86571 29.195C4.91459 26.6861 7.98057 26.6861 9.67492 26.6861H53.244C53.486 23.6916 54.2929 17.0553 54.777 15.3557C55.5838 12.5231 59.4566 12.2803 63.4908 12.0375C67.2022 11.8756 88.0992 12.2803 94.9573 12.4422H96.7324C100.04 12.604 103.187 13.3324 106.172 14.7892C110.287 16.8125 121.744 24.42 123.761 25.7958L124.062 25.8171C125.471 25.9162 129.144 26.1745 135.783 26.848C142.238 27.4954 148.128 28.4666 150.952 28.9522C151.839 29.114 152.404 29.195 152.565 29.195C152.727 29.195 152.888 29.2759 153.049 29.3568C154.179 29.9233 155.228 30.6517 156.115 31.542C156.357 31.7038 156.519 32.1085 156.519 32.4322ZM48.3222 53.717C48.3222 47.5663 43.3199 42.6294 37.2686 42.6294C31.2173 42.6294 26.2957 47.6472 26.2957 53.717C26.2957 59.8678 31.1367 64.8046 37.2686 64.8046C43.4005 64.8046 48.3222 59.7869 48.3222 53.717ZM24.4399 49.5088C24.1171 50.6418 23.8751 51.7749 23.7944 52.9888C17.7431 53.1507 11.6112 52.9888 5.64061 52.5032C5.01943 52.4254 4.58507 52.3475 4.30156 52.2966C3.99588 52.2418 3.86557 52.2185 3.86557 52.2605C3.86557 52.0986 3.86557 52.0177 3.78489 51.8558C3.46215 50.9656 3.38147 49.9944 3.54284 49.1041H4.75309C4.86067 49.1041 4.96825 49.0322 5.07583 48.9603C5.12961 48.9243 5.1834 48.8883 5.23719 48.8613C5.27753 48.9018 5.31788 48.922 5.35822 48.9423C5.39856 48.9625 5.4389 48.9827 5.47924 49.0232C7.73838 49.3469 12.5794 49.5088 12.8214 49.5088H24.4399ZM8.3839 40.6062C8.54527 40.6062 8.70663 40.4443 8.70663 40.2824V36.5596L5.39861 39.3922V40.6062H8.3839ZM63.7328 27.3337C62.5226 27.0909 62.5226 26.6862 62.5226 26.1197C62.5356 25.9362 62.5487 25.7592 62.5614 25.5867L62.5614 25.5865L62.5614 25.5864L62.5615 25.5863C62.6273 24.6939 62.6839 23.9259 62.6839 23.0443L62.8453 20.5354C62.926 19.5642 63.4101 19.2405 66.1533 19.2405L84.1457 19.4833C84.6298 22.1538 85.0332 24.9053 85.4366 27.6567L85.4367 27.6574L63.7328 27.3337ZM107.06 24.2582C103.187 21.7493 99.0723 20.2925 94.6347 19.6451H85.4368C85.9209 22.3967 86.3243 25.0675 86.7277 27.8192L94.4734 27.9001C96.1677 27.9001 97.62 28.5475 98.9916 29.195C99.1856 29.2728 99.3775 29.3527 99.5679 29.432C100.566 29.8476 101.525 30.2471 102.542 30.2471H108.028L108.109 28.5475C108.19 27.9001 108.754 27.3336 109.4 27.3336H112.143C111.094 26.2815 109.642 25.5531 108.19 24.8247L107.06 24.2582ZM131.668 64.7239C125.617 64.7239 120.695 59.7871 120.695 53.6363C120.695 47.5664 125.617 42.5487 131.668 42.5487C137.72 42.5487 142.722 47.4855 142.722 53.6363C142.641 59.7871 137.72 64.7239 131.668 64.7239ZM151.516 40.7683C151.516 40.9301 151.597 41.5776 152.162 41.5776V41.4967H153.937V34.4556L151.516 37.6929V37.7738V40.7683Z" fill="#001333"/>
<path d="M67.3484 36.3378C67.6803 36.3378 68.0122 35.9691 68.0122 35.6003C68.0122 35.2316 67.6803 34.8628 67.3484 34.8628H62.0383C61.7064 34.8628 61.3745 35.2316 61.3745 35.6003C61.3745 35.9691 61.7064 36.3378 62.0383 36.3378H67.3484Z" fill="#001333"/>
<path d="M96.8489 36.3378C97.1808 36.3378 97.5126 35.9691 97.5126 35.6003C97.5126 35.2316 97.1808 34.8628 96.8489 34.8628H91.5388C91.2069 34.8628 90.875 35.2316 90.875 35.6003C90.875 35.9691 91.2069 36.3378 91.5388 36.3378H96.8489Z" fill="#001333"/>
<path d="M124.568 52.5634C124.655 52.5634 124.655 52.5634 124.743 52.5634C125.093 52.5634 125.355 52.3111 125.442 52.0588C125.705 50.7134 126.492 49.452 127.542 48.527C127.804 48.2748 127.804 47.8543 127.629 47.6021C127.367 47.3498 126.929 47.3498 126.667 47.518C125.355 48.6111 124.48 50.1248 124.131 51.7225C123.956 52.0588 124.131 52.4793 124.568 52.5634Z" fill="#001333"/>
<path d="M131.73 45.9259C131.648 45.9259 131.648 45.9259 131.73 45.9259C130.908 45.9259 130.085 46.0074 129.345 46.252C129.015 46.3335 128.769 46.7411 128.933 47.0671C129.015 47.3932 129.427 47.6377 129.756 47.4747C130.414 47.3117 131.072 47.2301 131.73 47.2301C135.35 47.2301 138.229 50.0832 138.229 53.6698C138.229 57.2565 135.35 60.191 131.73 60.191C128.604 60.191 125.972 58.0716 125.313 55.0556C125.231 54.7295 124.902 54.485 124.573 54.5665C124.244 54.648 123.997 54.9741 124.079 55.3001C124.82 58.8868 128.028 61.4137 131.73 61.4137C131.73 61.4137 131.73 61.4137 131.813 61.4137C133.869 61.4137 135.844 60.5986 137.324 59.1313C138.805 57.664 139.628 55.7077 139.546 53.6698C139.463 49.3495 136.008 45.9259 131.73 45.9259Z" fill="#001333"/>
<path d="M30.1714 52.9828C30.5005 53.0657 30.8297 52.817 30.912 52.4854C31.6527 48.9202 35.1092 46.6816 38.648 47.4278C41.6107 48.0911 43.7504 50.6613 43.8327 53.6461C43.8327 55.3043 43.2566 56.8797 42.1045 58.1233C41.8576 58.3721 41.8576 58.7866 42.1867 59.0354C42.3513 59.1183 42.4336 59.2012 42.5982 59.2012C42.7628 59.2012 42.9274 59.1183 43.092 58.9524C44.4088 57.46 45.1494 55.636 45.1494 53.6461C45.0672 49.998 42.5159 46.8474 38.9772 46.1012C34.6977 45.1892 30.5828 47.9252 29.6776 52.2366C29.5953 52.5683 29.8422 52.8999 30.1714 52.9828Z" fill="#001333"/>
<path d="M39.7795 59.6004C38.8975 59.9946 38.0156 60.1522 37.0535 60.2311C34.0869 60.2311 31.5212 58.1813 30.8798 55.2643C30.7996 54.949 30.4789 54.7124 30.1582 54.7913C29.8375 54.8701 29.597 55.1855 29.6772 55.5008C30.3988 58.9697 33.5257 61.4136 37.0535 61.4136C38.176 61.4136 39.2984 61.1771 40.3407 60.7041C40.6614 60.5464 40.8218 60.2311 40.6614 59.9157C40.5011 59.6004 40.1002 59.4427 39.7795 59.6004Z" fill="#001333"/>
<path d="M39.1231 37.0757C38.8174 37.0757 38.5117 37.2969 38.5117 37.5919C38.5117 37.887 38.741 38.182 39.0467 38.182C39.811 38.2557 40.6517 38.3295 41.4159 38.5507C41.4924 38.5507 41.4924 38.5507 41.5688 38.5507C41.8745 38.5507 42.1038 38.4032 42.1802 38.1082C42.2566 37.8132 42.1038 37.4444 41.7216 37.3707C40.8809 37.2232 39.9638 37.1494 39.1231 37.0757Z" fill="#001333"/>
</svg>
