<svg xmlns="http://www.w3.org/2000/svg" class="MuiSvgIcon-root MuiSvgIcon-fontSizeInherit css-v0hoi2" focusable="false" aria-hidden="true" viewBox="0 0 24 24" data-testid="KmxArrowRightStrokedIcon"><path d="M13.84 5.83999C13.56 6.11999 13.56 6.56999 13.84 6.83999L18.28 11.28H4.00004C3.61004 11.28 3.29004 11.6 3.29004 11.99C3.29004 12.38 3.61004 12.7 4.00004 12.7H18.29L13.85 17.14C13.57 17.42 13.57 17.87 13.85 18.14C14.13 18.41 14.58 18.42 14.85 18.14L20.51 12.48C20.58 12.42 20.63 12.34 20.66 12.25C20.7 12.16 20.72 12.07 20.72 11.98C20.72 11.89 20.7 11.79 20.66 11.71C20.62 11.62 20.57 11.55 20.51 11.48L14.85 5.81999C14.57 5.53999 14.12 5.53999 13.85 5.81999L13.84 5.83999Z" fill="currentColor"/></svg>